<?xml version="1.0" encoding="UTF-8"?>
<!DOCTYPE svg PUBLIC "-//W3C//DTD SVG 1.1//EN" "http://www.w3.org/Graphics/SVG/1.1/DTD/svg11.dtd">
<!-- Creator: CorelDRAW 2020 (64-Bit) -->
<svg xmlns="http://www.w3.org/2000/svg" xml:space="preserve" width="14.9846mm" height="19.4371mm" version="1.1" style="shape-rendering:geometricPrecision; text-rendering:geometricPrecision; image-rendering:optimizeQuality; fill-rule:evenodd; clip-rule:evenodd"
viewBox="0 0 354.79 460.21"
 xmlns:xlink="http://www.w3.org/1999/xlink"
 xmlns:xodm="http://www.corel.com/coreldraw/odm/2003">
 <defs>
  <style type="text/css">
   <![CDATA[
    .str0 {stroke:black;stroke-width:4.74;stroke-miterlimit:22.9256}
    .fil0 {fill:black}
    .fil2 {fill:#F3F3F5}
    .fil1 {fill:white}
   ]]>
  </style>
 </defs>
 <g id="Contenido_x0020_de_x0020_PowerClip">
  <metadata id="CorelCorpID_0Corel-Layer"/>
  <g id="_2127686630784">
   <path class="fil0 str0" d="M314.25 2.37l30.04 0 3.59 0 4.41 0c-1.39,27.4 -6.09,61.38 -11.96,87.96 -16.06,72.75 -45.47,130.09 -87.89,188.55 -29.69,40.92 -30.16,34.4 -53.92,61.07 -17.12,19.2 -5.58,5.3 -20.32,17.87l-143.33 83.74c-10.9,5.45 -23.37,17.04 -32.32,16.25 -1.84,-9.6 11.03,-36.46 12.8,-52.86 7.73,-71.82 -18.53,-118.31 5.59,-190.73 12.1,-36.33 31.89,-60.79 38.58,-101.71 3.27,-20.01 4.92,-38.52 9.66,-58.5 4.74,-19.96 12.11,-33.83 17.81,-51.64l1.21 0 7.48 0 9.02 0 16.4 0 17.94 0 22.55 0 37.76 0 7.96 0 11.45 0 4.83 0 8.09 0 9.16 0 16.17 0 8.25 0 13.44 0 5.71 0 10.51 0 5.86 0 6.05 0 7.44 0z"/>
   <path class="fil1" d="M259.99 14.94c8.51,2.28 4.38,-1.16 7.54,2.74l1.04 -2.46c-0.25,-12.47 0.35,-4.46 -3.23,-6.88l-5.35 6.61z"/>
   <path class="fil1" d="M53.27 392.03c-6.89,3.92 -5.67,4.92 -9.22,12.28l9.22 -12.28z"/>
   <path class="fil1" d="M171.98 108.74c11.05,-1.32 2.84,5.69 10.26,-6.1 0,-0 1.88,-6.74 1.93,-6.97 -2.01,6.84 -5.71,5.85 -12.19,13.07z"/>
   <path class="fil1" d="M121.09 3.97l-16.4 0c-1.27,7.87 -2.27,7.92 -4.62,15.49 8.4,-12.84 1.52,-6.77 14.44,-5.9l6.58 -9.6z"/>
   <path class="fil1" d="M161.58 3.97l-22.55 0 -27.73 39.64c17.5,-11.15 17.84,-23.81 28.41,-27.2 7.59,-2.43 7.78,0.02 18.24,-9 0.54,-0.47 1.34,-1.27 1.79,-1.67 0.47,-0.42 1.21,-1.18 1.84,-1.76z"/>
   <path class="fil1" d="M106.85 269.01l-1.9 -3.54c-35.41,2.2 -48.02,-0.84 -75.02,-14.58 32.67,26.08 38.28,18.95 76.92,18.12z"/>
   <path class="fil1" d="M171.98 108.74c-5.41,3.65 -8.94,6.7 -15.01,10.71l-50.61 36.24c19.53,-7.77 36.71,-19.26 51.23,-32.93 6.7,-6.3 12.02,-7.81 14.39,-14.02z"/>
   <path class="fil1" d="M56.92 200.53c57.51,1.18 70.1,-23.07 84.01,-24.69 -24.5,15.75 -73.46,19.98 -77.79,21.28 -4.51,1.35 -4.18,2.05 -6.22,3.41z"/>
   <path class="fil1" d="M78.92 124.96l79.84 -50.6c8.15,-5.83 18.8,-17.48 24.11,-19.72 -14.23,13.69 -98.04,60.76 -103.95,70.32z"/>
   <path class="fil1" d="M145.19 320.34c0.03,-0.88 0.05,-4.84 -0.08,-6.07l-1.45 -3.56c-6.88,13.12 -5.72,32.08 2.07,44.83l-0.55 -35.2z"/>
   <path class="fil1" d="M240.89 169.86c2.36,3.58 6.74,21.19 16.25,37.61 3.53,6.1 0.26,4.67 8.01,7.28 -2.24,-7.18 -19.94,-40.51 -24.26,-44.89z"/>
   <path class="fil1" d="M257.74 28.5c5.31,12.27 2.36,11.44 12.28,18.31 -3.27,-8.76 -5.35,-13.23 -12.28,-18.31z"/>
   <path class="fil2" d="M30.49 435.51c2.23,-3.04 3.67,-6.11 4.89,-7.73 4.71,-6.25 1.22,-2.53 6.91,-6.35 -3.41,13.1 0.06,10.94 -11.8,14.08zm30.47 -35.13c-9.33,27.58 -5.79,21.8 -14.4,26.1 3.35,-10.3 7.11,-18.78 14.4,-26.1zm-27.82 0.71c-2.97,9.17 -10.22,14.9 -11.74,20.04 -0.42,-14.48 -0.34,-12.16 3.93,-18.39l7.81 -1.64zm20.12 -9.06l-9.22 12.28c3.54,-7.36 2.32,-8.36 9.22,-12.28zm7.7 8.35c2.47,-8.76 4.07,-11.6 11.57,-17.76 2.05,-1.69 1.89,3.7 4,-2.91 0.39,-1.22 1.54,-1.03 2.3,-1.56 -9.93,39.95 -4.86,36.87 -21.95,43.12l4.08 -20.89zm-10.38 -28.01c-7.77,18.46 -10.16,22.23 -27.68,26.54l0.77 -20.71 26.91 -5.84zm22.58 40.53c2.93,-13.32 5.66,-22.48 10.56,-35.35l15.1 -28.14 -3.42 51.51 -22.24 11.98zm-52.6 -81.28c21.36,6.19 28.15,8.07 52.98,2.01l-13.76 24.18c-4.93,11.73 -22.3,15.73 -35.82,20l-3.4 -46.19zm77.33 68.24c0.85,-20.27 2.23,-43 8.76,-62.09 3.67,-10.72 1.82,-8.3 10.77,-13.54l-1.43 14.77c3.03,-6.08 2.98,-4.75 5.81,-8.55l-5.66 60.3 -18.25 9.12zm36.65 -108.03c-0.28,3.95 1.22,2.3 -1.52,8.76 -2.14,5.04 -2.51,3.48 -4.62,6.04 1,-10.13 -0.77,-9.56 6.14,-14.8zm-27.69 -22.82c-4.29,10.52 -12.64,8.36 -27.61,14.39 10.51,-0.16 18.09,-2.71 25.63,-5.74 -7.58,17.19 -9.13,26.98 -35.32,24.05 -17.62,-1.97 -29.55,-11.6 -38.55,-19.77 13.47,16.12 31,28.39 59.91,21.08 -6.2,20.25 -8.48,23.14 -28.03,29.19 -14.55,4.5 -30.86,0.34 -42.79,-4.66 -2.24,-23.67 -5.46,-80.59 4.49,-96.33 18.24,24.22 60.74,32.47 97.17,12.28 -4.08,12.2 -7.49,21.72 -14.89,25.5zm134.68 12.04c-2.71,-34.89 -11.83,-64.53 -15.52,-98.62 -2.57,-23.78 -3.27,-84.33 8.32,-100.52 6.36,19.67 14.38,41.87 23.7,59.07 9.71,17.91 22.18,37.02 40.01,45.23 -3.28,17.47 -36.27,74.56 -51.75,90.74 -3.37,3.52 -2.47,2.1 -4.77,4.1zm-106.99 10.78c1.78,-11.65 18.57,-39.66 26.25,-56.35 0.78,-1.69 3.48,-8.22 4.16,-9.36 6.64,-11.18 0.39,-1.9 6.72,-7.55 -5.21,72.18 -5.17,64.68 18.72,114.71 0.42,-11.97 -18.4,-41.44 -18.98,-69.23 -0.31,-14.76 0.3,-58.56 9.28,-71.58 7.74,-11.22 -0.31,-1.12 7.65,-7.23 -3.09,36.1 -8.94,79.89 9.36,110.25 2.52,-5.06 -5.93,-38.75 -6.45,-49.39 -0.85,-17.4 -1.07,-39.1 0.55,-55.96 2.36,-24.4 1.37,-24.11 12.52,-45.14 9.58,-18.06 10.1,-29.74 21.86,-42.16 -3.5,37.83 -7.69,57.26 -3.13,98.13 2.76,24.81 13.87,67.16 13.98,87.71 -6.3,10.57 -8.59,9.42 -14.97,18.7 -7.89,11.49 -7.38,7.73 -16.47,16.47l-36.07 31.47c-10.88,-33.01 -16.71,-49.63 -12.64,-89.05 -5.95,13.61 -6.08,33 -3.48,50.46 1.12,7.56 3.01,14.93 5.69,21.81l8.67 18.58c-8.67,9.81 -22.77,17.12 -34.05,23.74 -2.64,1.55 -4.59,2.95 -6.79,4.14 -5.49,2.95 2.01,-0.44 -7.08,3.04 0.12,-43.42 14.79,-63.41 19.33,-99.12 -0.63,10.07 1.43,-0.12 -4.64,2.91zm108.55 -231.88c3.3,6.68 5.85,15.64 9.28,21.03 15.05,23.67 39.7,41.81 46.21,50.11 -10.67,-26.13 -66.02,-57.65 -48.82,-84.86l15.8 26.88c24.85,40.84 47.76,52.34 55.31,63.44 -3.86,6.81 -6.76,15.98 -10.01,24.2l-8.06 19.32c-3.66,5.57 -0.43,1.1 -5.39,5.27 -12.83,-16.62 -26.48,-31.14 -39.18,-55.85 -9.25,-18 -26.22,-50.5 -15.16,-69.53zm-31.51 -12.08l1.46 -1.32c-0.15,-0.4 -0.98,0.87 -1.46,1.32zm140.72 -43.9l-8.01 0 -1.98 31.36c-14.41,-4.83 -18.84,-12.22 -28.06,-31.36l-7.44 0c4.3,7.51 2.09,2.24 5.15,12.22 -6.74,-4.79 -1.03,1.49 -8.1,-6.43 -3.66,-4.11 0.14,0.4 -3.1,-5.79l-5.86 0c4.06,10.51 10.54,12.17 15.11,24.63l4.49 -1.1c-7.52,-19.91 -2.92,-5.21 1.83,-10.96 2.73,11.77 11.47,17.27 25.34,21.51l-2.42 17.94c-3.36,1.51 -2.84,4.95 -16.04,-2.07 -12.27,-6.53 -22.86,-17.72 -33.57,-21.65 3.53,3.47 6.67,5.4 10.26,9.2 5.21,5.52 11.02,20.01 36.87,23.74 -1.37,23.87 -9.89,40.22 -13.21,62.33 -19.48,-11.3 -30.35,-25.01 -42.37,-42.92 -3.04,-4.53 -5.78,-7.72 -9.18,-12.7 -5.15,-7.55 -19.02,-29.09 -17.96,-37.64 1.73,-13.83 -0.63,-2.92 3.68,-5.77l2.25 -13.56 5.35 -6.61 -0.09 -4.36 -8.25 0c-23.27,68.52 -62.3,139.29 -91.51,205.73 -34.69,78.92 -50.52,102.83 -95.2,164.92 -4.15,5.77 -11.93,15.79 -17.01,17.41l74.67 -142.87c22.13,-46.55 50.33,-101.2 69.29,-146.93 12.6,-30.39 34.04,-67.32 43.58,-98.25l-9.16 0c-3.24,6.81 -0.13,1.35 -4.27,7.75l-67.87 79.93c-12.9,11.65 -65.69,40.49 -87.76,51.97 -9.75,5.08 -5.93,0.68 -10.54,8.78 36.64,-12.29 57.49,-25.61 84.42,-44.56 5.41,-3.81 3.98,-2.65 9.2,-7.14 5.3,-4.55 4.56,-3.04 9.88,-6.75 9.13,-6.37 39.99,-43.25 46.85,-46.08 -2,18.11 -15.02,36.43 -22.21,54.26 -6.05,15 -4.69,14.26 -16.65,22l-20.31 15.31c-3.76,2.86 -1.47,1.66 -5.91,5.01l-39.26 23.83c-18.56,9.65 -22.04,12.93 -41.46,14.51 -0.05,0 -7.39,0.65 -7.61,0.71 -8.17,2.23 -1.74,-0.02 -6.93,4.36 30.47,1.63 51.21,-12.88 71.22,-24.01 24.04,-13.37 50.27,-35.3 54.55,-37.27 -4.65,14.5 -31.17,72.68 -39.67,82.44 -18.99,21.82 -59.85,24.01 -88.93,18.23 25.37,6.34 40.79,14.58 75.83,-3.83 7.67,-4.03 -0.09,-0.65 8.93,-3.94 -6.16,16.15 -5.47,15.48 -20.01,23.12 -8.21,4.31 -19.85,7.84 -30.34,8.26 -11.01,0.43 -22.56,-2.28 -31.98,-6.68 -19.55,-9.14 -12.7,-10.66 -26.27,-12.94 1.51,-34.93 41.31,-76.81 44.01,-132.47 30.77,-6.26 81.74,-34.51 106.75,-51.58 6.11,-4.17 11.12,-8 17.6,-12.54l30.63 -30.67 -4.83 0c-8.14,10.43 -6.3,10.01 -15.77,16.26 -17.35,11.44 -20.47,17.61 -51.57,36.14 -16.7,9.95 -19.3,12.84 -37.48,20.03 -15.57,6.15 -28.26,10.34 -43.21,16.84 2.86,-23 -3.65,-5.28 35.91,-24.45 12.01,-5.82 22.7,-12.96 34.8,-19.96l65.87 -44.87 -7.96 0c-5.26,10.58 -3.56,5.68 -12.18,11.43l-45.1 28.78c-19.68,10.46 -43.21,26.93 -68.72,31.39 7.08,-43.57 18.38,-55.44 22.34,-71.6l-8.69 0c-5.7,17.81 -13.07,31.68 -17.81,51.64 -4.74,19.97 -6.39,38.49 -9.66,58.5 -6.69,40.92 -26.48,65.38 -38.58,101.71 -24.12,72.42 2.15,118.91 -5.59,190.73 -1.77,16.41 -14.64,43.26 -12.8,52.86 8.95,0.79 21.42,-10.8 32.32,-16.25l143.33 -83.74c14.74,-12.57 3.2,1.33 20.32,-17.87 23.77,-26.66 24.23,-20.15 53.92,-61.07 42.42,-58.47 71.84,-115.8 87.89,-188.55 5.87,-26.57 10.58,-60.55 11.96,-87.96z"/>
   <path class="fil2" d="M267.53 17.67c2.55,29.73 35.98,78.91 55.62,86.29 -2.67,-10.22 -1.46,-4.95 -6.31,-11.02l-38.94 -51.61c-5.21,-10.4 -8.09,-14.82 -9.33,-26.12l-1.04 2.46z"/>
   <path class="fil2" d="M41.38 207.83c5.79,7.58 11.63,8.31 24.92,8.75 20.09,0.67 63.77,-9.83 76.72,-27.01 -41.77,13.68 -50.85,28.17 -101.64,18.26z"/>
   <path class="fil2" d="M231.96 280.33c-13.85,-32.68 -21.76,-55.15 -21.84,-95.96 -6.82,26.2 2.89,83.15 21.84,95.96z"/>
   <path class="fil2" d="M273.4 188.41l-35.92 -58.34c5.69,26.13 22.38,46.36 35.92,58.34z"/>
   <path class="fil2" d="M310.02 28.6c-6.4,-3.2 -9.03,-5.99 -13.86,-10.79 -2.4,-2.39 -4.91,-4.81 -6.77,-6.87 -6.09,-6.74 -1.15,-0.16 -4.99,-6.97l-5.71 0c5.75,12.74 23.53,28.66 35.62,34.41 -0.48,-0.78 -2.27,-3.16 -2.51,-3.72 -2.74,-6.55 0.08,3.34 -1.77,-6.06z"/>
   <path class="fil2" d="M22.02 296.19c10.69,12.29 7.53,8.14 21.59,15.07 7.81,3.85 14.21,5.65 21.67,8.39 -2.45,-5.18 -14.34,-8.66 -21.1,-11.27 -19.96,-7.69 -9.58,-5.92 -22.16,-12.19z"/>
  </g>
 </g>
</svg>
