<?xml version="1.0" encoding="UTF-8"?>
<!DOCTYPE svg PUBLIC "-//W3C//DTD SVG 1.1//EN" "http://www.w3.org/Graphics/SVG/1.1/DTD/svg11.dtd">
<!-- Creator: CorelDRAW 2020 (64-Bit) -->
<svg xmlns="http://www.w3.org/2000/svg" xml:space="preserve" width="19.007mm" height="26.9738mm" version="1.1" style="shape-rendering:geometricPrecision; text-rendering:geometricPrecision; image-rendering:optimizeQuality; fill-rule:evenodd; clip-rule:evenodd"
viewBox="0 0 360.54 511.67"
 xmlns:xlink="http://www.w3.org/1999/xlink"
 xmlns:xodm="http://www.corel.com/coreldraw/odm/2003">
 <defs>
  <style type="text/css">
   <![CDATA[
    .str0 {stroke:black;stroke-width:3.79;stroke-miterlimit:22.9256}
    .fil0 {fill:black}
    .fil1 {fill:#F3F3F5}
    .fil2 {fill:white}
   ]]>
  </style>
 </defs>
 <g id="Contenido_x0020_de_x0020_PowerClip">
  <metadata id="CorelCorpID_0Corel-Layer"/>
  <g id="_2127934670384">
   <path class="fil0 str0" d="M232.07 354.5c-22.94,30.37 -62.29,48.25 -96.53,65.69 -27.48,14 -72.91,44.11 -97.61,62.5 -4.52,3.36 -10.46,7.11 -15.68,10.59 -18.17,12.11 -3.59,12.78 -20.35,16.09l0 -11.89c15.61,-22.1 8.63,-156.74 26.83,-186.26l55.61 -76.03c3.82,-4.48 2.22,-1.65 5.98,-7.21 15.96,-23.61 56.62,-73.51 74.91,-98.28l50.3 -57.19c8.98,-10.27 18.55,-16.1 27.1,-25.55 11.7,-12.94 12.47,-8.38 37.02,-17.47l58.48 -20.53c9.78,-3.27 9.63,-8.28 20.53,-6.79 0.09,9.31 -11.01,21.29 -15.52,35.77 -5.1,16.41 -5.66,28 -7.67,44.62 -8.13,67.08 4.1,71.03 -33.07,127.4 -51.96,78.81 -29.69,90.77 -70.31,144.54z"/>
   <path class="fil1" d="M28.64 465.41l-4.08 7.73c1.71,-8.79 2.27,-6.16 4.08,-7.73zm67.9 -89.95l-5.1 6.64c4.13,-11.57 1.47,-4.01 5.1,-6.64zm25.33 -24.79c3.48,-8 1.13,-4.37 10.4,-9.16 -4.83,7.96 1.4,2.32 -10.4,9.16zm17.88 -14.3c-1.37,2.26 0.49,0.62 -2.92,3.53 -2.31,1.97 0.36,0.05 -3.74,1.67 2.18,-3.36 -2.56,-3.24 6.66,-5.2zm-51.71 10.07c-2,7.49 -0.51,4.39 -5.59,11.27 -3.85,-6.76 -4.76,-17.38 -8.66,-25.57 -3.75,-7.86 -7.5,-14.88 -12.95,-19.21 4.99,21.08 16.85,25.35 17.54,52.45l-7.97 11.62c-1.22,-9.73 2.07,-17.85 -3.94,-25.77 4.58,15.85 -1.15,34.6 -8.26,47.64 -3.32,6.08 -7.34,13.84 -11.13,19.67l-11.29 18c0.34,-18.01 -0.39,-52.93 -7.56,-67.27 -4.21,10.16 0.03,29.94 1.56,41.7 1.13,8.74 2.12,14.88 1.71,23.94 -0.91,19.95 -4.72,16.63 -6.37,18.16 0.37,-7.33 2.09,-18.75 -0.22,-26.39 -1.6,-5.27 -2.03,-3.77 -3.48,-5.49 0.84,8.19 1.25,16.49 0.88,24.74 -0.96,21.84 -3.78,16.3 -6.93,19.33l11.88 -121.98c19.9,49.92 8.81,35.17 18.09,69.31 -0.83,-23.2 -0.17,-59.15 -18.18,-70.95 3.95,-34.43 6.03,-10.9 34.35,-35.17 15.8,10.52 18.79,34.9 26.52,39.98zm-58.14 135c-2.27,2.67 5.56,-0.01 -5.22,3.66 2.64,-7.36 -0.09,-3.01 5.12,-7.09 7.99,-4.67 12.71,-11.63 19.38,-17.83 11.92,-11.08 10.53,-13.28 18.08,-19.13l32.34 -24.82c3.48,-2.49 7.73,-5.16 11.89,-7.86 15.2,-9.87 31.43,-17.18 49.39,-27.35l51.01 -28.25c-3.59,7.89 2.4,2.4 -10.94,11.53l13.82 -8.32c4.81,-4.62 7.07,-10.96 11.43,-14.66 -8.27,10.61 3.86,-2.91 -20.64,10.01 -28.02,14.78 -117.67,66.01 -133.28,81.59 -5.34,5.33 -4.25,4.66 -10.66,9.14 -9.45,6.62 -12.72,10.94 -20.05,18.35 2.88,-7.55 7.94,-13.89 11.65,-20.17 10.4,-17.6 14.38,-16.19 25.62,-25.08l13.77 -12.48c22.55,-19.45 75.16,-53.23 101.28,-61.85 -3.71,1.57 -0.31,0.06 -1.31,4.04l26.86 -24.06c-35.71,25.87 -3.82,7.45 -38.4,21.45 -35.94,14.54 -67.93,36.52 -95.25,62.36 -3.53,3.33 -14.24,11.89 -17.87,14.45 19.55,-34.61 31.75,-35.58 51.05,-60.09l22.31 -17.32c17.54,-11.44 29.41,-15.81 52.06,-24.83 16.73,-6.66 40.78,-16.49 59.34,-17.88 -1.57,13.17 -15.53,41.77 -23.68,51.54 -21.59,25.88 -7.09,8.63 -25.04,25.48 -11.15,10.47 -33.06,22.12 -47.55,29.44 -23.13,11.68 -46.73,24.28 -65.29,35.44l-61.24 40.61zm109.85 -145.08c2.46,-6.33 -1.49,-1.31 5.02,-6.67 32.48,-26.7 75.75,-34.72 112.72,-44.37 -5.47,19.97 2.12,4.04 -29.35,14.1 -20.93,6.69 -82.69,35.81 -88.38,36.94zm-51.71 10.07c-4.38,-18.57 -7,-23.8 -17.01,-35.56 -3.19,-3.75 -5.01,-6.21 -7.31,-10.04 16.94,-17.14 19.27,-8.85 34.64,-19.65 12.33,-8.66 13.1,-15.95 24.04,-28.1 4.02,20.94 -1.59,32.03 -7.49,49.23l-5.04 -17.4c-0.24,19.96 7.33,20.14 -5.98,35.83l-6.27 -11.89c5,11.5 5.7,12.06 1.28,24.1l-4.69 -10.86c-2.18,-9.59 -4.41,-16.24 -11.74,-22.42 6.15,7.01 18.01,36.34 5.56,46.75zm79.69 -127.4l-5.22 5.75c-2.97,12.57 -4.11,9.03 -8.04,12.24 -0.17,-8.51 1,-10.64 -3.33,-16.65 0.71,8.14 1.24,14.98 -0.53,23.07 -2.04,9.38 -3.75,10.76 -9.14,14.75 1.8,-9.94 2.69,-14.59 0.59,-24.75 -5.84,13.19 -0.69,19.22 -16.25,51.54 1,-18.23 2.69,-19 -0.22,-38.75 2.89,-19.61 38.98,-42.28 53.52,-47.91 -0.75,7.74 -6.45,13.49 -11.37,20.71zm11.37 -20.71l7.08 -8.93c-0.75,1.82 -3.55,11.42 -5.25,8.15 -0.23,-0.45 -1.23,0.52 -1.84,0.78zm-65.35 155.8l-0.22 2.63c5.21,0.03 -1.34,-3.46 2.79,1.59 -11.64,7.55 -10.68,13.31 -19.77,17.11 1.64,-6.44 2.45,-6.93 5.7,-10.95 2.45,-8.01 0.74,-14.01 6.36,-11.14 7.19,-15.03 17.19,-30.93 29.62,-40.97 8.84,-7.14 13.25,-15.36 16.79,-18.27 33.64,-27.67 77.68,-37.06 118.07,-52.15 -10.41,-6.58 -59.37,14.3 -68.76,18.24 -10.82,4.54 -22.2,10.79 -30.27,15.77 -9.66,5.96 -17.95,15.51 -28.39,19.46 2.98,-7.06 16.62,-31.15 21.01,-35.72 7.34,-7.65 23.26,-14.76 33.76,-21.18 11.35,-6.94 24.62,-12.45 37.66,-17.32 32.55,-12.16 37.46,-3.73 47.28,-7.23 -29.86,-14.55 -91.55,26.38 -109.41,33.41 7.57,-20.22 22.92,-40.11 43.9,-48.75 30.72,-12.65 46.36,-7.89 76.41,-1.2 -8.1,-11.86 -31.79,-11.11 -46.15,-9.21 -20.99,2.78 -29.12,8.92 -45.21,13.53 7.47,-20.53 9.17,-17.29 14.41,-19.3 27.34,-10.47 45.96,-12.2 73.21,-0.74 -35.12,-11.17 -21.19,-18.88 -74,-1.51 4.1,-8.49 0.86,-5.82 8.02,-10.04 27.84,-16.39 66.04,-12.2 85.58,14.63l-28.75 46.71c-30.51,46.82 -10.81,46.83 -36.12,52.02 -39.87,8.18 -92.78,32.09 -121.04,58.53 -11.54,10.79 -10.95,5.24 -12.48,12.05zm201.29 -175.89c-10.74,-6.13 -19.82,-15.61 -36.55,-19.72 -25.33,-6.22 -29.03,0.59 -47.96,5.1l12.39 -18.46c16.9,-17.65 52.63,-3.23 69.1,5.56 -13.91,-2.21 -23.95,-22.61 -62.26,-13.9 12.12,-29.94 47.71,-12.08 68.06,9.99 -6.36,-10.35 -9.13,-13.85 -20.62,-20.34 -9.64,-5.45 -20,-7.28 -33.43,-7.63 8.42,-10.07 6.47,-16.88 26.6,-20.47 17.63,-3.15 23.97,1.06 37.09,6.16 -1.04,26.78 -4.69,48.76 -12.43,73.73zm-140.89 -49.07c4.45,-4.53 4.61,-5.77 8.6,-11.12 2.9,-3.89 1.73,-3.19 4.04,-6.73 3.83,-5.87 0.98,-2.2 5.21,-5.43l45.79 -45.12c-5.17,25.36 -32.61,49.55 -36.21,75.47 -4.2,30.22 -19.96,53.07 -44.64,67.82 -29.09,17.38 -29.41,31.6 -51.27,62.5 -12.22,17.27 -20.38,9.89 -37.39,19.88 -13.37,7.85 -5.13,19.73 -29.02,24.96 5.03,-6.13 3.7,-6.35 7.27,-11.74 6.68,-10.09 28.15,-19.09 31.45,-26.36 -7.2,2.97 -10.41,6.42 -17.74,9.74 5.76,-8.89 0.03,-5.7 11.21,-13.12 20.44,-13.58 19.08,-22.2 43.72,-32.43 -7.78,-2.85 -16.43,4.53 -22.99,9.07l-8.36 4.96c10.57,-23.49 29.64,-38.26 48.31,-52.75 4.23,-3.28 0.69,-1.1 6.1,-4.85 23.32,-16.21 33.48,-16.25 43.67,-22.61 -11.92,2.17 -24.46,6.77 -34.04,12.6 -10.36,6.31 -19.41,13.93 -28.05,17.95 4.2,-9.72 8.15,-12.45 14.66,-20.47l28.94 -23.7c10.01,-7.09 25.57,-9.07 30.12,-17.23 -5.27,4.53 -35.09,17.29 -45.21,23.86 3.33,-10.23 12.68,-19.37 20.44,-27.55 2.28,-2.41 3.31,-4.07 5.41,-7.57zm133.81 -61.7c2.75,-7.21 -0.63,-2.28 5.13,-8.04 13,-13.02 5,-12.09 19.93,-11.68l-5.21 54.69c-8.14,-2.59 -1.26,0.19 -7.97,-3.08 -22.74,-11.09 -22.38,-2.17 -37.83,-3.55 4.36,-1.53 8,-9.71 10.78,-15.07 12.6,0.42 22.77,2.31 30.48,8.17 -5.51,-8.2 -16.54,-7.34 -24.5,-12.94 6.45,-6.13 17.35,-6.36 25.61,-9.65l-16.42 1.16zm-279.32 397.94c2.13,-13.88 66.87,-118.33 82.75,-144.61 34.66,-57.36 87.66,-143.56 126.47,-193.83l85.48 -90.58c-3.62,8.37 -25.47,32.66 -33.07,39.79l-20.36 25.84c-3.68,4.51 -2.26,1.57 -5.55,5.19l-61.84 83c-3.58,6.14 -162.86,264.32 -171.5,273.56l-2.38 1.65zm300.25 -421.76c1.28,-1.93 2.66,-4.16 3.94,-5.72 3.92,-4.8 1.34,-2 5.39,-5.12 -3.13,13.18 0.58,11.66 -9.33,10.84zm-28.73 5.5c-3.01,8.41 0.1,4.29 -7.52,8.15 -2.85,1.44 -3.57,1.21 -7.28,3.18 -2.91,2.72 -5.46,3.87 -8.01,7.08 -4.78,6.02 -0.43,3.59 -7.2,8.81l-1.13 7.32c-6.33,3.5 -8.01,2.58 -13.05,8.98 -0.96,1.09 -1.96,2.32 -2.89,3.34 -3.02,3.29 -1.57,1.61 -3.35,3.49l3.08 -12.24c1.17,-4.04 -3.44,-3.3 1.33,-3.33 0,-5.6 -1.34,-5.2 3.37,-2.31l4.43 -21.28c-1.22,13.32 -9.18,24.71 -14.94,36.1 -5.46,10.8 -9.78,25.91 -20.42,31.87 -1.4,4.55 0.87,0.58 -2.53,1.68l-17.29 26.03c-0.24,-0.42 -1.04,0.96 -1.55,1.45 9.76,-62.15 18.44,-46.39 34.74,-85.33 3.98,-9.5 6.58,-19.33 15.37,-24.5 -1.25,16.53 -5.21,26.49 -9.18,40.5 4.64,-15.55 9.33,-21.59 12.68,-43.75l21.05 -7.21 -10.33 29.5 1.88 2.14c3.59,-11.91 7.73,-16.58 9.29,-32.62l21.55 -6.61c-2.62,8.58 -5.84,11.17 -7.15,18.4l0.09 0.51c10.26,-23.32 11.99,-21.3 26.68,-25.85 -3.29,10.54 -5.22,11.49 -11.8,9.23 -6.35,14.96 -8.99,9.4 -9.92,17.23zm-298.27 449.62l0 11.88c16.76,-3.3 2.18,-3.97 20.35,-16.08 5.22,-3.48 11.17,-7.23 15.68,-10.59 24.7,-18.39 70.13,-48.5 97.61,-62.5 34.24,-17.44 73.59,-35.33 96.54,-65.69 40.62,-53.77 18.35,-65.73 70.31,-144.54 37.17,-56.36 24.94,-60.32 33.07,-127.4 2.01,-16.62 2.57,-28.21 7.68,-44.62 4.51,-14.48 15.6,-26.46 15.52,-35.77 -10.9,-1.5 -10.75,3.52 -20.53,6.78l-58.47 20.53c-24.55,9.09 -25.32,4.53 -37.02,17.47 -8.55,9.45 -18.12,15.28 -27.1,25.55l-50.3 57.18c-18.29,24.77 -58.95,74.68 -74.91,98.28 -3.76,5.56 -2.16,2.73 -5.98,7.21l-55.61 76.03c-18.2,29.52 -11.21,164.15 -26.83,186.26z"/>
   <path class="fil2" d="M179.09 198.33c0.61,-0.26 1.6,-1.23 1.84,-0.78 1.7,3.27 4.5,-6.32 5.25,-8.15l-7.08 8.93z"/>
   <path class="fil2" d="M28.64 465.41c-1.81,1.57 -2.37,-1.05 -4.08,7.73l4.08 -7.73z"/>
   <path class="fil2" d="M29.89 481.45l-0.1 -3.44c-5.21,4.09 -2.48,-0.26 -5.12,7.09 10.78,-3.67 2.95,-0.98 5.22,-3.66z"/>
   <path class="fil2" d="M257.5 81.62c-4.72,-2.88 -3.37,-3.28 -3.37,2.31 -4.76,0.03 -0.15,-0.72 -1.33,3.33 4.23,2.47 3.74,-4.09 3.17,5.4 5.04,-6.41 6.72,-5.48 13.05,-8.98l1.13 -7.32 1.28 -7.52 -1.88 -2.14 -12.04 14.93z"/>
   <path class="fil2" d="M192 105.88c-4.23,3.23 -1.38,-0.44 -5.21,5.43 -2.32,3.55 -1.14,2.85 -4.04,6.73 -3.99,5.35 -4.15,6.59 -8.6,11.12 17.2,-8.09 17.14,-15.09 27.4,-23.24 0.44,-0.35 1.02,-0.64 1.45,-1.01l3.87 -4.29c-17.1,11.9 -12.42,9.68 -14.88,5.25z"/>
   <path class="fil2" d="M251.56 142.47c0.48,0.29 1.16,0.23 1.45,0.88l15.64 2.69c11.99,2.16 37.23,11.93 41.55,19.59 -12.55,-17.6 -31.06,-24.97 -58.63,-23.16z"/>
   <path class="fil2" d="M173.12 265.93c21.62,-13.49 39.1,-22.9 65.12,-33.97 -9.77,-0.72 -24.8,8.85 -33.67,12.9 -15.25,6.97 -20.71,12.88 -31.45,21.07z"/>
   <path class="fil2" d="M165 302.17c17.65,-10.33 79.26,-32.82 90.93,-42.8l-69.79 30.75c-5.03,2.7 -17.91,10.87 -21.14,12.05z"/>
   <path class="fil2" d="M222.67 207.28c7.24,1.31 27.18,-4.68 44.64,-4.31l15.02 -1.23c-25.35,-4.76 -36.75,0.27 -59.66,5.54z"/>
   <path class="fil2" d="M56.85 364.02c4.26,-12.71 -4.4,-32.3 -12.77,-37.71 0.9,7.09 4.49,10.75 7.06,17.63 1.76,4.7 4.48,14.48 5.71,20.09z"/>
   <path class="fil2" d="M285.36 60.47c3.71,-1.97 4.43,-1.74 7.28,-3.18 7.62,-3.86 4.51,0.26 7.52,-8.15l-4.96 -0.61 -0.09 -0.51c-5.16,2.95 -7.78,6.6 -9.75,12.45z"/>
   <path class="fil2" d="M102.24 364.51c2.7,-1.22 3.49,-1.01 6.3,-2.91 4.97,-3.36 2.73,-2.17 4.97,-4.84l0.22 -2.63 -5.14 -0.76c-5.62,-2.88 -3.91,3.12 -6.36,11.14z"/>
   <polygon class="fil2" points="162.5,224.79 167.72,219.04 163.69,213.24 "/>
   <path class="fil1" d="M54.53 397.16c5.99,-22.01 -10.17,-58.76 -22.23,-69.01 3.41,11.82 9.25,21.17 13.62,32.22 3.73,9.43 7.46,34.48 8.61,36.79z"/>
   <path class="fil1" d="M192.59 344.86c-12.91,7.16 -15.08,14.95 -34.16,25.13 -11.76,6.28 -27.35,12.83 -35.22,21.65 6.14,-5.78 39.19,-20.53 53.73,-31.91 4.26,-3.34 3.91,-4.17 8.06,-7.14 3.42,-2.44 2.01,-0.62 4.23,-2.56 3.95,-3.42 1.71,-0.55 3.36,-5.18z"/>
   <path class="fil1" d="M153.9 197.15c-7.34,0.79 -12.99,6.05 -18.53,9.34 -6.72,3.99 -10.52,9.21 -16.24,16.23l34.77 -25.57z"/>
   <path class="fil1" d="M162.69 167.6l30.11 -11.57c-8.39,-2.88 -25.84,4.35 -30.11,11.57z"/>
   <path class="fil1" d="M170.83 141.31c9.73,-3.17 15.13,-9.23 24.75,-12.62 -5.02,-3.58 6.33,-5.59 -5.99,-1.93 -0.5,0.15 -15.9,9.94 -18.76,14.56z"/>
   <path class="fil1" d="M322.31 130.48c-5.35,-10.77 -20.18,-18.4 -31.94,-23.46 3.75,5.09 10.64,7.49 15.48,10.67 7.93,5.2 9.74,8.85 16.46,12.79z"/>
   <path class="fil1" d="M101.39 236.18c6.44,-3 11.62,-6.43 15.58,-10.74 -5.77,1.66 -12.58,5.35 -15.58,10.74z"/>
  </g>
 </g>
</svg>
