<?xml version="1.0" encoding="UTF-8"?>
<!DOCTYPE svg PUBLIC "-//W3C//DTD SVG 1.1//EN" "http://www.w3.org/Graphics/SVG/1.1/DTD/svg11.dtd">
<!-- Creator: CorelDRAW 2020 (64-Bit) -->
<svg xmlns="http://www.w3.org/2000/svg" xml:space="preserve" width="3.7384mm" height="5.7907mm" version="1.1" style="shape-rendering:geometricPrecision; text-rendering:geometricPrecision; image-rendering:optimizeQuality; fill-rule:evenodd; clip-rule:evenodd"
viewBox="0 0 26.9 41.67"
 xmlns:xlink="http://www.w3.org/1999/xlink"
 xmlns:xodm="http://www.corel.com/coreldraw/odm/2003">
 <defs>
  <style type="text/css">
   <![CDATA[
    .fil0 {fill:black}
   ]]>
  </style>
 </defs>
 <g id="Capa_x0020_1">
  <metadata id="CorelCorpID_0Corel-Layer"/>
  <path class="fil0" d="M13.45 7.34c3.38,0 6.11,2.74 6.11,6.11 0,3.38 -2.74,6.11 -6.11,6.11 -3.37,0 -6.11,-2.74 -6.11,-6.11 0,-3.37 2.74,-6.11 6.11,-6.11zm0 -7.34c7.43,0 13.45,6.02 13.45,13.45 0,0.41 -0.02,0.81 -0.06,1.21 -0.7,3.67 -3.09,9.44 -5.78,14.49 -8.81,16.57 -6.45,16.85 -15.4,-0.1 -2.55,-4.84 -4.83,-10.45 -5.58,-14.11 -0.05,-0.49 -0.08,-0.99 -0.08,-1.49 0,-7.43 6.02,-13.45 13.45,-13.45z"/>
 </g>
</svg>
