<?xml version="1.0" encoding="UTF-8"?>
<!DOCTYPE svg PUBLIC "-//W3C//DTD SVG 1.1//EN" "http://www.w3.org/Graphics/SVG/1.1/DTD/svg11.dtd">
<!-- Creator: CorelDRAW 2020 (64-Bit) -->
<svg xmlns="http://www.w3.org/2000/svg" xml:space="preserve" width="46.2396mm" height="85.4423mm" version="1.1" style="shape-rendering:geometricPrecision; text-rendering:geometricPrecision; image-rendering:optimizeQuality; fill-rule:evenodd; clip-rule:evenodd"
viewBox="0 0 7143.81 13200.46"
 xmlns:xlink="http://www.w3.org/1999/xlink"
 xmlns:xodm="http://www.corel.com/coreldraw/odm/2003">
 <defs>
  <style type="text/css">
   <![CDATA[
    .str0 {stroke:black;stroke-width:30.9;stroke-miterlimit:22.9256}
    .fil0 {fill:black}
    .fil2 {fill:#F3F3F5}
    .fil1 {fill:white}
   ]]>
  </style>
 </defs>
 <g id="Contenido_x0020_de_x0020_PowerClip">
  <metadata id="CorelCorpID_0Corel-Layer"/>
  <g id="_2127892341776">
   <path class="fil0 str0" d="M7128.35 2488.14l-0.02 61.94c-51.97,73.09 -58.15,93.41 -100.93,178.49 -0.17,-50.97 61.94,-208.14 100.95,-240.43z"/>
   <path class="fil0 str0" d="M7128.33 1463.26l0 29.09c-39.88,21.29 -48.23,21.37 -84.93,42.47 5.08,-12.88 7.29,-19.95 8,-23.55 1.93,-1.5 5.1,-4.65 10.13,-10.49 28.77,-33.31 43.04,-30.74 66.79,-37.53z"/>
   <path class="fil0 str0" d="M7051.41 1511.28c-6.69,5.25 1.92,-9.55 0,0z"/>
   <path class="fil0 str0" d="M7128.35 3147.55l0 77.85c-71.05,73.25 -91.68,209.45 -142.72,296.42 15.67,-106.35 88.02,-310.54 142.72,-374.27z"/>
   <path class="fil0 str0" d="M6790.1 7536.45c24.32,68.5 104.21,230.51 74.74,308.64 -23.05,-61.71 -90.95,-266.5 -74.74,-308.64z"/>
   <polygon class="fil0 str0" points="7017.62,6961.37 7128.35,7308.69 7128.33,7493.55 "/>
   <path class="fil0 str0" d="M7128.35 1934.25l0 52.33c-37.02,38.52 -59.25,41.42 -103.62,92.6 19.53,-76.82 56.28,-99.57 103.62,-144.93z"/>
   <path class="fil0 str0" d="M7097.97 12466.36l30.36 -54.51 0 412.98c-58.63,57.98 -83.15,75.76 -102.94,175.15l-50.63 0c17.15,-187.99 19.57,-240.98 -2.27,-429.37 -76.89,-662.43 -95.48,-613.32 -218.84,-1230.76 -122.65,-613.7 -2.83,-809.51 289.14,-1266.09 34.84,-54.51 41.48,-105.71 85.54,-157.48l0.02 117.29c-36.85,31.24 -56.13,71.27 -79.4,126.19 35.09,65.01 25.77,76.12 79.38,125.16l0 81.67c-67.95,-60.84 -39.23,-98.21 -116.41,-180.34l-34.13 91.52c85.58,34.87 94.64,152.7 150.54,217.84l-0.02 104.5c-77.42,-116.6 -55.12,-187.43 -165.56,-307.18 -252.14,246.78 -219.23,800.53 -140.58,1135.28 80.17,341.4 208.96,865.04 199.3,1210.87 20.76,-21.3 15.19,-10.03 33.46,-21.47 -8.5,-145.94 25.29,-337.54 24.05,-492.89 -3.66,-450.74 -123.53,-726.62 -186.82,-1119.24 -6.04,-37.22 -10.54,-74.5 -16.53,-112.12 -2.29,-14.37 -6.89,-49.5 -9.66,-60.22l-22.19 -53.32c3.79,-43.01 6.64,-79.89 5.5,-105.84 6.92,122.75 4.76,30.98 28.6,90.53 11.93,29.79 15.26,66.42 22.15,101.86 140.44,726.93 203.86,754.94 197.91,1599.99z"/>
   <path class="fil0 str0" d="M7128.33 11062.73l0.02 235.07 -73.18 -312.13c-0.85,-4.53 -11.6,-60.08 -11.7,-60.3 -12.84,-36.99 -14.28,-27.98 -27.76,-46.55 -0.26,143.46 -3.66,261.07 26.53,399.31 20.15,92.37 68.19,221.08 50.37,305.1 -67.64,-175.2 -141.5,-793.37 -68.53,-970.39 -7.15,250.21 -23.53,183.9 27.42,267.23 1.95,3.21 4.4,7.68 6.18,11 32.94,62.52 17.2,98.58 70.67,171.66z"/>
   <path class="fil0 str0" d="M6843.81 10779.82c-0.34,3.8 -0.68,7.63 -1.02,11.53 0.09,-4.39 0.2,-8.78 0.32,-13.19l0.7 1.67z"/>
   <path class="fil0 str0" d="M6842.79 10791.35c-4.51,210.52 27.92,374.61 40.86,562.55 -9.42,-70.88 -46.38,-230.57 -51.11,-300.37 -5.92,-87.29 3.23,-183.76 10.24,-262.18z"/>
   <path class="fil0 str0" d="M6883.66 11353.9c1.87,14.06 2.66,24.61 1.9,30.3 -0.57,-10.18 -1.21,-20.27 -1.9,-30.3z"/>
   <path class="fil0 str0" d="M5210.47 2145.12c117.46,163.22 429.73,556.05 486.12,710.96 38.11,104.7 51.49,144.08 43.71,265.72 -12.82,200.54 -4.5,391.68 17.29,586.02 66.05,589.34 141.38,759.48 463.3,1178.2l318.48 449.4c83.88,128.94 150.03,254.32 228.59,378.72 65.43,103.62 141.52,310.92 217.47,383.92 70,-134.57 -63,-604.93 -91.37,-832.68 -18.76,-150.39 -33.36,-258.55 -94.29,-402.8 -42.53,-100.73 -126.07,-251.77 -176.74,-340.76 -249.74,-438.47 -471.47,-974.06 -551.83,-1469.04 -88.99,-548.04 7.35,-1256.61 216.22,-1738.8 22.19,-51.17 55.28,-118.9 84.18,-165.12l756.73 -1017.51 0 477.1c-24.43,39.4 -26.84,82.01 -23.72,131.78 5.18,0.31 13.02,-0.54 23.73,-5.72l-0.02 38.24 -22.68 21.09c-14.31,20.73 -11.63,15.13 -23.05,41.5 26.08,20.78 -4.43,11.62 45.73,10.01l0.02 32.68 -47.55 13.19 -22.77 157.01c42.16,-40.59 15.19,-27.86 70.33,-52.79l0 38.61c-79.49,56.27 -86.36,95.8 -97.75,234.45 5.16,-2.73 12.85,-12.5 15.56,-8.19l82.19 -44.74 -0.02 23.51c-116.61,54.54 -99.33,58.45 -112.36,213.39l112.36 -79.15 0 21.03c-128.28,47 -124.03,178.38 -117.17,309.45 3.77,-4.6 15.06,-17.57 17.33,-20.98 1.56,-2.32 4.88,-7.49 6.64,-10.29 1.95,-3.03 4.79,-8.22 6.8,-11.53 41.33,-66.91 23.98,-54.44 86.41,-78.33l-0.02 45.14c-92.65,87.07 -128.09,95.31 -131.44,253.51l131.44 -127.34 0 38.1c-114.14,57.1 -130.44,184.98 -134.5,293.34 -5.67,149.66 -24.12,299.89 -12.22,449.6 3.21,-3.86 8.34,-14.55 9.66,-11.6 1.31,2.81 7.2,-8.84 8.91,-11.7l128.15 -202.05 0 49.86c-15.76,16.36 -13.05,9.8 -30.76,34.59l-65.61 113.03c-37.08,73.94 -53.95,88.37 -56.34,185.3 -3.52,141.47 -26.03,348.39 -2.97,479.91 53.95,-136.44 74.74,-297.45 155.7,-416.49l0 91.08c-19.68,25.4 2.64,-19.37 -24.87,36.85l-119.47 454.45c-34.51,169.11 -39.83,380.28 -24.01,564.77 11.76,-127.04 102.38,-465.51 168.34,-560.45l0.02 84.08c-95.96,110.77 -198.37,654.1 -172.25,819.82 60.82,-149.18 92.6,-371.14 172.25,-496.49l0 109.44c-106.37,124.4 -199.76,570.3 -178.71,823.79 7.04,-11.9 9.15,-7.8 20.52,-42.19 39.75,-120.17 54.29,-304.37 158.17,-507.43l0 94.71c-68.47,91.15 -139.56,428.9 -155.36,563.83 57.86,-51.39 53.42,-71.78 85.59,-151.79 17.13,-42.61 48.93,-114.11 69.79,-142.77l-0.02 129.11c-77.63,81.6 -198.28,446.82 -189.09,585.09 15.42,232.28 81.47,446.15 110.16,671.14l47.2 -81.36c11.2,-27.01 20.32,-48.6 31.73,-69.34l0 222.41c-3.6,3.58 -8.54,8.03 -10.86,10.64l-19.37 21.41c-2.52,3.14 -5.58,7.43 -8.02,10.75 -17.75,24.47 -10.85,14.04 -26.43,44.32 -26.56,51.69 -24.02,50.24 -33.08,105.41l57.86 -49.47c24.22,-22.76 19.48,-15.39 39.91,-36.24l-0.02 51.05c-109.1,100.61 -147.88,115.01 -201.8,339.7l201.82 -242.85 0 46.67 -89.02 99.5c-74.95,99.46 -152.29,186.45 -177.48,304.37l24.13 16.64c-31.73,54.09 -2.46,3.74 -32.23,34.24 -56.31,150.66 -144.27,347.66 -173.82,522.23l28.5 23.87c-9.44,77.8 -5.69,8.42 -30.33,35.24 -58.26,69.49 -49.39,90.23 -82.28,204.61 199.3,-89.25 150.77,-412.67 236.01,-600.14 24.81,-54.6 55.22,-89.22 78.21,-135.18 49.7,-99.57 141.73,-298.92 218.32,-378.7l0 88.79c-3.48,3.68 -8.47,8.08 -10.83,10.68 -2.27,2.49 -7.6,7.28 -10.29,10.4 -3.28,3.83 -14.32,16.69 -17.5,21.2 -37.06,52.61 -33.02,62.8 -1.56,128.23l30.02 48.88c1.45,-3.06 6.77,8.27 10.18,12.41l-0.02 61.92c-15.08,-26.39 -24.02,-47.55 -36.46,-83.63l-62.96 -91.74c-102.06,401.49 -233.98,234.99 -113.29,494.32 53.27,114.36 19.76,108.95 19.19,110.82l-83.54 -174.69c-31.16,171.88 -77.34,471.07 -280.98,540.64 -9.73,221.11 113.32,389.7 165.11,612.57 52.48,225.66 75.76,437.64 115.41,663.57 132,-228.27 -149.86,-899.1 -110.79,-1113.54 75.76,106.94 156.1,743.6 160.8,904.56 99.79,-196.83 86.08,-500.83 74.25,-736.97 -12.17,-242.28 -78.08,-434.84 -122.58,-658.32 75.18,49.82 115.7,323.84 130.09,425.23 29.76,208.83 6.38,371.96 21.46,561.78 151.67,-247.78 -54.26,-802.54 -26.56,-1101.52 83.52,165.53 48.39,589.82 123.12,764.78l27.72 -60.95 0.02 205.19c-33.45,48.2 -33.62,75.73 -50.44,137.83 -29.14,107.3 -107.14,349.25 -88.26,434.78 44.77,-46.69 73.71,-238.93 138.71,-361.52l0 175 -35.29 84.09c9.27,-10.86 23.62,-10.94 35.29,-20.8l0.02 43.95c-69.55,57.8 -59.87,45.27 -96.7,148.18 2.95,-2.94 7.37,-11.96 8.62,-9.1l88.06 -71.08 0 68.13c-2.33,4.56 -4.2,8.27 -5.69,11.28 -1.13,0.59 -4,3.71 -9.8,11.39 -28.66,37.85 -3.96,-1.68 -29.14,39.92l44.62 -36.57 0 73.52c-70.28,35.56 -48.09,34.75 -85.07,87.06 -60.02,84.96 -126.9,129.64 -188.02,295.89 -100.76,273.86 -368.72,1256 -423.6,1521.66 -97.61,472.43 -145.47,656.5 -57.58,1144.01 71.18,394.92 100.84,789.32 100.98,1195.05l-91.83 0c-84.57,-625.49 -214.1,-1116.42 -475.26,-1653.84 -37.22,-76.6 -54.72,-115.42 -110.56,-158.96 -92.2,-71.84 -54.88,-100.64 -313.52,-224.42 -597.47,-285.99 -684.86,13.22 -984.96,85.33 37.39,87.44 106.43,173.81 160.55,275.05 175.75,329.01 235.68,398.35 407.98,664.41 35.15,54.29 43.91,43.21 91.72,104.64 105.35,135.31 180.16,136 229.06,200.78 41.2,54.55 51.4,75.13 99.91,114.28 125.59,101.33 33.93,34.67 149.66,153.8l282.45 438.95 -55.74 -0.02c-81.54,-209.37 -334.7,-512.72 -508.6,-674.42 -51.01,-47.43 -72.03,-50.57 -126.5,-105.97 -165.4,-168.28 -968.35,-257.78 -1191.36,-239.17 -496.6,41.48 -403.43,-64.52 -732.39,-221.35 -658.18,240.12 -764.66,-17.29 -1268.3,9.5 -575.85,30.62 -674.82,67.17 -1228.02,-202.59 -105.17,-51.26 -224.54,-100.85 -344.65,-139.06 -210.58,-67.05 -291.19,-27.93 -447.79,-54.8 7.72,-72.27 59.08,-76.49 144.89,-157.63 31.81,-30.1 59.33,-35.1 93.78,-68.49 37.45,-36.32 30.48,-49.89 73.66,-85.87l502.76 -426.52c217,-174.73 309.22,-199.79 544.04,-309.92 64.7,-30.3 29.96,-10.03 63.22,-51.17l-259.6 -219.38c-74.3,-112.4 -137.3,-155.95 -242.98,-240.24 -81.3,-64.84 -173.62,-69.38 -150.69,-137.1 10.18,-4.5 666.35,-75.21 741.67,-80.48 829.39,-57.95 1257.27,29.52 1972.68,459.69 222.58,133.85 272.85,234.97 496.77,325.95 194.63,79.06 380.43,177.81 567.76,253.53 396.61,160.3 856.01,170.29 1199.52,445.66 -72.44,-185.27 -209.67,-375.66 -327.89,-532.02 -24.7,-32.66 -42.93,-47.99 -63.48,-79.02l-197.71 -250.07c-91.86,-80.57 -99.67,-126.89 -221.89,-224.33 -71.18,-56.79 -93.41,-134.58 -233.12,-232.52 -185.55,-130.07 -153.21,-118.62 -397.36,-194.06 -151.22,-46.66 -312.31,-95.25 -471.09,-134.84 -336.07,-83.8 -661.67,-113.71 -995.29,-201.93 -183.42,-48.53 -335.69,-150.39 -480.31,-250.92 -76.4,-53.1 -191.13,-208.91 -247.7,-286.42l-87.58 -126.95c-45.17,-67.33 -81.71,-120.65 -132.8,-171.43l-331.67 -275.19c-136.59,-134.61 -149.12,-98.24 -283.33,-305.65 -71.92,-111.07 -138.1,-273.95 -193.2,-413.18 -69.55,-175.72 -134.5,-338.7 -237.75,-495.88 -58.37,-88.85 -182.4,-146.76 -225.78,-247.12 60.99,-29.56 602.44,10.49 722.93,14.03 351.03,10.34 313.46,59.84 567.23,169.81 390.05,169.03 992.8,643.04 1356.78,892.88l662.71 463.29c177.36,134.86 489.98,1020.06 616.34,1274.39l149.54 226.63c34,30.74 68.78,43.44 105.3,74.47l179.96 194.65c39.27,38.93 73.28,50.33 106.94,89.14l166.9 208.09c33.91,47.74 10.77,9.35 44.14,45.3l124.17 161.22c18.72,24.61 50.27,72.07 72.67,106.28 26.3,40.18 50.74,72.5 80.09,116.29 154.19,229.75 293.91,466.67 404.95,719.3 178.15,405.38 395.79,1020.37 424.72,1458.36 20.7,-729.74 -192.18,-1437.95 -292,-2141.8 -24.94,-175.75 -60.5,-525.07 -129.5,-691.92 -27.69,-67.07 -6.75,-24.55 -33.02,-57.38 -32.21,-40.22 -39.72,-57.35 -68.43,-93.16 -36.51,-45.48 -52.5,-38.36 -86.13,-73.69 -28.61,-30.1 -29.71,-54.48 -57.21,-86.61 -36.54,-42.66 -45.65,-25.63 -82.32,-77.02 -26.9,-37.73 -24.9,-50.29 -59.62,-85.07 -35.15,-35.15 -51.35,-32.61 -86.76,-72.77l-230.06 -235.51c-42.53,-36.14 -38.73,-51.05 -75.08,-84.45 -30.59,-28.04 -56.61,-33.99 -85.76,-58.86 -36.48,-31.18 -33.06,-47.63 -77.56,-82.04 -124.54,-96.31 -125.34,-120.04 -237.92,-208.57 -48.25,-37.98 -163.21,-215.21 -203.84,-277.64 -204.63,-314.75 -132.09,-670.82 -213.23,-1017.49 -97.95,-418.48 -238.48,-541.88 -172.88,-1034.92 35.94,-270.12 121.88,-542.82 88.12,-817.19 -12.13,-98.48 -50.24,-198.17 -54.54,-274.62 124.77,19.93 69.83,39.37 161.39,101.63 186.8,127.09 670.37,406.32 826.54,566.32 144.42,148.02 146.35,104.05 317.16,325.03 19.3,24.9 26.6,37.87 53.24,71.73l196.18 304.33c17.4,28.2 37.81,52.85 55.12,86.73 843.81,1648.34 68.18,2466.38 237.83,3476.1 48.99,291.52 119.93,606.15 155.01,890.67 3.28,-4.94 8.54,-17.58 9.76,-14.89 1.22,2.61 7,-10.88 8.42,-15.3 8.68,-26.6 7.04,-20.92 11.49,-48.87l42.25 -259.8c56.79,-322.49 132.85,-646.3 224.08,-954.8 140.31,-474.59 316.59,-750.57 213.65,-1290.46 -41.02,-214.93 -71.9,-444.16 -146.51,-641.85 -100.7,-266.8 -150.77,-314.86 -62.18,-632.3 44.87,-160.66 398.24,-1147.18 391.04,-1189.96 -13.95,-82.64 -402.45,-739.52 -443.53,-797.07 -51.22,-71.81 -73.32,-116.09 -122.79,-180.82l-508.37 -723.97c-80.97,-122.1 -212.11,-208.14 -330.53,-278.25 -322.9,-191.2 -662.96,-376.07 -964.13,-608.08l-326.59 -280.12c-558.27,-559.44 -945.36,-1363.21 -929.88,-2169.13 2.36,-123.5 92.16,-1077.08 115.87,-1122.9 70.64,4.17 42.3,-10.83 74.56,64.42 26.71,62.34 21.57,43.8 55.36,88.05 40.68,53.36 160.63,202.81 213.08,236.16 89.05,56.62 133.02,160.58 228.42,234.34 56.89,43.97 82.44,102.85 135.04,150.57l273.18 333.32c18.45,23.36 10.34,21.04 28.24,44.25l229.87 287.15c103.65,160.74 240.86,314.07 355.59,466.44l168.52 224.42z"/>
   <path class="fil0 str0" d="M7122.65 8668.05c-13.12,26.6 3.94,-2.05 0,0z"/>
   <path class="fil1" d="M5911.37 9543.92c-10.23,69.17 -18.28,-1.25 5.25,81.79l60.08 166.02c1.33,-42.13 -10.24,-85.96 -16.67,-128.94 -20.12,-134.47 -14.51,-104.27 -48.67,-118.87z"/>
   <path class="fil1" d="M5490.46 4102.34c-21.23,-38.13 3.85,-16.1 -40.76,-46.7 -4.73,-3.24 -32.46,-14.45 -37.67,-16.56 -31.92,-12.96 -56.27,-19.1 -90.92,-27.13 114.43,75.58 89.56,99.71 169.34,90.4z"/>
   <path class="fil1" d="M2859.19 10765.13c4.34,4.53 9.98,10.34 13.53,13.1 2.94,2.29 9.36,7.54 12.24,9.64 20.07,14.79 19.42,12.44 19.42,5.79l76.95 -5.14c-15.77,-65.95 1.1,-23.19 -64.5,-63.67l4.6 21.75c-22.49,23.33 24.16,19.17 -62.25,18.52z"/>
   <path class="fil1" d="M6989.64 8610.41c-3.62,3.71 -9.01,7.86 -11.15,10.83 -36.51,50.29 -36.37,95.28 -43.51,161.29 32.34,-60.64 56.28,-89.08 54.66,-172.12z"/>
   <path class="fil1" d="M4357.21 9524.13c18.42,25.06 -21.32,23.14 43.32,35.09 61.6,11.37 17.44,-6.15 35.07,-16.3 -21.37,-9.1 -22.36,-9.18 -44.83,-15.02l-33.56 -3.77z"/>
   <path class="fil1" d="M4506.33 5798.08c-18.57,-81.37 -13.78,-31.36 -52.91,-90.77 1.7,6.04 11.2,44.45 12.58,47.23 22.49,45.48 10.29,23.89 40.34,43.54z"/>
   <path class="fil1" d="M4911.65 3760.02c46.23,34.93 37.65,36.52 108.78,67.65l-59.17 -51.73c-4.17,-2.39 -41.73,-13.02 -49.61,-15.93z"/>
   <path class="fil1" d="M5179.57 7647.38l33.71 56.38c-11.15,-116.41 1.21,-29.85 -33.71,-56.38z"/>
   <path class="fil1" d="M3784.69 1251.78l33.22 64.78c-14.71,-106.99 -5.35,-42.15 -33.22,-64.78z"/>
   <path class="fil1" d="M4821.93 11900.89c34.13,44.76 -63.74,9.22 55.76,33.91l-55.76 -33.91z"/>
   <path class="fil1" d="M1515.48 7003.84c24.27,59.34 -41.99,14.97 61.72,55.66 36.38,14.28 43.2,13.36 81.06,33.09l-3 -35.58c-11.59,-56.85 11.43,-7.28 -16.22,-42.21 -23.72,-29.94 -0.66,-7.94 -33.31,-11.25 -58.06,5.52 -34.27,24.12 -53.97,-8.99l-36.29 9.27z"/>
   <path class="fil1" d="M1924.38 7285.81c11.2,47.97 -10.15,12.11 32.21,38.05 13.7,8.39 15.8,4.02 38.27,15.02 47.06,23.05 14.62,30.82 67.59,26.8 -17.18,-56.3 22.19,-6.12 -44.26,-52.73l-119.33 -84.76c51.97,33.56 24.18,-3.54 25.52,57.61z"/>
   <path class="fil1" d="M5590.86 4120.01l-11.25 2.6 -46.63 2.98c30.4,74.36 -11.12,5.95 130.5,96.22l-72.63 -101.8z"/>
   <path class="fil1" d="M6678.1 7302.59c24.63,-26.84 20.87,42.58 30.28,-35.22l-28.46 -23.89c-8.74,12.02 -43.54,44.99 -1.82,59.11z"/>
   <path class="fil1" d="M4359.66 9420.11c41.28,72.21 5.45,30.61 62.37,68.24 0.59,0.37 27.36,13.63 46.35,18.85l-108.72 -87.09z"/>
   <path class="fil1" d="M2917.25 10192.23l14.37 -2.15 2.84 -28.89 -74.14 -9.5c76.34,36.26 16.13,-1.3 56.93,40.54z"/>
   <path class="fil1" d="M4323.62 1459.78l52.57 46.6c-2.24,-3.55 -5.84,-14.07 -6.06,-11.08l-1.58 -22.73 -11.88 -12.99 -33.06 0.2z"/>
   <path class="fil1" d="M2843.18 11608.06l-3.15 -8.02 -31.39 14.32c8.85,7.15 -0.02,46.27 34.55,-6.3z"/>
   <polygon class="fil1" points="4472.01,9421.06 4447.39,9425.39 4489.49,9452.46 "/>
   <line class="fil1" x1="5254.16" y1="9058.6" x2="5254.16" y2= "9058.6" />
   <path class="fil1" d="M4755.79 8481.27l-2.36 -45.16c-48.65,-73.2 -21.01,-16.38 -99.8,-79.4 -19.56,-15.63 -1.04,-2.75 -19.9,-21.37 13.78,57.6 52.16,118.62 74.91,161.76 59.33,112.41 256.03,333.42 338.98,369.26 -84.42,-69.86 -98.58,-112.15 -161.12,-188.18 -26.88,-32.68 -130.64,-125.47 -130.7,-196.92z"/>
   <path class="fil1" d="M2145.62 8133.88c107.7,24.26 239.1,31.5 340.85,51.6 97.49,19.23 188.19,48.4 288.47,61.5 -0.28,-0.05 -410.37,-186.58 -629.32,-113.11z"/>
   <path class="fil1" d="M1718.08 7993.35c43.23,33.08 -58.55,38.39 71.36,21l206.28 -64.76c80.71,-17.16 206,-21.4 291.24,-40.86 -454.8,-6.81 -313.38,24.98 -568.88,84.63z"/>
   <path class="fil1" d="M7031.67 8679.3c-59.54,51.93 -33.8,132.43 -33.8,132.42 0.32,-2.47 3.68,8.79 5.44,13.22 68.04,-35.56 58.8,-23.55 80.38,-95.09 25.2,-41.62 0.54,-2.05 29.15,-39.94 28.3,-37.47 -13.36,33.62 15.5,-22.66l0 -68.12 -88.09 71.07c-1.21,-2.87 -5.64,6.15 -8.57,9.1z"/>
   <path class="fil1" d="M2379 7189.56c-43.81,-48.03 -138.18,-139.91 -193.24,-132.51l-120.54 -20.41c17.49,37.09 29.14,23.98 63.61,38.47 76.27,32.04 91.49,57.23 250.17,114.45z"/>
   <path class="fil1" d="M7128.33 2560.55l0 -61.95c-39.01,32.29 -101.09,189.46 -100.93,240.43 42.8,-85.07 48.94,-105.38 100.93,-178.47z"/>
   <path class="fil1" d="M1567.06 7531.47l-5.81 -18.93c-199.89,111.55 -15.54,21.2 -196.66,186.79 105.37,-85.42 96.65,-97.97 190.29,-159.13 2.9,-1.92 8.17,-5.73 12.17,-8.73z"/>
   <path class="fil1" d="M5253.99 3748.93c39.92,41.79 31.59,36.88 102.01,40.43 -3.8,-7.15 -18.08,-32.89 -21.89,-39.52 -1.87,-3.24 -7.09,-5.93 -8.54,-13.83 -1.48,-8.11 -5.95,-9.42 -8.84,-14.18 -38.16,51.18 73,36.45 -36.86,32.35l-26.45 -5.58 0.57 0.32z"/>
   <path class="fil1" d="M5113.31 2156.96c6.04,-12.48 13.13,-2.5 1,-29.63 -6.46,-14.45 -15.9,-21.58 -23.08,-29.85l-14.71 28.52c-1.48,2.66 -5.08,11.91 -9.53,16.39 16.05,19.93 6.03,2.72 46.32,14.57z"/>
   <path class="fil1" d="M6853.76 6721.25c29.74,-30.5 0.45,19.85 32.2,-34.27l-24.13 -16.59c-0.28,0.32 -60.02,67.1 -8.06,50.86z"/>
   <path class="fil1" d="M5228.96 7882.74c-54.65,-62.56 -41.91,-73.03 -58.69,-93.56 -37.64,-46.07 6.33,-10.26 -60.36,-44.99l119.05 138.55z"/>
   <path class="fil1" d="M4363.94 6001.04l25.12 -34.55 72.13 34.22 13.58 -9.61 -79.47 -28.07c-23.98,-26.53 -19.22,44.7 -21.06,-45.3l-10.3 83.3z"/>
   <path class="fil1" d="M7021.48 12649.54c0.97,97.04 -3.18,24.95 17.54,48.2l15.93 -69.66c-18.26,11.45 -12.7,0.19 -33.46,21.46z"/>
   <polygon class="fil1" points="4374.42,11493.03 4357.24,11488.52 4411.93,11536.4 4408.61,11490.44 4389.56,11484.51 "/>
   <path class="fil1" d="M3610.44 10343.71l16.86 -12.76 -1.59 -23.47 -21.07 -19.68c-10.54,50.81 -18.85,39.89 5.81,55.91z"/>
   <path class="fil1" d="M4582.8 11845.76l-5.04 26.87c20.52,-54.29 -12.75,-10.95 49.67,-27.73l-75.32 -35.39c8.82,9.42 -3.01,19.3 30.68,36.26z"/>
   <path class="fil1" d="M5484.08 2668.83l-36.4 -68.6c-2.58,3.49 -6.57,9.5 -7.34,10.75l43.74 57.84z"/>
   <path class="fil1" d="M4894.79 8398.75l-167.15 -210.31c94.13,205.91 462.85,664.45 633.93,763.8l-183.31 -206.73c-29.48,-25.82 -39.15,-14.4 -74.3,-52.5 -85.33,-92.5 -144.3,-186.69 -209.17,-294.25z"/>
   <path class="fil1" d="M4324.93 6791.36c231.06,-123.91 410.96,-28.38 507.16,-59.88 -149.63,-107.95 -411.25,-23.65 -507.16,59.88z"/>
   <path class="fil1" d="M1414.25 7805.64c168.45,-238.62 179.26,-176.94 402.14,-314.83 -48.84,-25.72 -314.95,58.35 -402.14,314.83z"/>
   <path class="fil1" d="M2855.91 8487.62c-243.55,-60.76 -521.93,-94.21 -782.29,-86.59l782.29 86.59z"/>
   <path class="fil1" d="M1361.68 11697.23c9.13,-65.97 -20.01,-159.7 2.63,-271.88 17.5,-86.72 53.13,-161.56 77.17,-229.53 -113.74,62.31 -142.63,358.57 -79.8,501.42z"/>
   <path class="fil1" d="M6651.78 2564.66c13.38,77.73 66.63,268.75 109.57,314.88 23.19,-61.83 25.06,-159.86 13.21,-233.5l-18.05 154.63c-67.55,-94.03 -27.53,-157.52 -96.92,-242.62l-7.82 6.61z"/>
   <path class="fil1" d="M4998.89 7343.79c-141.18,-79.06 -287.07,-220.45 -522.5,-207.36 25.55,22.12 206.7,59.19 274.42,88.22 106.93,45.84 160.49,68.97 248.09,119.15z"/>
   <path class="fil1" d="M2237.19 11647.48l381.48 -271.65c73.08,-52.5 209.5,-194.28 286.64,-212.71 -209.57,137.24 -380.35,219.04 -586.56,414.36 -29.76,28.18 -56.87,41.62 -81.56,70z"/>
   <path class="fil1" d="M1724.68 11610.08c87.1,-105.12 63.33,-132.74 205.83,-277.27l144.08 -166.5c-131.69,116.94 -280.16,226.06 -349.92,443.77z"/>
   <path class="fil1" d="M5167.1 8123.25c-109.99,-87.52 -72.16,-85.58 -130.52,-128.9l-397.59 -301.96c-29.54,-20.12 -45.34,-34.98 -72.13,-52.08 42.9,32.2 87.54,78.68 132.62,117.82l467.63 365.12z"/>
   <path class="fil1" d="M1062.51 11606.87l-36.63 -316.16c-26.22,52.84 -51.06,297.59 36.63,316.16z"/>
   <polygon class="fil1" points="7128.33,7504.02 7128.33,7319.18 7017.61,6971.83 "/>
   <path class="fil1" d="M2111.21 11408.36c48.85,-43 59.59,-42.12 103.71,-77.96 35.3,-28.67 75.78,-56.24 114.08,-82.44l237.68 -150.42c-172.54,47.86 -369.38,216.15 -455.47,310.81z"/>
   <path class="fil1" d="M6645.5 3847.31c-130.19,-33.83 -5.7,-59.37 -185.66,-139.28 -36.54,-16.22 -28.95,-17.26 -52.95,-4.43l162.11 130.09c43.41,35.73 21.64,5.08 55.48,55.19 29.79,-30.47 9.38,10.21 21.01,-41.56z"/>
   <path class="fil1" d="M5109.82 6466.89c0.63,-1.59 36.06,-248.12 42.89,-287.3 -66.54,34.99 -87.06,214.9 -42.89,287.3z"/>
   <path class="fil1" d="M6698.03 1372.54c15.94,-99.77 -49.28,-223.08 -132.14,-268.88l132.14 268.88z"/>
   <path class="fil1" d="M1242.24 10828.97c-8.33,-7.08 -250.07,-101.94 -275.02,-115.56 44.25,71.82 173.58,137.87 275.02,115.56z"/>
   <path class="fil1" d="M3550.59 10395.95c-21.98,80.65 164.06,209.96 209.7,243.61l-209.7 -243.61z"/>
   <path class="fil1" d="M3725.63 1353c-51.39,-92.84 -120.03,-143.2 -255.1,-173.78l25.34 23.1c109.78,80.83 36.43,-7.72 190.14,122.87 29.05,24.69 0.57,4.36 39.63,27.81z"/>
   <path class="fil1" d="M3877.28 8382.2c-41.25,87.82 -47.29,235.78 -3.62,318.65l3.62 -318.65z"/>
   <path class="fil1" d="M5648.67 7445.62c58,-88.37 135.45,-161.26 183.79,-280.15 -83.86,61.38 -143.19,183.74 -183.79,280.15z"/>
   <path class="fil1" d="M3794.44 2346.29l318.94 46.67c-70.93,-40.2 -247.44,-82.95 -318.94,-46.67z"/>
   <path class="fil1" d="M4696.97 3471.65l314.38 37.68c-92.9,-34.81 -208.28,-74.85 -314.38,-37.68z"/>
   <path class="fil1" d="M5912.58 8833.32l90.69 -90.77c2.24,-3.34 5.13,-7.77 7.43,-11.02l95.22 -141.97c-43.49,12.08 -29.28,-0.63 -60.72,31.56l-97.76 171.74c-18.82,33.93 -20.69,28.95 -34.85,40.45z"/>
   <path class="fil1" d="M5032.77 7666.26c-26.74,-61.04 11.93,-22.28 -62.17,-73.51 -70.59,-48.81 -86.13,-85.44 -204.75,-138.75l266.92 212.26z"/>
   <path class="fil1" d="M3567.98 718.36c15.73,-23.21 27.5,-4.34 23.11,-47.4 -9.89,-97.18 -14.51,-33.25 -32.43,-57.29 -21.51,46.6 26.3,40.15 -22.23,40.15 -22.91,-56.31 5.02,-25.26 -46.13,-50.27l-2.52 14.58c36.63,33.29 67.93,84.48 80.2,100.22z"/>
   <path class="fil1" d="M3650.47 8960.16c87.63,62.43 47.97,55.11 122.1,66.57 -65.32,-58.99 -44.19,-79.23 -134.86,-113.66 1.36,8.34 1.61,17.49 2.97,25.21 0.88,4.96 3.52,17.38 4.25,15.71 0.37,-0.85 2.97,5.16 5.55,6.16z"/>
   <path class="fil1" d="M2989.6 10489.62c14.45,15.94 90.97,178.89 182.44,224.17l-182.44 -224.17z"/>
   <path class="fil1" d="M7128.33 1502.86l0 -29.14c-23.73,6.77 -38.02,4.22 -66.79,37.56 -29.25,33.9 4.31,-22.88 -18.14,34.02 36.68,-21.12 45.05,-21.18 84.93,-42.44z"/>
   <path class="fil1" d="M5682.41 8371.88c41.08,-44.62 48.57,-75.32 75.97,-108.5 -41.56,17.35 -58.94,49.82 -75.97,108.5z"/>
   <path class="fil1" d="M4853.74 3035.22l-21.66 -37.79c-2.19,-3.31 -7.15,-9.8 -9.19,-12.79 -2.09,-3.07 -6.4,-8.68 -9.55,-13.05l-24.73 30.64 65.14 33z"/>
   <path class="fil1" d="M6687.93 3324.05c20.72,13.95 26.65,15.43 46.1,30.88 -27.25,-47.41 -45.3,-56.75 -102.74,-83.92l56.64 53.04z"/>
   <path class="fil1" d="M6448.1 2432.93c26.97,40.28 -45.62,7.29 40.86,32.61l-40.86 -32.61z"/>
   <path class="fil2" d="M4821.93 11900.89l55.76 33.91c-119.5,-24.69 -21.63,10.85 -55.76,-33.91zm0 0c-104.15,-23.68 -29.01,-4.84 -50.98,-34.17 80.17,20.38 39.72,18.11 50.98,34.17zm-1438.6 -181.38l93.1 -22.7c34.89,51.9 67.21,81.74 86.67,173.62 -159.35,-76.68 -153.48,-127.88 -179.77,-150.93zm245.39 -117.06c36.63,37.76 545.12,-39.72 704.3,58.6 99.42,61.41 114.23,61.78 163.09,129.65 -139.48,-19.48 -289.03,-41.64 -431.41,-12.78 37.43,42.38 184.95,26.25 246.14,28.33 97.47,3.32 177.99,31.97 271.97,39.5 -33.7,-16.96 -21.86,-26.84 -30.68,-36.26l75.32 35.39 96.58 76.37 -146.25 -48.64c-129.65,-5.72 -682.35,-114.87 -757.97,-76.85 95.69,60.53 429.36,59.9 563.69,79.38l465.63 106.51c81.45,42.73 27.9,15.9 55.57,60.75 -250.92,-33.19 -693.65,-136.31 -938.1,-109.26 -149.38,16.55 -195.84,23.11 -342.52,-13.64 -7.31,-42.49 -20.46,-98.38 -38.7,-136.81 -33.76,-71.11 -44.82,-43.6 -73.62,-111.96 51.93,-53.41 49.72,-37.67 116.95,-68.3zm1105.63 -24.05c60.3,91.32 151.05,213.03 189.69,311.62 -107.67,-62.94 -151.11,-192.83 -189.69,-311.62zm-1105.63 24.05c44.66,-58.46 12.7,-20.67 69.63,-58.11 17.98,-11.8 18.65,-15.54 41.68,-28.84 37.45,-21.6 10.29,-8.91 54.95,-23.56 24.26,-41.82 71.62,-67.64 118.02,-91.65 77.2,18.71 149.2,77.56 192.16,124.96 62.06,16.38 39.18,2.89 116.8,74.39 -242.81,-24.35 -368.1,-0.93 -593.25,2.81zm1142.23 264.26c-95.57,-16.01 -315.33,-177.7 -402.79,-239.1 -81.05,-56.89 -331.81,-196.49 -380.85,-260.54 89.89,-34.98 315.77,140.51 410.63,210.86l373 288.78zm-685.54 -571.09c52.33,-53.21 20.3,-23.59 59.82,-35.21l52.2 115.16 -85.34 -47.45c-2.9,-2.7 -6.91,-7.11 -9.44,-9.72l-17.24 -22.79zm-3646.73 63.57l-125.45 -10.43c56.47,-32.64 94.74,-35.47 164.49,-45.11 -22.26,17.32 -28.74,20.1 -39.04,55.54zm404.87 172.91l-277.81 -124.83c-52.78,-19.5 -59.79,-7.11 -110.17,-37.5 26.54,-56.36 93.25,-89.59 185.49,-100.44l-73.8 120.68c38.08,-12.44 66.83,-122.36 226.78,-154.68 -27.93,92.09 -29.29,107.64 -16.69,207.16 25.51,-75.8 9.02,-126.21 52.13,-211.63l159.15 -32.35c-51.77,100.3 -144.48,122.16 -145.07,333.59zm3568.38 4.29l-54.69 -47.88c-46.94,-19.34 -93.33,-48.08 -115.96,-93.59 -19.5,-39.18 -44.93,-113.55 -55.7,-152.9l108.04 -70.03c6.94,195.53 40.42,189.84 80.8,321.04l15.14 -8.53c-12.11,-74.59 -51.82,-232.39 -73.93,-313.92 4.11,-3.12 10.04,-13.24 12.19,-9.52 2.07,3.6 9.1,-7.18 11.96,-9.04l109.1 -55.28c67.58,63.03 249.74,377.08 285.46,481.64 -7.29,5.27 -53.3,-21.18 4.34,107.3 18.71,41.71 35.98,73.54 57.87,115.49 -153.83,-55.51 -184.65,-304.22 -232.18,-444.51 -33.03,-97.52 -27.87,-113.34 -81.59,-150.62 19.45,87.97 41.9,173.87 66.73,258.76 23.67,80.88 73.22,159.16 89.42,222.15l-227.02 -150.56zm-1903.99 249.11l-89.87 -17.43c17.09,-43.83 44.85,-66.4 71.99,-91.8 93.92,-87.86 37.43,-54.01 89.7,-106.43 27.53,-27.62 14.86,-7.93 45.72,-42.56 26,-29.22 20.52,-28.09 52.73,-55.82 42.84,-36.89 58.51,-64.16 101.44,-94.78 156.97,-111.93 291.73,-223.34 517.84,-289.59l-430.59 323.81c-30.47,21.46 -25.31,11.45 -51.9,37.79l-140.84 125.98c-50.27,48.4 -143.17,113.35 -166.22,210.84zm-2096.07 -643.72c-27.42,36.18 2.55,-14.35 -9.63,21.27l-128.74 52.2c29.79,-60.25 64.49,-81.79 95.31,-121.82l271.7 5.28c-97.69,51.35 -89.17,45.19 -228.64,43.06zm1181.2 608.54c-216.06,6.41 -513.5,-61.86 -696.1,-188.48 -38.01,-26.36 -23.65,-20.67 -37.77,-38.11 30.7,-90.04 19.23,-160.8 98.34,-236.02 85.19,-81 68.3,-93.9 228.79,-122.87 -40.26,84.14 -85.61,95.05 -89.14,238.83 -1.58,63.88 9.47,164.23 41.78,221.44 8.62,15.23 17.98,24.22 24.77,32.72 -33.32,-117.18 -60.69,-205.05 -30.71,-335.89 33.25,-145.18 59.71,-164.65 212.76,-178.66l-65.85 108.95c-74.51,131.8 -40.32,311.99 -59.08,389.04 3.15,-126.62 18.8,-273.97 70.94,-376.21 68.78,-134.87 130.97,-146.49 311.45,-144.87 -54.15,60.18 -315.53,482.27 -126.15,608.36 -35.73,-172.49 -36.03,-245.94 32.98,-405.41 57.95,-133.92 85.53,-204.01 242.03,-222.1 -29.51,25.71 -57.58,41.3 -81.53,76.99 -83.49,124.42 -136.37,238.43 -130.83,402.97 20.05,-100.75 36.66,-202.25 86.66,-285.51 34.67,-57.75 42.1,-57.55 80.68,-97.22 35.44,-36.43 67.51,-54.95 88.6,-104.73l170.92 -14.85c-158.54,184.44 -364.95,405.44 -373.54,671.65zm-1177.47 -670.36c37.6,-55.31 28.55,-13.64 111.19,-130.67 119.07,26.16 143.11,50.55 290.82,59.62 -96,65.41 -292.65,76.2 -402.01,71.05zm1603.94 629.69l-401.61 37.7c19.99,-144.18 84.42,-279.71 151.62,-379.66 40.23,-59.81 66.34,-94 106.12,-144.28 50.44,-63.79 42.35,-5.92 119.76,-148.39l444.19 -41.13c-33.37,43.65 18.26,3.83 -47.31,47.14l-319.74 231.93c-121.17,88.34 -248.95,207.09 -278.99,365.47 84.73,-74.95 43.63,-179.76 267.29,-324.66l199.62 -157.25c267.77,-178.55 338.14,-210.9 721.99,-199.39 -389.28,181.04 -454.29,210.27 -700.28,435.43l-262.67 277.09zm360.47 50.4l-334.31 -54.24c38.18,-56.9 33.25,-30.95 73.06,-62.63 31.15,-24.8 32.31,-43.35 67.47,-73.32 31.81,-27.11 55.15,-34.24 84.56,-59.51l211.04 -198.88c55.74,-43.41 110.05,-79.77 169.33,-117.85 244.72,-157.2 574,-233.97 899.09,-244.12 -21.29,17.8 -6.23,13.67 -43.12,30.76 -163.01,75.55 -361.64,91.71 -631.39,296.86 -25.38,19.31 -38.44,33.71 -58.4,47.74 -36.18,25.43 -44.56,19.5 -75.61,50.44l-361.71 384.76zm1200.55 -764.88c15.05,-12.24 9.89,-13.81 38.84,-28.43 61.04,-30.81 114.3,-30.56 175.6,-29.89 -23.14,14.68 18.48,1.38 -41.99,21.58l-172.45 36.74zm-2482.08 -6.67c-213.96,37.65 -340.06,-16.16 -533.55,-42.27 54.74,-99.7 66.26,-28.88 103.2,-122.85 106.14,24.41 201.29,59.19 314.95,83.35 124.17,26.4 217.82,15.54 337.54,34.99 -52.05,19.62 -43.27,21.18 -98.12,8.23 -33.62,-7.93 0.99,-23.82 -131.68,-19.53 -95.6,3.09 -159.78,3.97 -253.98,-8.2 51.12,24.87 64.81,25 128.66,31.04 64.73,6.12 81.23,-2.21 132.96,35.24zm1741.55 611.52l3.15 8.02c269.24,-20.59 635.98,-246.65 861.22,-397.73 -186.12,72.2 -322.59,254.81 -650.89,315.19 291.39,-206.17 1034.64,-660.96 1510.01,-643.24 -4.45,3.03 -10.85,2.38 -13.43,8.98l-449.89 164.29c-138.89,63.78 -958.92,538.14 -1079.01,635.29 -69.18,55.96 17.84,37.76 -83.38,62.14 241.49,-25.54 416.69,-149.78 579.1,-241.51 -144.14,67.34 -254.98,154.48 -435.55,189.01 42.69,-59.34 318.28,-205.96 392.85,-254.86 121.5,-79.67 245.56,-159.78 381.06,-243.73 119.22,-73.85 741.15,-331.15 920.38,-323.88 -26.73,0.88 -82.73,33.77 -120.55,53.81 -410.91,217.67 -479.74,226 -897.7,512.68 -162.36,111.36 -311.68,205.97 -513.65,291.1 -102.4,43.15 -213.06,75.59 -330.74,85.48 -94.61,7.96 -303.18,7.74 -379.47,-43.14 94.2,-158.14 176.16,-197.54 306.46,-306.18l163.35 -139.49c20.81,-14.91 21.51,-11.79 43.09,-28.63l144.04 -106.34c199.95,-124.2 682.31,-289.86 961.83,-287.05 -19.65,19.53 -6.21,15.77 -38.65,34.04 -4.59,2.6 -38.56,14.99 -39.44,15.28 -325.34,105.26 -649.51,243.62 -918.92,453.44 -27.76,21.61 -51.06,29.96 -73.93,51.99 -53.89,51.91 -14.94,96.07 -241.31,135.06zm-2456.6 -335.27c131.32,-107.85 767.07,-245.69 905.02,-270.65 363.53,-65.77 712.75,-64.81 1069.94,-106.4 415.98,-48.43 1919.25,-143.26 2271.81,-64.21 -1112.6,81.05 -2127.7,151.1 -3234.64,265.66 -360.11,37.28 -664.3,121.31 -1012.13,175.6zm4053.21 -603.41l233.71 97.52c-68.21,-8 -146.29,-18.99 -196.84,-59.39l-24.26 -23.84c-3.71,-3.58 -8.34,-9.58 -12.61,-14.29zm-426.98 -195.1c56.04,13.95 211.71,82.36 263.74,110.67 95.57,51.97 -18.79,18.96 154.77,130.46l49.24 41.5c-133.82,-27.36 -217.85,-82.59 -313.89,-149.81 -19.11,-13.36 -33.53,-26.06 -50.55,-38.58l-103.31 -94.23zm-2131.9 412.55c-87.27,17.89 -205.6,25.63 -297.3,34.81 -103.36,10.32 -757.97,-22.02 -860.54,-116.8 107.07,-83.09 178.81,-159.39 304.84,-220.13 48.59,138.17 399.93,307.93 531.26,272.65 -127.49,-17.16 -311.03,-96.51 -412.89,-177.87 -81.31,-64.93 -84.8,-56.3 -113.35,-119.86l271.37 -136.93c85.51,-38.69 219.04,-92.11 318.15,-107.47 43.1,62.2 399.77,249.28 497.41,299.68 191.48,98.8 397.01,138.8 596.8,196.77 -431.55,38.76 -600.97,74.1 -1007.77,-121.59l-249.77 -155.39c109.94,155.08 399.36,270.29 675.25,307.11 -67.99,49.58 -181.92,48.11 -269.32,15.2 -141.44,-53.29 -362.09,-77.54 -478.41,-203.81 -56.14,-60.93 -105.32,-130.81 -176.48,-151.54 58.03,97.73 30.2,44.56 118.11,138.07 131.91,140.34 455.1,193.03 552.63,247.1zm1861.93 -526.69c26.13,4.9 51.79,7.51 76.06,20.73l339.09 269.44c37.87,25.86 38.52,26.64 78.87,44.73 4.25,1.9 36.23,15.26 37.56,16.16 35.61,23.73 28.33,23.55 50.83,50.98l-169.88 -0.76c-26.71,-44.29 -173.7,-155.99 -221.7,-189.61 -29.62,-20.76 -165.51,-156.97 -190.82,-211.67zm-2290.13 -129.2l104.35 29.15c-77.83,19.42 -64.42,13.29 -104.35,-29.15zm1410.76 -71.22l74.14 9.5 235.19 34.27c6.4,119.89 12,225.19 100.3,357.09 7.59,-18.86 -57.49,-263.75 -60.61,-350.97l395.29 86.22 21.07 19.68c126.53,47.18 57.32,17.67 122.99,117.63 95.99,146.08 322.96,255.78 347.04,275.31 32.44,26.33 21.64,20.02 43.97,52.33 -162.44,0.05 -174.26,-37.4 -307.6,-162.92 -96.08,-90.44 -117.34,-143.51 -204.81,-258.89l-16.86 12.76c58.34,155.96 274.99,373.34 383.83,404.53 -169.57,8.48 -217.28,-12.7 -385.16,-148.83 -34.76,-28.18 -120.49,-117.01 -140,-146.88 -70.14,-107.34 -34.78,-137.53 -92.76,-198.59 6.74,68.16 11.7,121.71 41.82,180.19 49.7,96.47 47.07,66.42 107.79,123.35l257.3 194.25c-165.16,3.23 -188.99,4.87 -262.7,-100.27 -43.75,-62.42 -103.76,-179.77 -166.84,-214.47 20.04,58.14 75.05,129.65 106.71,167.86 68.35,82.47 -0.02,34.11 105.32,126.3l21.61 20.63c2.77,2.67 7.21,8 10.75,12.08 -65.14,-1.47 -89,34.27 -197.29,-153.68 -57.26,-99.37 -71.33,-162.76 -83.03,-184.93l-40.2 -44.36c28.92,156.33 97.47,273.63 203.12,378.28 -50.33,8.13 -105.78,8.74 -157.54,10.69 -79.07,2.97 -90.32,14.23 -124.68,-39.24 -10.29,14.31 -6.13,5.58 19.68,42.81 -253.45,12.38 -226.86,10.21 -345.41,-152.7 -75.64,-103.96 -95.8,-244.97 -191.17,-326.22 73.11,143.87 143.16,320.72 235.23,430.33 65.6,40.48 48.73,-2.29 64.5,63.67l-76.95 5.14c-340.51,16.3 -678.59,-164.07 -962.15,-330.94 -82.73,-48.7 -202.57,-102.94 -281.12,-167.43 116.15,-73.35 509.54,-134.77 664.61,-138.13 33.02,60.33 126.49,278.12 209.37,355.57 139.94,130.75 147.45,148.81 324.1,252.4 86.41,0.65 39.75,4.8 62.25,-18.52 -159.89,-35.63 -288.37,-147.27 -346.78,-239.13l-116.86 -169.22c-37.68,-58.37 -81.62,-126.1 -102.92,-189.67l361.26 -5.44c54.92,135.63 62.9,217.92 131.26,343.6 45.55,83.74 154.26,208.01 203.52,245 -26.85,-110.23 -222.77,-227.06 -293.79,-584.89l103.2 4.84zm-1727.66 -228.84c116.43,-63.5 164.51,30.9 292.09,46.15l-71.67 43.18c169.2,0.02 239.31,25.26 364.01,98.17l-166.78 -0.49c108.73,56.11 216.99,7.18 302.07,65.07 -173.34,76.27 -244.07,45.65 -410.97,-13.02 -142.57,-50.12 -184.45,-122.7 -308.74,-239.05zm2098.22 212.68c-179.83,19.84 -237.07,-103.36 -278.08,-294.95 116.12,34.17 280.78,115.38 380.15,176.48l354.41 252.49c-80.32,-19.25 -154.14,-46.16 -232.9,-69.11 -37.09,-10.8 -74.99,-18.23 -113.15,-26.62 -1.61,-0.36 -56.45,-11.66 -58.06,-12.16l-40.46 -17.74c-3.03,-1.54 -7.96,-5.56 -11.91,-8.4zm-2178.99 -295.07l98.49 27.31c-0.36,-1.64 -12.53,36.92 -51.32,25.03 -34.72,-10.66 -40.37,-42.38 -47.17,-52.34zm63.08 -53.38c134.91,22.56 347.69,89.21 482.09,143.12l398.72 174.55c32.07,24.22 12.53,10.34 34.41,34.96 -141.19,1.1 -653.73,-222.69 -847.89,-307.31 -5.42,-2.36 -21.55,-8.91 -26.77,-12.04 -33.15,-19.87 -19.22,-13.47 -40.56,-33.29zm1456.41 -67.64l329.74 90.92c15.06,113.37 51.65,160 89.47,247.86 16.56,38.48 -3.92,-15.99 19.08,52.84 -76.12,-26.48 -27.22,8.22 -75.97,-52.31 -24.07,-29.88 -28.13,-45.42 -49.92,-74.64l-117.49 -117.57c113.15,198.87 106.39,129.95 152.35,192.01 23.28,31.46 2.61,-0.03 24.89,45.72 -202.88,-17.24 -141.69,-6.01 -244.2,-132.43 -56.79,-70.03 -109.27,-155.47 -127.95,-252.38zm-1235.13 42.13c1.87,2.43 9.78,24.86 17.97,30.5 -131.66,-20.75 -62.99,-50.77 -134.91,-50.67 -1.85,0 -12.92,12.87 -59.17,6.07 -45.5,-6.71 -59.11,-16.48 -89.87,-40.2 167.4,-22.93 157.03,-20.63 265.98,54.31zm0 0c-24.8,-25.6 -6.92,-0.31 -25.66,-24.72 -34.79,-45.3 -9.84,-5.7 -33.32,-56.75l170.53 -17.84c81.64,95.77 106.79,157.31 174.86,219.94l-212.86 -83.47c-26.08,-16.73 -42.32,-23.17 -73.54,-37.16zm457.74 -133.9l368.52 1.13 260.03 352.9c54.07,56.48 58.29,18.37 125.56,109.17l-188.69 5.41c-53.12,-6.23 -42.81,-31.19 -95.77,-80.94 -54.6,-51.31 -34.81,-4.63 -81.64,-79.43 -45.04,-71.92 -58.03,-161.28 -91.01,-221.31 -51.46,130.24 123.81,308.91 212.71,384.57 -177.47,34.93 -212.52,25.51 -323.87,-68.84 -74.64,-63.24 -181.59,-120.61 -237.35,-185.66l103.57 109.74c3.41,4.37 7.31,10.8 10.12,14.6 3,4.05 6.92,10.57 10.44,15.82 -236.75,-76.09 -208.09,-96.42 -313.69,-224.54 -45.56,-55.28 -50.46,-20.42 -68.87,-101.21l296.54 -28.57c31.13,102.62 288.04,440.7 372.1,465.79 -141.16,-114.22 -272.44,-308.68 -358.71,-468.62zm777.39 91.77l-32.34 17.77c12.47,118.41 51.62,148.86 103.68,221.55 88.05,122.92 56.5,31.36 96.61,132.14 -179.23,-1.71 -136.84,28.47 -259.26,-94.88 -26.06,-26.26 -25.24,-32.71 -49.89,-58.75l-136.02 -167.3c-33.31,-42.24 -66.34,-78.96 -87.8,-124.11 100.72,-6.3 291.93,28.3 365.01,73.59zm3339.99 -175.52c34.16,14.6 28.55,-15.6 48.67,118.87 6.43,42.98 18,86.81 16.67,128.94l-60.08 -166.02c-23.53,-83.04 -15.48,-12.62 -5.25,-81.79zm-1554.16 -19.79l33.56 3.77c22.48,5.84 23.47,5.92 44.83,15.02 -17.63,10.15 26.53,27.67 -35.07,16.3 -64.64,-11.94 -24.9,-10.03 -43.32,-35.09zm2.46 -104.02l108.72 87.09c-18.99,-5.22 -45.76,-18.48 -46.35,-18.85 -56.92,-37.64 -21.09,3.97 -62.37,-68.24zm1784.61 -569.7c-48.9,188.65 -143.37,308.39 -190.38,558.76 -42.95,-152.01 -47.21,-79.07 67.45,-345.82l122.93 -212.94zm0 0c29.06,-73.54 6.33,-43.27 59.81,-82.86 -17.89,136.14 -53.22,526.37 -129.9,634.62 -31.58,44.6 -55.88,126.64 -63.3,188.93 -14.62,-17.91 -35.49,-15.02 -34.41,-99.67 1.11,-86.72 45.87,-210.19 76.09,-287.81 27.13,-69.69 141.52,-297.36 91.71,-353.22zm-2506.57 62.66c-49.1,-6.88 -115.44,-56.78 -193.01,-94.77l-70.23 -48c91.54,20.61 212.28,68.52 263.25,142.77zm-437.35 -204.74c55.28,-3.63 24.83,-9.5 74.11,8.7 3.32,1.22 32.58,15.5 36.77,18.22 28.6,18.52 17.47,12.9 36.71,31.21 -31.73,-7.86 -54.77,-14.62 -80.49,-23.75l-67.1 -34.38zm450.11 251.83c-2.58,-1 -5.18,-7.01 -5.55,-6.16 -0.73,1.67 -3.37,-10.75 -4.25,-15.71 -1.36,-7.72 -1.61,-16.87 -2.97,-25.21 90.67,34.44 69.54,54.68 134.86,113.66 125.74,76.2 71.38,41.37 156.32,124.21 -100.61,-30.2 -218.72,-92.06 -325.43,-134.23 -114.71,-45.31 -248.43,-84.76 -369.77,-111.72 -126.42,-28.1 -280.39,-58.03 -409.61,-65.23 -106.66,-5.95 -53.97,42.92 -150.68,0.09 -57.12,-25.29 -98.03,-52.5 -160.88,-70.11 43.29,43.71 323.27,157.48 408.13,192.7 71.38,29.63 425.33,128.49 513.96,106.79 -205.54,-57.02 -299.09,-39.01 -523.31,-127.85 -67.78,-26.85 -95.99,-31.61 -149.12,-77.65 246.57,28.69 594.17,106 824.45,183.94 99.05,33.54 452.21,169.67 517.22,235.23 77.19,77.85 31.35,9.27 129.99,122.85 -106.74,-30.82 -267.09,-120.49 -388.9,-165.84 -131.4,-48.93 -302.72,-94.04 -447.26,-124.77l-816.35 -156.55c-14.38,2.69 9.63,42.05 -71.18,-8.33 148.89,105.09 353.02,187.23 565.11,216.34l-321.85 -102.43c-71.92,-28.44 -62.42,-21.44 -101.29,-66.9l936.51 190.68c223.28,57.44 392.6,135.83 590.03,232.56 31.39,15.37 62.15,33.05 95.17,47.91 67.84,30.57 59.31,11.28 83.37,55.66 -113.31,10.94 -442.94,-120.12 -590.34,-152.69 -570.92,-126.15 -1183.19,-121.62 -1490.4,-566.71 -33.77,-48.94 -53.12,-47.92 -80.57,-116.15 381.09,-67.24 1127.15,11.34 1454.58,271.57zm3339.17 -349.75c1.62,83.04 -22.32,111.48 -54.66,172.12 7.14,-66.02 7,-111.01 43.51,-161.29 2.15,-2.97 7.54,-7.12 11.15,-10.83zm-2911.82 448.44c34.21,-21.32 -44.42,-321.92 -29.01,-582.17 28.64,27.1 7.99,-9.04 44.09,50.74l179.6 409.77c67.02,165.22 130.19,319.36 199.52,483.88l17.47 31.39 -42.1 -27.07c-33.49,-72.8 -93.7,-146.65 -120.24,-260.34 -35.89,-153.77 -18.62,-79.16 -43.72,-106.48 6.57,112.18 44.17,188.98 79.01,273.52 -129.27,-62.71 -209.88,-549.88 -229.97,-666.82 -15.11,24.26 -17.04,7.94 -17.44,56.68 -0.76,91.54 81.33,394.58 106.15,478.47 -39.27,-31.93 -43.72,-39.57 -78.24,-63.5 -68.07,-47.2 -60.07,-27.39 -65.12,-78.08zm-877.46 -350.52c-75.21,1.47 -154.59,-23.56 -233.95,-36.68 -216.6,-35.75 -571.2,-45.11 -786.1,-8.71 -55.6,-40.05 -26.2,-6.88 -50.77,-65.35 339.53,-25.37 509.19,-57.19 846.98,21 94.15,21.8 184.54,39.24 223.85,89.75zm2820.7 -234.25c-102.71,251.81 -45.1,11.32 -186.65,476.12 -110.33,-233.95 63.74,-336.29 127.51,-427.71 6.37,-9.12 13.29,-23.72 22.66,-31.76 33.45,-28.72 -5.52,-2.98 36.48,-16.65zm-4124.65 -163.72c173.47,-30.9 775.55,5.45 939.66,58.46 189.61,61.23 345.56,150.34 489.4,263.26 36.24,28.46 26.39,35.67 60.65,62.77 63.7,50.41 21.38,-24.12 72.57,72.46 -103.51,-25.4 -192.46,-75.78 -298.59,-108.83 -408.69,-127.24 -625.65,-112.32 -1051.25,-93.19l-110.45 -123.94c-58.2,-57.18 -87.65,-77.77 -101.98,-131zm2181.4 748.48c-41.91,-2.05 -21.54,16.59 -51.45,-4.26 -34.04,-97.3 -113.2,-79.98 -159.38,-161.4 -39.88,-70.31 -60.33,-176.25 -100.96,-247.16l45.76 189.61c-250.75,-114.77 -35.1,-364.47 -95.28,-513.85 -63.7,83.92 -55.68,290.3 -41.17,394.04 -45.64,-20.12 -31.08,-19.1 -74.47,-40.29 34.27,-132.93 28.41,-246.99 97.78,-398.52l28.27 6.71c259.49,89.38 180.22,-91.83 321.06,153.85l-11.46 29.06c-5.25,13.9 -10.77,24.36 -15.88,42.22 -9.02,31.42 -8.93,39.92 -10.6,72.6 -2.84,55.79 -0.32,110.05 7.08,165.31 14.32,106.76 71.19,214.9 60.7,312.1zm1834.76 -225.53c5.56,-93.38 53.75,-184.22 100.16,-260.31 53.1,-87.06 95.08,-159.27 196.46,-181.33 -28.04,-17.64 5.04,-28.49 -48.91,-12.99l-80.57 64.15c-47.45,42.07 -10.13,18.72 -58.65,31.25 16.44,-46.46 10.54,-13.01 13.73,-61.55 -254.5,254.64 -88.43,56.11 -258.59,345.51l-30.59 -104.66c80.79,-121.8 164.86,-229.21 303.38,-279.16 -33.26,-22.32 14.8,-63.45 -182.03,71.16 -36.69,25.09 -43,38.96 -65.35,75.39l-78.08 91.96c-16.28,-121.79 -57.35,-192.12 -81.98,-310.88 54.35,-40.83 96.05,-139.25 155.95,-212.34 66.34,-80.94 247.87,-279.47 348.37,-311.77l68.94 390.52c-82.42,33.2 -130.1,31.05 -199.39,86.18 -31.72,25.23 -33.94,33.88 -65.82,58.74 -31.72,24.72 -44.23,28.15 -64.58,59.2 87.94,-45.47 217.76,-144.78 327.93,-148.96l2.39 499.96 -65.06 41.5c-66.29,54.04 -143.12,232.64 -171.98,325.24l-47.12 137.07c-3.8,5.48 -9.56,9.95 -13.09,14.41 -3.77,4.8 -10.04,9.69 -14.99,14.6 -52.56,-318.12 245.11,-496.32 293.6,-630.71 -146.4,40.23 -272.16,340.65 -320.1,471.84 -42.9,-75.07 -24.94,-114.82 -0.26,-195.07l36.21 -68.97zm-1017.79 -434.57c55.15,48.48 107.33,85.14 157.14,133.02 64.86,62.35 1.48,30.05 141.33,143.4 172.82,140.08 555.92,593.22 629.55,802.62 23.85,67.85 54.24,165.16 71.19,235.93 -11.25,-12.73 -19.78,-21.09 -34.7,-43.1 -54.77,-80.88 -263.69,-419.29 -338.36,-483.22 -67.56,-57.86 -89.28,-94.98 -146.38,-157.42l-464.26 -446c-60.82,-49.47 -110.77,-80.54 -156.87,-147.88l2.36 45.16 316.55 314.69c59.22,64.9 94.55,54.18 170.93,150.9 48.67,61.6 112.98,92.6 166.28,156.1l216.45 266.26c102.57,138.66 250.48,345.95 312.53,502.99l-55.36 -48.73c-29.54,-28.13 -27.82,-20.27 -52.1,-52.76 -20.44,-27.31 -19.57,-38.75 -43.71,-64.53 -108.92,-116.29 -113.86,-140.88 -198.6,-211.07l-367.93 -363.71c-27.02,-18.22 -39.6,-24.33 -62.26,-46.66l-157.25 -145.5c-39.61,-33.93 -72.38,-68.53 -108.15,-106.22 -42.16,-44.42 -56.36,-81.74 -95.6,-119.04 -190.37,-180.85 -278.6,-475.07 -296.91,-758.05 164.51,38.99 343.75,191.79 492.61,294.16 74.39,51.15 291.76,222.24 339.23,286.84 15.5,21.1 12.47,22.49 29.49,42.66l172.76 237.85c79.16,128.51 170.33,264.6 207.13,441.84 -30.84,-19.84 -224.96,-315.17 -387.47,-476.17 -38.93,-38.58 -64.3,-70.2 -105.06,-110.05 -21.24,-20.76 -35.5,-31.76 -55.05,-52.51 -21.29,-22.62 -25.62,-37.56 -47.12,-58.85 -27.99,-27.7 -33.25,-21.35 -65.07,-42.81 -44.32,-29.89 -140.59,-148.81 -187.33,-120.14zm-1809.98 -412.8c173.9,70.57 27.35,162.34 426.08,194.96 58.77,4.8 121.11,35.95 160.23,50.57 -45.36,145.21 -99.29,235.07 -75.84,412.18 -125.36,-68.44 -94.26,-238.94 -77.34,-376.51 -53.7,93.32 -39.49,195.87 -13.18,297.77 -110.76,-46.89 -76.23,-50.37 -80.46,-186.83l-15.76 103.99c-176.71,-98.41 -58.63,-97.36 -138.6,-255.98l3.69 126.27c-2.15,-3.65 -8.54,-13.81 -10.46,-10.26 -6.71,12.38 -136.87,-136.05 -178.37,-356.16zm2507.31 163.53c-82.84,-167.64 254.58,-647.26 451.42,-763.86l101.1 335.24c-46.1,39.29 -123.1,78.33 -149.46,102.45l-198.3 192.83c-26.31,30.95 -25.06,43.58 -59.28,84.28 -20.67,24.56 -32.03,38.5 -51.42,72.91l-58.34 85.85c-47.23,-102.97 56.04,-234.85 133.5,-295.74 77.03,-60.59 182.57,-153.35 238.93,-231.17 -33.23,28.07 -76.95,52.71 -106.03,79.5l-115.28 98.8c-164.95,188.3 -27.86,1.78 -161.7,211.32 -14.4,22.54 -17.63,20.64 -25.15,27.59zm-3135.24 -468.91c157.52,55.42 328.13,105.26 472.91,185.12 53.63,29.59 85.59,58.85 128.59,81.74 2.1,120.75 42.64,220.03 84.28,309.5 -103.02,-46.63 -69.48,-65.12 -134.75,-166.11 -17.2,-26.59 -43.03,-52.36 -60.28,-81.22 -28.33,-47.38 -18.42,-61.44 -52.34,-107.48 4.4,41.91 3.99,49.98 17.58,90.01l39.18 102.55c-145.78,-93.89 -100.67,-103.67 -164.4,-262.19 -15.34,48.31 0.42,65.21 13.67,128.82 -64.24,-20.36 -61.27,15.5 -113.66,-143.91l-24.95 16.41c-3.58,2.73 -10.66,8.34 -14.09,11 -3.91,3.04 -10.52,8.67 -15.82,12.96 -31.22,-75.56 -126.45,-87.97 -175.91,-177.19zm2722.69 -33.2c34.92,26.53 22.56,-60.04 33.71,56.38l-33.71 -56.38zm-3283.15 662.99l-47.6 -23.28c-90.38,-88.94 -353.12,-261.27 -398.38,-355.2 86.83,-187.6 270.99,-309.42 479.26,-320.01 101.66,-5.18 173.87,5.11 221.52,70.96 -273.46,-31.27 -401.23,40.32 -533.01,183.79 117.56,-125.85 393.24,-195.7 580.55,-158.91 47.11,9.25 126.49,86.75 147.17,122.68 -241.09,-51.28 -595.58,-33.43 -741.56,184.16 201.74,-137.44 300,-180.74 576.01,-181.73 219.4,-0.79 294.98,86.32 430.89,207.22 57.32,51 22.6,-0.82 60.67,67.7 -184.93,-40.79 -859.94,-171.86 -928.33,16.27 202.27,-97.97 467.53,-80.41 707.36,-31.97 88.4,17.86 269.02,43.1 330,84.18l169.7 149.61c71.39,53.36 28.49,2.66 61.44,68.4 -321,-85.25 -484.67,-155.33 -849.76,-134.74l-215.77 12.99c-90.07,23.36 -39.09,-8.2 -50.15,37.87zm3636.87 -290.39c-24.72,-231.37 -12.92,-484.68 35.86,-709.98 13.97,-64.52 144.53,-552.12 159.5,-581 94.03,99.54 245.34,455.92 301.51,618.92l-21.17 21.98c-127.2,117.82 -79.13,1.65 -261.81,275.34l-213.9 374.73zm-3972.04 -507.43l5.81 18.93c265.45,-204.61 428.23,28.24 481.76,58.92 -354.77,-20.18 -472.6,89.42 -625.15,322.76 -74.58,-78.51 -103.22,-105.74 -164.95,-234.11 -42.78,-88.93 -94.12,-217.17 -119.67,-318.82 100.31,-41.64 81.37,-105.38 252.18,-129.82 58.29,-8.34 113.12,-12.62 161.66,11.77 30.45,15.31 24.84,14.71 52.79,36.11l61.35 53.15c-183.15,22.6 -332.37,205.49 -353.76,345.71 67.73,-94.03 24.43,-101.35 126.53,-194.43 111.18,-101.35 190.65,-211.49 376.6,-51.69 -113.93,-7.04 -179.49,25.62 -255.15,81.53zm-612.81 -573.06c109.52,-25.01 184.38,46.75 247.41,98.17l100.05 32.66c-4.2,8.73 -10.4,8.78 -12.78,16.21l-89.33 60.9c-30,25.68 -40.59,48.39 -70.06,86.95 73.03,-64.15 81.05,-74.14 199.14,-127.58l136.96 89.07c-158.13,13.19 -255.38,66.45 -309.19,159.92 -52.2,-48.48 -63.27,-115.98 -105.26,-214.05 -36.85,-86.07 -70.3,-123.33 -96.95,-202.23zm-71.89 -94.09c99.96,51.32 75.97,31.16 83.37,61.98 -9.07,2.09 25.14,47.99 -47.83,-2.78 -37.45,-26.05 -21.24,-24.63 -35.53,-59.2zm96.45 -25.38c141.66,28.43 391.57,169.27 508.92,243.25 42.81,26.99 75.56,47.94 110.84,67.51l538.93 372.15c31.81,24.02 68.19,51.25 101.13,77.9 31.08,25.14 17.94,19.39 48.25,40.28l872.58 717.89c37.22,38.18 62.14,34.85 102.18,77.57l579.85 509.19c54.78,65.2 52.02,43.07 107.54,89.39 45.33,37.81 36.52,54.61 86.07,91.04 160.3,117.85 87.4,80.86 250.02,213.7 56.21,45.9 27.27,15 52.23,77.2 -99.14,-48.45 -266.57,-204.41 -365.24,-280.29l-853.16 -717.96c-62.48,-41.78 -42.97,-49.16 -93.86,-84.45l-914.49 -747.25 -1009.37 -652.2c-26,-15.09 -28.49,-17.71 -53.15,-34.34l-57.09 -46.26c-3.57,-3.57 -8.1,-9.61 -12.21,-14.34zm1212.74 237.03c55.06,-7.4 149.43,84.48 193.24,132.51 102.08,30.59 246.36,148.81 319.87,210.5 -94.91,-25.89 -355.83,-103.28 -438.98,-74.95 110.25,43.58 400.64,46.16 592.74,171.61 55.26,36.07 102.54,79.64 147.85,115.61 -145.43,-35.07 -418.64,-146.2 -575.62,-85.79 84.43,29.32 192.22,-24.64 519.75,109.1 124.57,50.86 359.19,131.31 426.19,259.69 -93.08,-21.72 -170.32,-68.13 -258.78,-29.4 352.99,89.31 209.03,74.65 380.06,134.01 207.26,71.92 82.25,6.83 128.22,74.22 -23.56,-4.28 -61.07,-15.09 -77.53,-17.55 -87.07,-13.04 -30.65,-4.7 -51.37,9.87 76.2,29.93 144.73,41.47 224.95,65.14 66.45,19.62 119.86,82.92 173.78,119.3 -219,-2.3 -182.52,-100.17 -306.13,-123.23 -173.19,-32.31 -244.8,31.84 -365.04,-86.3 -26.64,-26.17 -25.8,-35.58 -47.43,-58.18l-194.83 -144.86c-212.59,-165.96 -230.85,-28.58 -613.58,-297.05 -95.76,-67.17 -124.38,-157.68 -193.03,-273.69l-277.74 -273.58c-30.87,-24.98 -39.4,-22.14 -73.03,-53.39 -42.9,-39.88 -67,-81.74 -98.27,-127.71 111.84,33.06 401.39,186.65 464.72,244.1zm-123.3 308.64c-52.98,4.02 -20.53,-3.75 -67.59,-26.8 -22.46,-11 -24.56,-6.63 -38.27,-15.02 -42.36,-25.94 -21.01,9.92 -32.21,-38.05l-183.36 -176.63c-55.83,-62.65 -137.27,-105.89 -183.15,-187.56 20.97,33.79 26.9,41.5 47.86,81.94 32.64,3.31 9.59,-18.69 33.31,11.25 27.65,34.93 4.63,-14.65 16.22,42.21 41.48,35.77 21.94,12.5 47.69,62.96l-44.7 -27.38c-37.87,-19.73 -44.68,-18.82 -81.06,-33.09 -103.71,-40.69 -37.45,3.68 -61.72,-55.66l36.29 -9.27c-19.68,-24.18 -29.99,-38.16 -49.64,-58.54 -25.94,-26.93 -44.79,-33.59 -66.59,-57.33l-104.98 -160.63 171.98 10.44 178.63 261.53c-63.03,-94.84 -86.25,-132.74 -135.4,-243.87 84.52,5.14 209.73,207.27 258.83,244.35 179.31,135.43 340.59,243.72 405.89,487.45 -85.82,-48.67 -80.63,-55.09 -148.04,-112.29zm-546.98 -361.84c-59.84,-11.2 -151.54,-74.61 -201.68,-110.48 -83.23,-59.56 -148.07,-101.83 -178.32,-174.49l194.48 0.08c9.01,49.16 51.37,126.83 73.56,156.44 21.12,28.2 39.03,32.89 66.43,57.43 49.42,44.25 39.54,39.38 45.53,71.02zm-543.55 -275.76l137.83 -3.54c57.55,98.69 55.77,66.73 93.13,98.57 45.96,39.18 14.09,4.62 40.11,50.12 -115.59,-33.68 -106.8,-50.71 -170.19,-105.13 -0.57,1.75 -1.88,4.6 -2.21,5.07 -0.36,0.53 -3.09,4.57 -3.54,5.19l-12.11 15.62c-56.36,-33.11 -42.38,-10.21 -83.01,-65.89zm4067.99 514.89c45.19,46.06 145.01,346.22 139.65,404.41 -81.91,-14.14 -46.38,-46.95 -164.99,-132.2l-177.07 -127.03c-79.67,-58.71 -259.58,-202.45 -405.2,-165.28 14.31,11.6 -2.47,10.13 34.89,20.75 12.68,3.6 43.83,5.58 59.45,8.16 45.51,7.52 53.49,10.83 93.89,30.03 106.05,50.38 294.33,175.45 371.48,255.23 116.68,120.65 212.15,95.4 289.91,355.02 36.72,122.59 106.09,269.05 128.26,387.07 -203.1,-289.99 -260.36,-341.54 -514.76,-573.67 -87.74,-80.08 -315.9,-199.81 -423.92,-256.39 76.72,115.35 374.84,265.22 506.56,370 277.75,220.91 547.9,689.2 641.91,1075.68 -60.95,-42.78 -65.12,-77.2 -122.16,-166.64l-441.61 -468.46 -412.21 -284.44c-114.94,-63.11 -142.95,2.01 -151.45,-135.66l452.07 244.55c112.66,84.77 274.42,208.74 366.09,313.49 63.57,72.64 166.95,165.39 205.97,244.63 -28.95,-130.58 -256.94,-321.94 -304.16,-379.02 -76.58,-92.6 -226.26,-186.51 -333.15,-255.33 -141.43,-91.04 -283.27,-148.02 -388.22,-215.81 -9.61,-390.07 -350.78,-990.19 -189.6,-1335.18l20.61 -179.77c240.57,-37.08 375.52,-24.97 434.33,210.41 -190.23,-63.78 -306.91,6.83 -404.13,100.38 185.56,-113.76 388.23,-208.48 477.67,69.43l-135.49 -44.96c173.96,94.84 149.55,48.53 224.39,278.06 -94.35,-47.17 -152.36,-111.24 -309.52,-105.23 -112.32,4.31 -247.7,45.87 -315.17,116.17 78.62,19.13 159.69,-111.33 387.46,-77.85 148.33,21.8 260.57,98.8 295.32,228.21 -103.45,-44.43 -109.57,-78.36 -245.12,-109.52 -108.07,-24.86 -182.75,-23.44 -281.46,7.74 205.31,-16.7 567.2,37.17 589.46,293.06zm-44.59 -1275.39c49.1,-2.89 193.18,115.04 225.16,144.76l59.28 64.63c1.82,1.98 5.81,6.52 8.62,9.86 -76.43,136.74 -209.39,387.37 -123.69,591.9 -13.66,-242.73 48.87,-404.16 132.84,-579.1 58.88,22.76 28.01,1.02 75.87,46.13 86.56,81.57 169.36,202.78 237.54,297.84 144.79,201.82 82.67,106.86 -56.67,675.08 -68.13,277.81 -29.79,390.81 -49.22,651.42 -50.32,-62.76 -67.93,-170.47 -106.73,-276.22 -58.89,-160.6 -60.95,-151.84 -55.03,-335.3 7.65,-236.52 33.97,-448.79 114.48,-654.29 -165.67,74.44 -134.78,658 -136.96,758.14 -107.07,-205.31 -109.34,-560.17 -5.28,-790.09 37.31,-82.42 96.99,-162.81 113.01,-218.58 -28.15,15.96 -69.89,75.15 -98.69,123.26 -28.91,48.26 -49.07,113.63 -63.74,167.06 -37.2,135.4 -37.82,285.15 -38.61,430.7 -62.31,-65.15 -93.78,-202.65 -127.72,-289.82 -40.85,-104.9 -105.34,-200.83 -102.08,-319.34 3.37,4.39 8.67,5.02 10.04,13.21l21.21 42.07c15.97,37.84 6.27,28.37 30.9,66.71 -32.17,-237.2 -76.65,-370.57 -64.53,-620.02zm-85.73 408.19c-89.25,-385.96 -34.68,-174.87 -56.9,-516.14 188.65,69.32 87.88,100.67 115.83,345.75 10.34,90.63 30.91,176.23 34.72,255.37 -66.14,-117.37 -95.26,-310.64 -101.57,-461.22 9.46,46.66 -2.36,127.69 2.63,186.52 2.69,31.61 7.51,57.47 13.1,88.37 1.11,6.07 9.02,38.69 9.1,44.59 0.63,50.35 -1.08,29.99 -16.9,56.76zm-545.66 -374.73l10.3 -83.3 -1.85 -94.35c112.32,33.62 126.9,79.04 163.86,187.25l-61.47 -19.53 -13.58 9.61c71.39,48.71 104.49,33.73 126.73,114.94 -69.26,-4.9 -158.74,-5.27 -207.43,42.7l234.83 -19.14c18.32,104.75 22.26,45.25 52.73,146.32 -133.81,-58.92 -183.17,-70.06 -326.34,-32.61 -19.7,-51.35 13.67,-176.2 22.22,-251.89zm344.53 -236.47c65.54,28.33 88.93,49.45 141.41,72.18 -26.67,144.01 -20.63,221.18 -1.36,362.94 -88.5,-88.8 -130.24,-318.69 -140.05,-435.12zm-202.14 33.51c12.36,7.45 13.5,2.05 35.78,27.93 22.29,25.91 16.24,23.11 36.58,52.95l187.4 295.7c79.26,128.31 147.62,274.68 215.41,428.03 188.3,425.88 969.91,2711.07 929.86,2941.23 -58.96,-46.24 -145.7,-390.39 -172.63,-468.99 -55.8,-162.88 -109.06,-319.91 -160.81,-481.44 -119.9,-374.25 -707.91,-2057.63 -866.86,-2348.53 -44.12,-80.74 -206.92,-388.48 -204.74,-446.88zm-131.31 -100.07c17.27,19.44 4.08,-10.2 34.51,46.1 12.47,23.08 18.17,42.08 27.27,67.28 -83.29,-25.37 -59.5,1.08 -61.78,-113.38zm131.31 100.07c-30.05,-19.65 -17.84,1.95 -40.34,-43.54 -1.38,-2.78 -10.88,-41.19 -12.58,-47.23 39.13,59.4 34.34,9.39 52.91,90.77zm105.81 -94.97c91.57,29.11 73.35,-8.22 110.42,291.63 -23.78,-16.95 -14.15,-4.22 -35.55,-28.4 -60.99,-68.98 -44.51,-84.26 -74.87,-263.23zm-77.03 -53.61c71.58,37.71 51.35,33.22 64.12,131.75 -3.79,-3.99 -9.87,-15.02 -11.46,-11.85l-52.65 -119.9zm-90.19 -60.73c58.46,37.17 61.6,36.69 69.14,110.68 -24.81,-50.01 1.7,-0.4 -31.75,-45.53 -39.54,-53.33 -13.77,-7.8 -37.39,-65.15zm2239.06 -1079.04c75.76,42.76 137.33,204.72 143.43,283.19 -43.8,-50.47 -137.89,-221.02 -143.43,-283.19zm-1150.99 -384.14c-67.25,-10.26 -40.43,-20.75 -42.52,-23.25l34.44 1.71c65.38,7.93 -0.91,1.24 8.08,21.54zm77.14 -82.45l18.93 17.84c14.74,23.16 7.25,7.38 17.63,35.87l-36.55 -53.72zm818.22 -36.35l176.48 201.99c32.04,33.85 26.19,42.59 51.34,75.5 28.1,36.74 26.39,21.98 57.87,67.04 16.64,23.81 35.43,47.23 51.86,72.44 42.52,65.18 48.03,123.27 57.38,216.02 -2.78,-3.97 -7.18,-14.69 -8.53,-11.74 -2.04,4.54 -41.91,-86.16 -147.74,-182.54l16.96 64.24c-68.32,-56.22 -244.86,-440.51 -255.63,-502.94zm-854.92 -16.04c29.69,20.86 8.7,-51.99 36.69,52.39 -31.95,10.94 -23.08,15.67 -23.08,-19.03l-13.61 -33.36zm-82.96 111.59c-79.78,9.32 -54.91,-14.82 -169.34,-90.4 34.65,8.03 59,14.17 90.92,27.13 5.21,2.12 32.94,13.32 37.67,16.56 44.6,30.61 19.53,8.57 40.76,46.7zm976.29 -134.06c68.15,31.64 313.41,264.65 330.4,349.18 3.74,18.6 5.28,81.5 7.04,104.39 -45.9,-67.84 -102.17,-148.33 -145.66,-213.34 -36.65,-54.77 -47.85,-42.44 -84.06,-94.06 -138.47,-197.34 -89.08,-13.64 -107.73,-146.17zm0 0l-37.23 -8.34 -1.17 46.84c-5.39,-4.79 -9.36,5.61 -30.11,-35.9 -7.38,-14.77 -18.99,-54.17 -24.7,-71.87 36.15,16.53 65.74,21.41 93.22,69.28zm-875.9 151.73l72.63 101.8c-141.63,-90.27 -100.1,-21.86 -130.5,-96.22l46.63 -2.98c-189.78,-186.17 -209.54,-71.18 -408.41,-193.4 -24.84,-15.26 -37.08,-24.33 -65.31,-40.68 -54.58,-31.63 -32.34,-7.04 -79.38,-73.29 123.02,25.46 378.65,105.78 477.48,191.16 67.73,58.49 37.11,65.01 86.86,113.62zm726.96 -354.04l217.1 137.61c28.41,19.98 41.53,33.42 71.15,53.61 119.63,81.59 185.73,170.5 189.81,314.89 -44.54,-29.39 -9.73,2.64 -41.9,-32.54 -103.99,-113.77 -142.21,-286.68 -416.27,-380.48l-19.88 -93.1zm-1406.17 -5.95c7.88,2.9 45.44,13.53 49.61,15.93l59.17 51.73c-71.13,-31.13 -62.56,-32.72 -108.78,-67.65zm1539.41 -200.57c75.58,11.32 151.65,71.78 216.4,121.6 96.95,74.61 109.2,101.63 109.97,264 -28.61,-24.07 -9.98,4.79 -42.41,-46.36 -191.65,-302.43 -202.71,-236.67 -269.3,-317.09l-14.66 -22.15zm194.45 287.86c41.03,13.78 20.53,0.03 51.73,38.07 100.08,122.02 75.8,104.76 87.74,230.72 -68.53,-88.76 -117.83,-153.57 -195.02,-213.57 -71.7,-55.74 -164.75,-160 -288.21,-130.47l-77.88 -252.34c85.41,22.19 199.33,71.9 254.25,119.84 56.67,49.45 142.85,122.99 167.4,207.75zm-1328.77 -125.48c2.89,4.76 7.35,6.07 8.84,14.18 1.45,7.89 6.67,10.58 8.54,13.83 3.82,6.63 18.09,32.37 21.89,39.52 18.28,63.33 18.22,13.8 69.32,119.19 -92.99,-33.9 -409.94,-165.91 -498.77,-173.88 -24.07,-2.16 -54.83,52.65 -148.27,-78.51 186.83,8.53 348.68,86.29 475.71,92.77l-0.57 -0.32c-42.35,-26.48 -154.29,-72.83 -220.62,-91.49 -151.99,-42.78 -180.78,-25.75 -328.26,-16.47 -23.45,-37.08 -63.51,-65.44 -101.27,-90.47 -33.37,-22.09 -92.05,-72.07 -113.93,-97.21 110.08,-89.08 654.86,-59.23 745.86,181.63 -150.2,-62.69 -381.13,-124.68 -540.78,-55.76 214.49,79.27 288.13,-71.07 622.31,143zm1134.32 -162.37c-98.54,-15.31 -97.59,-49.86 -230.46,-48.03l-36.6 -139.39c148.93,3.35 226.48,27.95 363.93,51.11 -10.24,-8.67 -14.37,-15.97 -36.28,-27.62 -108.59,-57.75 -224.57,-77.7 -341.42,-53.24 -14.18,-149.8 -46.56,-259.15 -65.18,-415.52 261.41,58.12 398.98,175.51 582.09,306.29 86.05,61.46 65.48,56.25 77.42,234.34l-127.98 -128.97c-134.3,-136.4 -269.63,-221.05 -470.3,-270.14 23.3,60.11 245.32,142.11 312.1,177.05 136.73,71.55 181.59,156.32 280.9,234.14l5.65 117.69 -175.49 -103.73c-56.36,-29.49 -150.76,-66.85 -201.97,-41.84 88.28,50.41 232.93,61.16 380.29,198.08l-1.1 103.47c-123.69,-119.22 -141.21,-169.14 -353.36,-251.6 3.07,3.75 7.79,4.67 9.04,11.4l28.72 46.5zm-1637.71 -587.87c3.15,4.37 7.46,9.98 9.55,13.05 2.04,3 7,9.49 9.19,12.79l21.66 37.79 21.27 68.75c-121.4,-29.46 -190.42,-77.68 -354.63,-87.66 -85.05,-5.16 -292.91,6.78 -359.43,66.48 206.67,10.8 730.02,-93.15 783.26,129.51 -75.92,-11.39 -145.52,-10.68 -222.75,1.67 -101.33,16.18 -129.56,22.53 -164.66,68.52 84.57,-11.66 163.18,-31.05 249.31,-37.68 226.92,-17.47 179.66,5.79 207.73,53.15 -55.8,30.91 -257.02,-65.66 -361.61,12.93 119.3,29.49 339.41,-20.38 412.89,62.79 16.24,18.38 49.65,76.8 57.12,97.02 -219.58,-46.78 -388.63,-192.61 -655.12,-44.49l-129.58 -92.67c25.03,-34.3 -4.46,-7.72 38.95,-43.49 80.06,-65.95 214.44,-70.87 292.57,-128.66 -68.41,-3.86 -220.25,36.29 -293.2,77.09 -29.05,16.24 -19.3,10.55 -42.19,28.24 -9.01,6.95 -18.06,21.47 -20.12,17.26 -1.59,-3.28 -6.88,6.1 -10.44,8.99l-270.24 -326.06c270.71,-60.08 511.43,-106.11 780.48,4.68zm1271.88 -450.62l322.99 169.7c112.81,81.16 234.51,190.76 320.47,305.25 36.28,48.31 30.78,53.58 32.49,128l-70.73 -55c-15.84,-14.11 -36.54,-34.13 -57.24,-48.37 -22.9,-15.74 -88.23,-50.38 -126.44,-68.81 -81.45,-39.27 -219.26,-66.87 -262.02,-109.72 50.16,73.51 259.14,115.19 432.39,240.01 53.19,38.31 87.99,60.39 77.46,153.86 -49.13,-31.49 -26.91,-27.31 -60.38,-61.98 -154.68,-160.18 -458.03,-237.89 -596.55,-291.43l-12.44 -361.5zm-880.64 -100.21c55.37,52 67.98,182.63 166.16,290.64l247.81 159.96c126.66,53.25 38.79,434.47 64.35,672.13 21.94,204.07 54.58,428.03 87.85,630.09l-42.21 -54.6c-32.41,-55.17 -39.63,-130.63 -56.13,-194.4 -23.28,-89.95 -39.54,-169.17 -54.01,-262.01 -27.3,-175.07 -5.21,-436.57 -79.86,-582.96 -24.73,75.66 19.23,360.47 31.44,466.9 20.24,176.42 61.4,294.19 90.23,447.05 -175.55,-225.92 -310.26,-663.73 -346.5,-955.49 -14.92,-120.09 -4.29,-289.8 -43.12,-389.72 -90.35,264.98 112.06,760.29 172.83,999.85 -294.16,-478.4 -185.53,-712.95 -315.73,-1069.02 -31.97,109.52 121.9,630.36 135.97,796.56 -46.52,-60.67 -80.83,-99.51 -108.55,-182.46 -27.53,-82.39 -44.37,-147.94 -56.96,-230.55 -27.69,-181.39 -34.67,-338.95 -49.89,-520.12 -37.94,207.12 21.43,459.15 55.12,660.58 -64.47,-40.18 -50.57,-42.36 -102.83,-130.67 -23.42,-39.57 -52.2,-79.61 -77.16,-118.54 -80.23,-125.2 -59.43,-182.23 -77.63,-331.92 -29.35,60.62 -10.03,108.92 -5.61,181.56 -112.02,-156.95 -84.69,-139.69 -111.13,-357.83 -16.69,-137.62 -22.43,-277.54 -34.87,-417.94l97.93 75.5c44.15,50.69 26.68,35.86 76.89,74.99 7.52,159.87 -28.2,507.36 76.52,632.67 0.45,-174.95 -75.27,-107.99 -59.39,-606.57 55.83,22.02 17.95,-10.92 65.52,44.11l108.16 104.64c144.28,151.51 109.69,62.17 144.78,167.55zm-570.23 333.17c-199.27,-215.57 -594.7,-187.82 -851.77,-131.99 -12.87,-57.5 -107.9,-234.15 -142.61,-308.03 -53.18,-113.21 -84.34,-210.48 -125.27,-332.94 107.92,52.34 212.45,115.02 331.42,163.02 197.04,79.49 325.97,134.6 468.25,264.84 32.38,29.63 43.27,25.24 74.07,51.9 29.08,25.17 18.51,30.14 49.92,55.48 119.19,96.17 158.36,69.32 234.82,270.54 -148.66,-22.15 -419.75,-11.22 -554.39,41.84 78.51,28.69 254.53,-18.63 347.75,-27.31 221.7,-20.66 250.27,14.89 296.89,120.34 -484.24,-88.96 -331.78,-84.2 -752.84,23.58 -27.79,-24.53 -181.75,-230.15 -185.12,-304.6 231,-33.06 524.42,-48.08 735.23,75.16 31.75,18.57 34.11,25.34 73.65,38.19zm-127.27 -1057.91c2.38,1.96 8.08,6.43 10.94,8.82l47.66 42.44c95.09,101.64 108.44,137.76 107.48,259.21 -1.28,164.51 27.07,311.79 36.2,469.08 -31.72,-20.29 -21.15,8.65 -65.92,-75.41 -79.15,-148.59 -82.39,-77.68 -105.38,-268.42 -15.23,-126.36 -44.45,-324.33 -42.33,-444.65 3.82,2.95 8.9,6.91 11.36,8.93zm584.15 401.46c7.18,8.27 16.62,15.4 23.08,29.85 12.13,27.13 5.04,17.15 -1,29.63 74.87,48.11 293.97,354.23 334.37,443.28l36.4 68.6c29.06,23.04 34.34,26.31 63.05,62.09 8.05,10.06 19.73,25.2 29.82,42.56 20.87,35.89 -3.94,-13.02 21.49,46.58 -248.41,-49.04 -252.55,-356.1 -457.03,-558.92l-194.74 -180.91c-31.35,-28.37 -31.89,-36.01 -60.16,-63.76 -35.56,-34.92 -202.02,-141.7 -250.04,-267.11l307.89 207.84c93.39,67.95 102.57,63.53 146.86,140.27zm-715.04 -591.1c131.24,38.72 242.88,114.96 354.91,182.04 233.86,140.05 135.91,143.23 244.71,253.94l-90.74 -67.64c-18.28,-14.66 -61.94,-42.98 -94.84,-65.54 -153.78,-105.47 -178.64,-88 -178.81,-88.11 -61.18,-63.78 -33.15,-59.96 -117.25,-116.24l-92.22 -68.09c-21.29,-18.99 -13.16,-14.55 -25.75,-30.37zm-591.5 -254.59c27.87,22.63 18.51,-42.21 33.22,64.78l-33.22 -64.78zm463.67 1063.3c-24.19,-17.81 -32.14,-20.97 -62.99,-43.91 -110.05,-81.9 -418.99,-223.29 -554.9,-284.04l-115.95 -47.97c-77.77,-46.94 -128.28,-508.43 -135.29,-618.34 114.25,16.08 230.94,54.09 326.03,106.86 129.05,71.62 121.9,81.85 221.59,159.07 -167.49,-178.74 -265.96,-255.47 -549.4,-289.52l12.3 -368.81c108.01,49.41 190.29,144.55 275.05,236.81l84.76 112.6c78.27,99.42 142.06,160.66 209.39,272.95 41.78,69.66 112.32,183.54 137.1,258.67 -91.72,-42.25 -173.11,-136.91 -286.68,-198.2 -127.86,-69 -208.75,-102.52 -384.25,-111.84l268.62 82.1c201.85,60.15 200.97,103.48 302.67,179.54 127.66,95.48 159.1,109.01 228.21,270.26 -44.32,-19.76 -14.72,2.64 -56.58,-30.91 -55.12,-44.2 2.8,-36.66 -224.17,-183.96 -82.93,-53.81 -225.21,-121.67 -344.31,-128.71 28.69,34.87 250.7,105.43 311.86,141.86 154.06,91.8 379.9,290.11 466.53,445.55 56.56,101.47 110.36,182.34 159.5,282.25 -84.05,-40.86 -121.26,-98.85 -168.52,-148.35l-120.57 -93.95zm-463.67 -1063.3c-36.2,-19 -38.13,-38.16 -75.83,-89.85l58.71 45.82c24.12,30.87 9.07,7.28 17.12,44.03zm583.87 220.79l1.58 22.73c0.22,-3 3.82,7.52 6.06,11.08l-52.57 -46.6c-44.08,-11.71 -77.56,-68.53 -119.52,-137.67 -25.89,-42.67 -63.91,-121.82 -78.9,-184.56 75.72,15.8 179.59,47.62 250.92,82.92 130.8,64.75 103.65,45.44 171.72,169.2l-154.6 -70.57 201.22 167.03c34.28,30.57 77.33,52.08 103.34,75.05l77.22 115.05c-148.55,-66.6 -211.69,-149.37 -406.45,-203.66zm2405.99 1173.46c11.85,73.65 9.98,171.68 -13.21,233.5l-5.79 90.15c-67.34,-39.74 -101.07,-86.07 -149.6,-136.56 -28.04,-29.18 -41.74,-44.49 -70.34,-72.97 -237.6,-236.69 -258.61,-159.02 -443.54,-270.95 -7.38,-113.18 42.67,-496.43 74.54,-617.66l36.23 -67.98c41.67,127.6 153.52,265.08 232.87,378.7 78.85,112.92 203.89,366.97 216.06,382.39l7.82 -6.61c-16.82,-111.84 -108.75,-260.06 -160.3,-352.14 -41.99,-75.02 -298.78,-424.63 -295.49,-479.66 2.75,-46.26 141.87,-474.66 227.88,-543.96 88.53,90.09 121.96,114.14 193.17,220.79 54.69,81.91 92.64,173.98 112.57,282.37 29.26,-128.09 -105.67,-324.35 -181.32,-428.73 -42.86,-59.16 -59.81,-45.47 -116.83,-95.32 21.12,-72.69 151.79,-274.4 204.21,-311.2 117.69,166.44 63.64,454 150.37,627.19l-9.01 -167.06c11.66,16.3 15.56,9.87 30.16,45.82 16.65,41 -2.72,248.58 -7.46,293.53 -12.58,119.41 -9.33,228.95 -17.27,349.78 -41.87,-52.67 -25.41,-33.17 -50.46,-106.59 -10.89,-31.9 -21.71,-61.32 -33.02,-91.92 -68.1,-184.25 -175.66,-351.89 -343.97,-445.3 18.68,47.82 9.1,20.95 82.05,84.88 31.84,27.9 53.32,46.81 81.74,78.02 48.68,53.44 87.17,112.38 128.42,196.56l130.16 361.47c3.6,43.83 -4.79,126.59 -8,172.76 -38.78,-50.8 -21.83,-24.78 -41.91,-101.63l-104.18 -269.55c-57.72,-111.02 -145.46,-227.48 -222.1,-275.19l147.31 208.85c120.32,194.71 140.79,293.8 207.49,508.95 30.74,99.19 -16.73,215.43 10.75,325.26zm-2422.89 -754.76c-15.68,-84.73 -16.02,-230.03 -67.84,-285.88l26.88 216.9 -117.77 -186.14c-37.79,-72.16 -72.15,-103.08 -92.3,-176.59 -28.74,-104.9 -74.2,-344.77 -69.37,-443.05 -4.19,55.8 117.31,296.34 154.79,360.5 56.75,97.13 164.91,199.93 269.5,247.22 4.74,188.36 19.53,326.8 34.41,500.87l-33.85 -36.65c-3.58,-4.5 -12.38,-17.69 -15.5,-22.22 -41.59,-60.13 -78.33,-117.56 -88.96,-174.98zm-862.32 -987.09c52.91,23.64 178.09,164.6 204.95,232.44 -95.29,-60.73 -30.53,-54.15 -151.51,-134.27 -46.32,-30.67 -108.92,-80.65 -142.61,-120.74l8.37 -155.52c88.67,37.34 51.71,28.3 113.6,80.74 96.27,81.56 157.89,97.41 211.49,320.56 -78.72,-80.99 -139.34,-157.46 -244.29,-223.22zm3267.07 -187.23c25.35,164.83 160.04,373.77 71.95,547.52 -11.43,-79.35 -15.53,-161.59 -28.27,-237.43 -10.41,-61.89 -48.39,-130.66 -54.51,-171.26 37.02,136.59 53.61,204.6 48.06,376.85l-134.86 -433.11c84.51,-44.23 2.7,-40.09 97.63,-82.56zm-2733.88 17.52l352.33 436.2c-64.05,-14.55 -105.6,-38.7 -178.26,-55 -145.75,-32.69 -124.01,-89.59 -217.17,-407.37 43.77,23.16 13.3,-1.05 43.1,26.17zm2733.88 -17.52c17.46,-64.72 51.29,-98.58 112.19,-144.28 2.41,172.09 27.1,270.74 9.86,462.87 -40.62,-64.24 -29.31,-97.1 -53.64,-173.98 -9.67,-30.57 -17.27,-45.28 -31.12,-75.35 -19.1,-41.44 -15.42,-38.21 -37.3,-69.26zm138.23 4013.16c-95.15,-202.73 -80.26,-1856.25 -76.37,-2205.19 7.77,-696.31 31.32,-1386.29 251.57,-2017.94l-102.71 981.4c-53.78,645.45 -54.8,1467.55 -60.05,2126.18 -2.78,347.89 17.75,778.35 -12.44,1115.55zm24.16 -4238.12c44.49,-41.48 10.38,-18.94 26.39,-40.2 34.81,-46.19 -1.73,-14.04 58.01,-51.34 0,85.02 -20.1,248.86 -49.35,305.45l-32.88 116.51 -46.12 -286.87 43.94 -43.55zm-3160.62 204.01c-72.86,-85.76 -89.99,-191.67 -72.23,-299.77 40.39,11.65 26.91,6.12 54.34,33.08 253.87,249.56 218.49,485.53 300.59,895.44l-75.36 -121.84c-119.64,-278.93 -37.14,-315.03 -100.33,-401.61l2.02 146.79c-105.47,-106.91 -107.85,-260.9 -53.3,-402.24 -36.35,30.81 -48.14,101.01 -55.73,150.15zm-185.95 -261.65c42.78,37.26 33.51,55.51 60.86,121.03 308.82,739.94 444.04,999.06 881.98,1725.82 92.06,152.77 1044.64,1635.85 1058.36,1709.54 -45.05,-19.27 -116.81,-131.35 -162.19,-195.11 -355.02,-498.84 -634.05,-957.22 -952.3,-1478.32l-389.96 -664.21c-162.03,-303.29 -507.21,-923.13 -496.75,-1218.75zm-13.56 179.32c17.92,24.04 22.54,-39.89 32.43,57.29 4.39,43.06 -7.38,24.19 -23.11,47.4l60.86 143.14c-58.66,-51.32 -126.55,-110.43 -213.82,-143.77l20.59 -154.56c56.53,30.06 16.27,-13.6 52.17,54.97l2.52 -14.58c-41.14,-126.15 -55.06,13.1 -34.95,-185.53 46.73,69.51 -8.25,82.41 103.31,195.65zm3464.53 -174.77c-6.41,-83.91 -17.18,-48.53 31.16,-104.83l-31.16 104.83zm-3450.97 -4.56c-33.9,-40.68 -22.6,-38.21 -34.45,-101.55 48.39,73.66 33.9,59.51 34.45,101.55zm88 -82.87c13.7,38.82 -0.22,33.94 -21.83,67.59l-36.92 -114.73c24.01,11.9 43.12,2.87 58.75,47.14zm2204.28 12658.98l55.76 0 -282.46 -438.94c-115.75,-119.12 -24.07,-52.45 -149.64,-153.78 -48.54,-39.16 -58.72,-59.74 -99.91,-114.28 -48.91,-64.78 -123.7,-65.49 -229.07,-200.8 -47.82,-61.41 -56.56,-50.35 -91.71,-104.62 -172.28,-266.07 -232.25,-335.39 -408.02,-664.42 -54.09,-101.24 -123.15,-187.62 -160.51,-275.05 300.08,-72.12 387.49,-371.3 984.94,-85.36 258.67,123.8 221.33,152.63 313.5,224.45 55.83,43.51 73.35,82.38 110.56,158.93 261.17,537.47 390.7,1028.42 475.27,1653.88l91.83 0c-0.14,-405.75 -29.8,-800.13 -100.98,-1195.04 -87.88,-487.51 -40.05,-671.59 57.57,-1144.06 54.88,-265.62 322.83,-1247.77 423.58,-1521.61 61.16,-166.28 128,-210.96 188.05,-295.91 36.99,-52.31 14.79,-51.52 85.07,-87.06l0 -73.52 -44.65 36.58c-21.58,71.55 -12.34,59.53 -80.38,95.09 -1.76,-4.43 -5.11,-15.7 -5.44,-13.22 0,0.02 -25.74,-80.49 33.8,-132.42 36.8,-102.94 27.14,-90.4 96.67,-148.19l0 -43.94c-11.65,9.89 -26.02,9.93 -35.29,20.8l35.29 -84.09 0 -175c-65,122.61 -93.93,314.85 -138.69,361.54 -18.91,-85.53 59.09,-327.5 88.23,-434.78 16.86,-62.11 17.01,-89.64 50.46,-137.84l0 -205.22 -27.76 60.98c-74.71,-174.95 -39.57,-599.23 -123.1,-764.78 -27.69,299 178.23,853.74 26.57,1101.49 -15.08,-189.77 8.27,-352.91 -21.44,-561.75 -14.41,-101.38 -54.89,-375.41 -130.12,-425.23 44.49,223.45 110.42,416.06 122.58,658.29 11.87,236.18 25.55,540.18 -74.2,737.01 -4.74,-160.95 -85.08,-797.58 -160.83,-904.54 -39.07,214.42 242.77,885.26 110.79,1113.5 -39.64,-225.89 -62.93,-437.87 -115.39,-663.54 -51.8,-222.91 -174.86,-391.48 -165.14,-612.56 203.66,-69.6 249.83,-368.8 281,-540.66l83.54 174.69c0.57,-1.85 34.1,3.55 -19.16,-110.82 -120.74,-259.32 11.2,-92.85 113.28,-494.31l62.94 91.71c12.45,36.09 21.41,57.26 36.46,83.66l0 -61.94c-3.38,-4.14 -8.7,-15.48 -10.2,-12.39l-29.97 -48.9c-31.49,-65.43 -35.52,-75.64 1.56,-128.22 3.17,-4.51 14.23,-17.37 17.49,-21.2 2.67,-3.12 8.03,-7.91 10.3,-10.41 2.36,-2.6 7.32,-7.01 10.81,-10.69l0 -88.77c-76.6,79.78 -168.62,279.14 -218.33,378.68 -22.96,45.98 -53.36,80.58 -78.19,135.18 -85.22,187.48 -36.69,510.9 -236.01,600.12 32.88,-114.37 24.01,-135.08 82.3,-204.58 -41.71,-14.12 -6.92,-47.09 1.82,-59.11 29.54,-174.58 117.52,-371.53 173.84,-522.23 -51.96,16.24 7.79,-50.54 8.06,-50.86 25.21,-117.94 102.54,-204.94 177.47,-304.37l89.04 -99.53 0 -46.66 -201.83 242.87c53.92,-224.71 92.76,-239.11 201.83,-339.72l0 -51.05c-20.41,20.86 -15.67,13.49 -39.91,36.21l-57.86 49.5c9.04,-55.15 6.5,-53.7 33.09,-105.4 15.56,-30.3 8.65,-19.87 26.45,-44.34 2.41,-3.32 5.5,-7.6 8,-10.77l19.36 -21.41c2.33,-2.6 7.26,-7.06 10.86,-10.63l0 -222.41c-11.42,20.75 -20.53,42.33 -31.7,69.34l-47.21 81.36c-28.71,-224.98 -94.74,-438.86 -110.17,-671.16 -9.19,-138.27 111.47,-503.47 189.09,-585.07l0 -129.1c-20.84,28.66 -52.62,100.11 -69.77,142.74 -32.18,80.01 -27.75,100.42 -85.59,151.81 15.8,-134.92 86.89,-472.66 155.36,-563.82l0 -94.72c-103.87,203.08 -118.41,387.27 -158.16,507.43 -11.39,34.41 -13.47,30.28 -20.55,42.19 -21.01,-253.5 72.33,-699.39 178.71,-823.79l0 -109.46c-79.63,125.37 -111.41,347.32 -172.25,496.52 -26.13,-165.74 76.32,-709.07 172.25,-819.85l0 -84.06c-65.95,94.92 -156.58,433.39 -168.35,560.45 -15.79,-184.48 -10.47,-395.68 24.01,-564.77l119.49 -454.46c27.53,-56.21 5.19,-11.45 24.86,-36.82l0 -91.11c-80.96,119.05 -101.74,280.07 -155.69,416.5 -23.08,-131.55 -0.56,-338.44 2.97,-479.91 2.41,-96.93 19.28,-111.38 56.34,-185.3l65.58 -113.01c17.72,-24.81 15.05,-18.25 30.79,-34.64l0 -49.84 -128.17 202.06c-1.7,2.86 -7.59,14.52 -8.88,11.68 -1.34,-2.95 -6.43,7.76 -9.69,11.6 -11.91,-149.68 6.58,-299.92 12.24,-449.58 4.08,-108.36 20.38,-236.24 134.5,-293.33l0 -38.13 -131.44 127.37c3.35,-158.2 38.79,-166.47 131.44,-253.54l0 -45.14c-62.43,23.9 -45.05,11.4 -86.38,78.36 -2.04,3.31 -4.87,8.48 -6.78,11.51 -1.78,2.8 -5.13,7.96 -6.69,10.3 -2.26,3.41 -13.55,16.39 -17.33,20.98 -6.84,-131.07 -11.11,-262.47 117.18,-309.49l0 -21 -112.36 79.12c13.04,-154.93 -4.23,-158.87 112.36,-213.37l0 -23.51 -82.19 44.76c-2.67,-4.34 -10.37,5.44 -15.54,8.17 11.39,-138.63 18.28,-178.2 97.73,-234.45l0 -38.61c-55.12,24.94 -28.18,12.22 -70.31,52.81l22.76 -157.03 47.55 -13.19 0 -32.68c-50.15,1.59 -19.67,10.77 -45.73,-10.01 11.43,-26.39 8.76,-20.78 23.05,-41.48l22.68 -21.1 0 -38.24c-32.58,15.77 -38.82,-8.53 -23.02,15.9 -4.03,-54.18 -3.04,-99.91 23.02,-141.95l0 -477.08 -756.75 1017.48c-28.91,46.21 -62,113.94 -84.17,165.12 -208.86,482.21 -305.21,1190.76 -216.22,1738.82 80.38,494.97 302.07,1030.55 551.81,1469.02 50.67,88.97 134.23,240.02 176.76,340.76 60.9,144.27 75.53,252.43 94.29,402.8 28.38,227.74 161.37,698.12 91.38,832.7 -75.95,-73.01 -152.09,-280.33 -217.48,-383.92 -78.53,-124.4 -144.72,-249.8 -228.58,-378.73l-318.51 -449.4c-321.89,-418.71 -397.24,-588.86 -463.29,-1178.2 -21.78,-194.34 -30.11,-385.47 -17.3,-586.03 7.77,-121.65 -5.58,-161 -43.69,-265.7 -56.39,-154.91 -368.67,-547.72 -486.12,-710.96l-168.55 -224.44c-114.71,-152.33 -251.91,-305.67 -355.54,-466.42l-229.87 -287.15c-17.94,-23.22 -9.8,-20.87 -28.24,-44.26l-273.18 -333.31c-52.64,-47.72 -78.19,-106.6 -135.06,-150.57 -95.39,-73.74 -139.36,-177.7 -228.44,-234.34 -52.45,-33.36 -172.39,-182.81 -213.08,-236.15 -33.77,-44.26 -28.63,-25.74 -55.34,-88.06 -32.26,-75.27 -3.92,-60.25 -74.59,-64.42 -23.68,45.85 -113.46,999.4 -115.84,1122.94 -15.5,805.9 371.58,1609.67 929.88,2169.09l326.59 280.15c301.19,231.98 641.22,416.84 964.13,608.06 118.41,70.09 249.59,156.16 330.51,278.23l508.37 724c49.48,64.72 71.58,109 122.82,180.81 41.06,57.55 429.57,714.43 443.51,797.07 7.2,42.78 -346.18,1029.28 -391.03,1189.97 -88.6,317.43 -38.52,365.51 62.17,632.3 74.59,197.66 105.47,426.9 146.49,641.84 102.99,539.9 -73.32,815.84 -213.65,1290.44 -91.21,308.51 -167.27,632.3 -224.05,954.8l-42.27 259.82c-4.43,27.9 -2.81,22.28 -11.48,48.85 -1.45,4.45 -7.2,17.94 -8.42,15.31 -1.25,-2.67 -6.5,9.93 -9.78,14.89 -35.06,-284.53 -106.01,-599.16 -155.01,-890.67 -169.68,-1009.74 605.98,-1827.74 -237.83,-3476.1 -17.33,-33.87 -37.71,-58.54 -55.12,-86.73l-196.18 -304.33c-26.67,-33.85 -33.94,-46.81 -53.22,-71.73 -170.84,-220.96 -172.76,-176.99 -317.19,-325.03 -156.13,-160 -639.7,-439.23 -826.54,-566.32 -91.55,-62.28 -36.6,-81.7 -161.37,-101.63 4.29,76.43 42.41,176.14 54.54,274.63 33.77,274.35 -52.2,547.05 -88.14,817.19 -65.58,493.03 74.96,616.44 172.9,1034.92 81.13,346.66 8.62,702.72 213.25,1017.48 40.6,62.45 155.58,239.67 203.83,277.63 112.58,88.53 113.38,112.27 237.94,208.58 44.48,34.41 41.05,50.89 77.56,82.04 29.14,24.86 55.19,30.81 85.75,58.86 36.37,33.4 32.55,48.33 75.07,84.46l230.07 235.5c35.39,40.15 51.6,37.64 86.76,72.8 34.72,34.73 32.72,47.31 59.62,85.02 36.66,51.4 45.78,34.36 82.32,77.03 27.5,32.12 28.6,56.5 57.21,86.59 33.62,35.35 49.64,28.24 86.12,73.71 28.74,35.81 36.23,52.96 68.44,93.18 26.26,32.81 5.33,-9.7 33.03,57.33 68.95,166.9 104.55,516.22 129.48,691.99 99.82,703.82 312.7,1412.01 291.98,2141.79 -28.92,-438.04 -246.56,-1052.98 -424.72,-1458.39 -111.02,-252.62 -250.76,-489.55 -404.92,-719.3 -29.37,-43.77 -53.83,-76.09 -80.11,-116.26 -22.39,-34.24 -53.97,-81.7 -72.67,-106.29l-124.2 -161.2c-33.32,-35.98 -10.2,2.44 -44.11,-45.3l-166.89 -208.12c-33.66,-38.79 -67.68,-50.2 -106.96,-89.13l-179.99 -194.65c-36.49,-31.01 -71.27,-43.72 -105.27,-74.47l-149.55 -226.61c-126.35,-254.35 -438.95,-1139.56 -616.34,-1274.4l-662.69 -463.27c-363.99,-249.85 -966.71,-723.86 -1356.78,-892.89 -253.77,-109.97 -216.22,-159.47 -567.23,-169.81 -120.49,-3.55 -661.94,-43.57 -722.92,-14.01 43.37,100.33 167.41,158.27 225.76,247.1 103.25,157.17 168.21,320.16 237.75,495.9 55.09,139.22 121.28,302.09 193.17,413.15 134.24,207.43 146.76,171.06 283.36,305.67l331.66 275.2c51.09,50.75 87.63,104.1 132.84,171.41l87.55 126.95c56.59,77.49 171.3,233.32 247.72,286.43 144.64,100.51 296.86,202.37 480.33,250.89 333.6,88.23 659.19,118.14 995.28,201.96 158.78,39.58 319.88,88.14 471.07,134.83 244.13,75.42 211.81,63.98 397.38,194.06 139.69,97.93 161.93,175.72 233.13,232.52 122.21,97.44 130.01,143.76 221.87,224.31l197.71 250.1c20.56,31.01 38.79,46.35 63.48,79.01 118.24,156.36 255.46,346.72 327.87,532.04 -343.49,-275.4 -802.88,-285.37 -1199.5,-445.67 -187.33,-75.72 -373.11,-174.49 -567.76,-253.54 -223.93,-90.95 -274.18,-192.12 -496.77,-325.94 -715.44,-430.18 -1143.28,-517.65 -1972.68,-459.67 -75.32,5.27 -731.51,75.97 -741.7,80.46 -22.9,67.72 69.43,72.26 150.74,137.1 105.66,84.26 168.66,127.85 242.94,240.24l259.6 219.38c-33.23,41.14 1.48,20.87 -63.17,51.18 -234.88,110.11 -327.08,135.17 -544.06,309.9l-502.81 426.52c-43.17,36 -36.18,49.56 -73.63,85.85 -34.47,33.42 -61.97,38.42 -93.78,68.5 -85.81,81.14 -137.15,85.36 -144.9,157.63 156.61,26.87 237.21,-12.24 447.81,54.78 120.09,38.22 239.5,87.82 344.63,139.08 553.23,269.76 652.2,233.21 1228.04,202.59 503.64,-26.79 610.12,230.62 1268.3,-9.52 328.94,156.84 235.81,262.84 732.39,221.38 223,-18.62 1025.96,70.88 1191.36,239.13 54.48,55.42 75.5,58.55 126.52,106 173.88,161.7 427.03,465.03 508.58,674.42z"/>
   <path class="fil2" d="M6974.75 13010.46l50.64 0c19.81,-99.39 44.31,-117.17 102.94,-175.17l0 -412.98 -30.36 54.52c5.95,-845.06 -57.47,-873.02 -197.92,-1599.99 -6.84,-35.46 -10.2,-72.07 -22.12,-101.84 -23.87,-59.57 -21.68,32.18 -28.64,-90.53 3.32,74.44 -26.25,238.87 -16.73,379.52 5.65,83.66 57.6,296.4 53.01,330.68 -11.53,-204.83 -48.96,-377.8 -42.42,-606.04l22.87 54.97c2.75,10.74 7.37,45.87 9.67,60.24 5.99,37.62 10.49,74.9 16.48,112.12 63.31,392.6 183.19,668.52 186.83,1119.23 1.25,155.38 -32.54,346.97 -24.04,492.9l-15.93 69.66c-20.72,-23.25 -16.56,48.84 -17.54,-48.2 9.66,-345.81 -119.12,-869.44 -199.3,-1210.84 -78.65,-334.75 -111.55,-888.5 140.56,-1135.3 110.45,119.75 88.16,190.59 165.59,307.17l0 -104.49c-55.9,-65.15 -64.97,-182.97 -150.57,-217.84l34.13 -91.52c77.2,82.13 48.5,119.5 116.44,180.36l0 -81.67c-53.63,-49.07 -44.31,-60.15 -79.36,-125.16 23.24,-54.94 42.53,-94.95 79.36,-126.19l0 -117.31c-44.05,51.77 -50.72,102.99 -85.54,157.45 -291.93,456.63 -411.76,652.42 -289.15,1266.14 123.36,617.46 141.98,568.33 218.86,1230.74 21.86,188.41 19.42,241.4 2.26,429.37z"/>
   <path class="fil2" d="M7128.33 11308.26l0 -235.05c-53.47,-73.09 -37.74,-109.14 -70.67,-171.64 -1.78,-3.37 -4.25,-7.83 -6.2,-11.02 -50.94,-83.33 -34.56,-17.03 -27.39,-267.23 -73,177.02 0.88,795.2 68.53,970.39 17.83,-84.01 -30.23,-212.71 -50.4,-305.1 -30.17,-138.24 -26.79,-255.83 -26.51,-399.29 13.47,18.55 14.92,9.53 27.75,46.52 0.08,0.23 10.86,55.82 11.7,60.32l73.18 312.11z"/>
   <path class="fil2" d="M5039.92 7242.97l-71.66 -39.3c-108.67,-81.82 -243.27,-150.54 -383.67,-166.99l-144.76 -0.65c-84.31,25.89 -27.78,12.31 -56.13,38.02 152.73,-6.41 239.53,-8.23 377.46,49.45 48.47,20.27 95.48,48.65 143.09,70.79 50.78,23.64 87.85,61.89 135.66,48.68z"/>
   <path class="fil2" d="M2931.62 10190.08l-14.37 2.15c19.59,98.74 117.48,263.63 166.79,325.75 39.37,49.61 188.1,184.87 273.86,213.88 -187.93,-66.19 -326.6,-402.46 -426.28,-541.79z"/>
   <path class="fil2" d="M3988.91 8958.23c0.6,-74.91 -38.14,-166.55 -33.23,-288.46 4.06,-100.84 21.86,-207.13 29.74,-310.18 -22.76,23.21 -19.91,3.54 -38.19,73.76 -61.83,237.6 -20.56,348.97 41.68,524.88z"/>
   <path class="fil2" d="M5725.1 8474.31c95.34,-307.32 346.63,-427.84 414.84,-550.04 -21.92,13.05 -58.38,32.23 -72.92,42.24 -91.68,63.2 -353.08,349.48 -341.91,507.8z"/>
   <path class="fil2" d="M5456.32 7334.26c19.98,-238.59 103.81,-435.71 198.65,-613.63 -127.85,83.91 -221.96,409.24 -198.65,613.63z"/>
   <path class="fil2" d="M2148.55 10696.64c-334.59,-93.66 -402.77,-267.31 -531.46,-333.09 34.7,60.04 47.97,97.07 94.09,132.25 29.97,22.87 38.14,20.39 68.23,39.72 23.62,15.17 33.87,29.35 60.47,45.53 57.29,34.84 239.38,122.58 308.68,115.59z"/>
   <path class="fil2" d="M3560.43 1914.2c59.71,45.16 510.39,123.77 592.17,257.1 -85.88,-112.75 -387.89,-272.58 -592.17,-257.1z"/>
   <path class="fil2" d="M6257.74 1773.28c21.77,49.22 74.98,70.67 114.79,114.02 102.18,111.27 198.43,275.98 261.99,411.61 -13.89,-81.05 -93.47,-233.07 -139.56,-302.76 -55.74,-84.32 -139.17,-171.91 -237.23,-222.86z"/>
   <path class="fil2" d="M4403.36 11144.32c-13.32,18.89 -53.01,-33.56 -8.19,136.42 32.4,122.81 72.69,196.73 122.82,301.1l-114.64 -437.52z"/>
   <path class="fil2" d="M5601.7 7701.71l270.37 -358.91c-39.55,27.47 -64.13,39.32 -91.08,68.92 -15.8,17.38 -17.27,24.81 -29.94,41.17 -27.53,35.55 -21.1,20.1 -42.12,46.8 -4.54,5.79 -51,77.14 -62.76,97.92 -15.23,26.97 -32.68,73.11 -44.48,104.1z"/>
   <path class="fil2" d="M3230.87 10135.53l52.84 -15.23 -223.25 -204.61c26.96,105.2 117.62,159.24 149.07,189.91 19.3,18.82 13.53,17.1 21.34,29.94z"/>
   <path class="fil2" d="M3898.08 2489.19l442.61 23.56c-124.49,-33.25 -307,-76.12 -442.61,-23.56z"/>
   <path class="fil2" d="M2714.89 7649.05c29.4,16.3 275.81,108.01 323.16,119.32 -37.76,-81.03 -226.61,-115.16 -323.16,-119.32z"/>
   <path class="fil2" d="M6242.92 2436.58c28.21,33.4 253.25,161.91 366.76,258.22 -31.27,-33.39 -46.06,-44.6 -73.88,-77.62 -61.23,-72.63 -200.72,-155.28 -292.88,-180.61z"/>
   <path class="fil2" d="M7128.33 3235.86l0 -77.83c-54.69,63.73 -127.06,267.91 -142.69,374.28 51.03,-87 71.64,-223.17 142.69,-296.45z"/>
   <path class="fil2" d="M2277.14 10310.91c46.21,131.1 202.11,301.48 284.23,348.25 -115.38,-89.33 -221.27,-305.42 -284.23,-348.25z"/>
   <path class="fil2" d="M4105.16 11525.25l-310.18 -33.31 5.38 28.55c93.92,3.49 235.71,45.17 304.8,4.76z"/>
   <path class="fil2" d="M6864.84 7855.54c29.46,-78.11 -50.41,-240.13 -74.78,-308.62 -16.18,42.13 51.73,246.95 74.78,308.62z"/>
   <path class="fil2" d="M5449.04 2912.44c-19.79,31.19 -1.95,-30.19 -20.73,41.25 -1.64,6.18 -4.85,33.32 -4.97,34.5 -2.33,21.06 -1.61,68.21 -0.77,90.53 1.84,49.24 7.42,112.7 34.1,150.48l-7.62 -316.76z"/>
   <path class="fil2" d="M4301.57 6456.85c4.13,59.81 -4.65,13.63 27.9,31.22 87.66,-79.92 202.82,-61.06 270.35,-120.63 -122.11,14.2 -221.82,72.95 -298.25,89.41z"/>
   <path class="fil2" d="M2308.24 7419.36c32.52,17.61 201.97,45.95 254.92,17.88 -67.62,-33.11 -172.05,-31.97 -254.92,-17.88z"/>
   <path class="fil2" d="M2211.02 7194.7c26.99,29.4 -24.77,7.83 48.47,38.35l174.7 33.71c-63.56,-49.07 -142.24,-64.04 -223.17,-72.06z"/>
   <path class="fil2" d="M1237.14 7557.14c30.87,-43.68 56.1,-96.02 92.19,-131.61 53.66,-52.93 56.96,-66.11 101.07,-123.84 -46.26,31.81 -187.88,168.37 -193.26,255.46z"/>
   <path class="fil2" d="M6448.1 2432.93c-26.77,-49.01 -166.42,-146.57 -215.86,-175.96 33.97,60.33 152.5,132.71 215.86,175.96z"/>
   <path class="fil2" d="M5204.59 2420.76c-41.81,58.4 -34.62,134.53 -34.93,215.57 27.48,-24.02 10.35,23.93 23.78,-39.74l11.15 -175.83z"/>
   <path class="fil2" d="M3404.05 10143.59c-44.66,-89.22 -96.25,-81.81 -157.14,-136.85 4.5,11.29 86.86,127.52 157.14,136.85z"/>
   <path class="fil2" d="M7128.33 1997.06l0 -52.33c-47.32,45.34 -84.08,68.13 -103.62,144.93 44.36,-51.17 66.63,-54.09 103.62,-92.6z"/>
   <path class="fil2" d="M2318.27 10545.28c-51.86,-46.73 -54.44,-77.06 -104.96,-122.67 -46.73,-42.19 -66.03,-72.27 -113.23,-109.8 81.08,130.24 4.43,28.63 102.65,120.35 42.73,39.91 68.74,67.36 115.55,112.12z"/>
   <path class="fil2" d="M3067.05 7769.78c53.41,41.81 96.19,65.55 146.62,37.28l-146.62 -37.28z"/>
  </g>
 </g>
</svg>
