<?xml version="1.0" encoding="UTF-8"?>
<!DOCTYPE svg PUBLIC "-//W3C//DTD SVG 1.1//EN" "http://www.w3.org/Graphics/SVG/1.1/DTD/svg11.dtd">
<!-- Creator: CorelDRAW 2020 (64-Bit) -->
<svg xmlns="http://www.w3.org/2000/svg" xml:space="preserve" width="29.5408mm" height="35.7717mm" version="1.1" style="shape-rendering:geometricPrecision; text-rendering:geometricPrecision; image-rendering:optimizeQuality; fill-rule:evenodd; clip-rule:evenodd"
viewBox="0 0 816.12 988.26"
 xmlns:xlink="http://www.w3.org/1999/xlink"
 xmlns:xodm="http://www.corel.com/coreldraw/odm/2003">
 <defs>
  <style type="text/css">
   <![CDATA[
    .str0 {stroke:black;stroke-width:5.53;stroke-miterlimit:22.9256}
    .fil0 {fill:black}
    .fil2 {fill:#F3F3F5}
    .fil1 {fill:white}
   ]]>
  </style>
 </defs>
 <g id="Contenido_x0020_de_x0020_PowerClip">
  <metadata id="CorelCorpID_0Corel-Layer"/>
  <g id="_2127961637952">
   <path class="fil0 str0" d="M647.27 687.83l6.54 167.57c-6.09,33.81 -31,74.6 -45.69,106.54l0 23.56 -303.02 0 4.74 -5.64 -5.93 0 76.14 -83.97c11.14,-16.22 37.95,-55.86 52.29,-65.58 9.33,-6.32 13.58,-11.05 23.66,-17.84 19.61,-13.23 132.5,-65.16 154.09,-85.74l18.01 -20.28c7.48,-8.67 4.44,-19.13 19.17,-18.61z"/>
   <path class="fil0 str0" d="M796.03 2.78c4.21,8.63 15.92,156.92 16.87,178.43 4.94,111.88 -30.08,214.96 -88.64,305.33l-52.48 72.13 -64.46 59.93c-6.41,6.15 -8.08,5.66 -14.71,10.91 -37.2,29.48 -64.66,44.02 -103.35,68.97 -6.98,4.49 -10.79,5.77 -16.42,9.14l-80.55 47.17c-42.75,26.52 -58.19,59.82 -92.13,106.25 -7.89,10.8 -14.01,18.29 -20.64,27.27l-21.7 29.4c-7.23,9.02 -13.93,19.21 -21.26,29.89 -7.33,10.69 -12.46,20.05 -19.71,32.25l-10.11 -0c4.72,-9.73 11.45,-18.11 17.74,-28.62l91.73 -125.52c17.69,-23.69 36.01,-53.48 43.07,-82.1 10.05,-40.74 23.06,-134.24 19.69,-175.82 -5.18,-63.78 19.4,-86.28 58.36,-138.33l149.57 -192.19c3.63,-4.54 1.87,-3.74 5.12,-7.83l131.5 -149.52c6.61,-8.37 8.57,-4.64 26.98,-23.94 45.83,-48.11 25.33,-52.99 45.52,-53.19z"/>
   <path class="fil0 str0" d="M239.01 147.21c36.57,49.83 62.72,113.31 74.34,177.7 10.43,57.76 13.87,96.94 11.63,156.76 -5.49,146.95 -75.09,247.93 -134.66,365.57 -22.17,43.79 -32.33,80.02 -38.4,132.61l-9.3 0c11.26,-58.95 21.57,-77.76 -2.93,-132.39 -32,-71.34 -35.25,-92.61 -74.44,-158.7 -4.76,-8.03 -8.69,-15.9 -13.46,-24.97 -22.62,-43.04 -51.98,-89.43 -48.81,-150.31 2.65,-50.8 21.59,-85.58 27.88,-130.97 15.16,-109.49 -28.51,-100.58 61.32,-250.3 8.17,-13.62 18.48,-37.67 24.99,-55.25 10.9,-29.47 7.22,-41.73 11.24,-68.76 14.27,3.32 13.01,11.31 20.74,21.31l72.22 93.85c7.11,9.68 11.61,15.62 17.63,23.83z"/>
   <path class="fil1" d="M386.88 732.92l9.2 -11.01c-7.39,5.38 -3.43,-6.92 -9.2,11.01z"/>
   <path class="fil1" d="M584.14 981.73l8.28 0c3.89,-5.42 3.23,-3.91 3.8,-11.69 -0.62,-9.97 -0.18,-3.63 0.45,-12.77 1.04,-15.05 2.2,-4.73 -1.87,-10.97l-10.66 35.43z"/>
   <path class="fil1" d="M497.14 854.52l1.92 0.48c-3,-4.85 -0.4,-2.58 -4.58,-6.37l-21.24 -14.93c11.76,8.93 1.32,1.99 8.96,10.72 7.2,8.22 11.67,8.54 14.94,10.11z"/>
   <path class="fil1" d="M526.37 555.92l12.74 -4.08c0.58,-0.27 1.55,-0.95 2.33,-1.41l-1.11 -3.15 -7.32 0.31c-0.49,0.46 -1.34,0.46 -1.51,1.35 -0.17,0.9 -1.23,1.15 -1.45,1.44 -0.42,0.56 -3.41,5.07 -3.67,5.53z"/>
   <polygon class="fil1" points="352.95,981.73 358.48,981.73 354.85,966.15 "/>
   <path class="fil1" d="M445.72 888.89l-0.18 -2.03c-4.39,-6.51 1.39,-1.48 -5.19,-6.52 -0.67,-0.52 -8.16,-4.25 -9.44,-4.92l14.81 13.47z"/>
   <polygon class="fil1" points="432.46,973.01 433.43,981.73 437.1,981.73 434.57,968.81 "/>
   <path class="fil1" d="M578.28 307.86l-0.4 2.46c2.39,-2.13 3.58,-2.86 6.75,-7.03 -9.98,-2.57 -5.49,-0.49 -8.14,1.76l1.78 2.81z"/>
   <path class="fil1" d="M743.44 194.42c-4.5,4.63 -5.9,-10.5 -4.11,7.91l7.06 1.6c0.67,-0.4 1.74,-1.73 2.05,-1.14l8.41 -5.17c4.9,1.82 4.03,3.12 4.03,-1.7 6.77,0 0.77,0.66 0.88,-4.16 7.1,-12.05 21.04,-34.79 35.66,-35.89 -26.07,7.82 -22.57,12.63 -42.58,27.65 -0.49,0.37 -1.26,0.91 -1.72,1.31 -0.46,0.41 -1.04,1.17 -1.47,1.6 -4.78,4.77 0.29,3.52 -8.21,7.99z"/>
   <path class="fil1" d="M412.32 722.83l-4.21 -0.99c-17,2.23 1.43,-8.67 -17.28,23.5 11.3,-7.33 18.65,-11.26 31.44,-12.99l-9.96 -9.52z"/>
   <path class="fil1" d="M495.22 682.03c9.8,1.37 7.59,0.82 16.68,-6.16 6.7,-5.14 9.71,-7.28 16.29,-11.15 -3.35,-2.84 2.8,-2.38 -6.62,-2.51 -5.72,-0.08 -6.49,2.89 -6.9,3.22 15.71,-2.86 3.27,-1.76 8.24,3.7 -4.61,0.86 -12.15,1.93 -16.42,3.12 -24.29,6.78 -6.92,-1.19 -11.27,9.77z"/>
   <path class="fil1" d="M594.69 247.7l-0.85 -5.91c-2.85,2.75 -2.61,1.18 -5.29,5.8 -2.51,4.33 -1.06,2.33 -2.61,6.75 11.94,-4.2 6.99,-4.28 8.75,-6.64z"/>
   <path class="fil1" d="M705.77 282.19c-0.95,2.44 2.23,0.44 2.69,-1.47l-2.69 1.47z"/>
   <polygon class="fil1" points="425.06,470.65 431.86,457.7 "/>
   <path class="fil1" d="M64.64 553.6c-6.45,-18.93 -8.22,-37.92 -17.58,-48.14 6.14,31.68 22.27,99.88 40.77,126.99 6.96,10.2 5.93,9 10.25,18.72 0.83,1.88 3.32,7.09 4.27,8.63l2.67 4.11c2.78,3.52 3.35,3.49 5.78,5.59 -8.36,-32.76 -43.23,-71.46 -46.15,-115.91z"/>
   <path class="fil1" d="M416.26 981.73l5.7 0 -3.2 -54.98c8.4,12.68 10.98,29.66 13.7,46.26l2.11 -4.2c-0.76,-24.81 -7.87,-51.22 -24.93,-67.64l6.71 19.21c-0.54,-0.9 -1.23,-1.97 -1.67,-2.67l-9.21 -15.53c-7.15,6.14 -5.98,-2.85 -3.99,7.19 0.61,3.06 14.08,9.57 14.78,72.36z"/>
   <path class="fil1" d="M521.32 481.33c8.55,-11.67 12.5,-32.8 14.22,-47.14 2.25,-18.73 7.05,-45.38 -3.67,-62.04 0.53,19.21 2.29,41.77 -1.18,59.75 -2.74,14.22 -13.96,38.65 -9.37,49.44z"/>
   <path class="fil1" d="M52.2 403.02c0.18,0.17 16.86,29.96 18.54,32.69l56.85 88.67c-10.67,-27.23 -53.55,-97.33 -75.39,-121.36z"/>
   <path class="fil1" d="M60.56 244.95c53.55,0.52 46.02,2.45 88.78,20.69 -9.61,-18.98 -62.37,-34.69 -88.78,-20.69z"/>
   <path class="fil1" d="M95.91 383.01c17.13,21.23 40.87,65.25 53.48,96.9 -7.28,-35.25 -33.48,-76.87 -53.48,-96.9z"/>
   <path class="fil1" d="M670.49 424.71c10.38,0.47 19.95,-0.05 29.76,-1.22 13.72,-1.64 20.83,0.44 28.09,-7.23 -20.61,-0.56 -39.22,1.59 -57.85,8.44z"/>
   <path class="fil1" d="M74.61 194.02l57.15 -4.46c-4.97,-2 -45.21,-10.29 -57.15,4.46z"/>
   <path class="fil1" d="M211.63 681.62c-0.94,11.55 -0.25,2.83 3.12,6.69 9.13,-15.45 31.11,-24.85 37.18,-30.5 4.15,-3.87 2.61,-2.64 6.09,-6.81 -29.01,10.47 -21.99,10.1 -34.61,23.19 -1.03,1.07 -4.34,4.3 -5.02,4.75 -7.01,4.63 2.07,0.18 -6.75,2.68z"/>
   <path class="fil1" d="M246.27 433.04c14.4,-12.37 20.06,-10.69 35.81,-25.88 4.18,-4.03 7.5,-7.45 10.33,-11.8 -11.05,3.74 -4.84,1.47 -12.15,6.45 -1.93,1.32 -2.43,1.71 -6.06,3.85l-4.42 2.14c-0.55,0.38 -1.37,0.85 -1.87,1.25l-21.63 23.99z"/>
   <path class="fil1" d="M507.13 624.5c15.47,-5.8 43.25,-2.4 56.46,-6.92 -13.05,-5.83 -49.81,-3.36 -56.46,6.92z"/>
   <path class="fil1" d="M427.42 572.73c10.6,-12.43 8.2,-49.04 4.46,-57.96l-4.46 57.96z"/>
   <path class="fil1" d="M743.5 239.67c6.88,-3.23 8.57,-8.61 20.67,-14.82 7.34,-3.77 20.11,-6.5 24.38,-14.1l-32.38 12.56c-0.6,0.36 -5.37,3.1 -6.04,3.67 -5.97,5.09 -4.51,4.64 -6.62,12.69z"/>
   <path class="fil1" d="M65.1 312.29c11.6,9.34 25.18,16.67 37.43,24.54 14.81,9.52 22.4,17.72 31.86,31.01 -20.17,-20.73 -33.76,-45.44 -69.3,-55.55z"/>
   <path class="fil1" d="M595.48 460.37l4.11 -7.16 1.52 1.33c7,0.12 0.21,1.11 3.24,-5.51l-7.37 -1.17c-3.4,0.55 -6.49,-8.85 -6.19,4.01 0.3,12.92 -2.42,0.21 4.69,8.5z"/>
   <path class="fil1" d="M199.02 590.54c12.8,-8.21 8.18,-2.21 18.67,-15.15 -9.94,2.94 -13.64,8.49 -18.67,15.15z"/>
   <polygon class="fil1" points="566.33,981.73 572.28,981.73 568.63,975.94 "/>
   <path class="fil1" d="M600.72 864.07c6.27,-4.09 9.22,-6.84 13.93,-10.31 -0.98,0.52 -8.98,4.86 -9.02,4.88 -4.91,3.59 -2.33,2.15 -4.91,5.43z"/>
   <path class="fil2" d="M386.88 732.92c5.76,-17.93 1.8,-5.63 9.2,-11.01l-9.2 11.01zm25.44 -10.09l9.96 9.52c-12.79,1.73 -20.15,5.66 -31.44,12.99 18.71,-32.17 0.28,-21.27 17.28,-23.5 9.08,-14.23 19.23,-19.62 37.83,-26.63 15.48,-5.83 34.3,-14.23 49.28,-13.17l-39.4 23.01c-24.25,6.24 -25.67,9.26 -43.5,17.78zm115.86 -58.1c-6.58,3.87 -9.59,6.01 -16.29,11.15 -9.09,6.98 -6.88,7.53 -16.68,6.16 4.35,-10.96 -13.02,-2.99 11.27,-9.77 4.27,-1.19 11.81,-2.27 16.42,-3.12 -4.97,-5.46 7.46,-6.56 -8.24,-3.7 -35.73,8.29 -56.76,20.16 -84.88,29.47 4.13,-6.93 5.87,-11.15 9.36,-15.65 9,-11.61 1.82,-4.99 11.26,-9.06 7.49,-3.23 21.96,-6.17 31.78,-9.11 24.07,-7.2 42.3,-9.74 67.95,-11.02 -7.18,6.58 -11.93,11.42 -21.94,14.67zm-60.86 -20.64c7.92,-22.68 29,-28.09 56.79,-33.56 22.63,-4.46 57.04,-11.08 75.95,3.45 -6.23,7.46 -1.59,1.51 -8.13,7.21 -41.97,36.61 -30.94,22.8 -61.03,23.69 -28.97,0.85 -58.02,16.37 -80.67,24.37 5.86,-19.62 23.27,-24.79 46.65,-28.12 21.11,-3.01 47.96,0.96 66.63,-4.37 -34.96,-14.98 -77.63,3.96 -96.19,7.33zm45.38 -67l44.59 1.29c16.44,4.04 4.11,0.64 10.68,5.58 -25.46,-1.11 -39.49,-2.02 -62.83,4.29l7.56 -11.16zm13.66 -21.17c0.26,-0.46 3.25,-4.98 3.67,-5.53 0.22,-0.29 1.28,-0.55 1.45,-1.44 0.17,-0.89 1.02,-0.89 1.51,-1.35 7.67,-16.31 6.12,-5.22 21.06,-11.27l-11.82 -3.47c8.5,-13.84 -2.81,-4.7 12.7,-9.91 35.52,-11.91 102,-10.28 126.86,8.39l-47.51 54.66c-10.89,-8.68 -16.6,-13.23 -31.36,-17.65 -10.47,-3.13 -27.54,-7.18 -32.89,-5.07 24.32,11.32 43.86,12.18 57.31,29.42l-22.99 16.94c-36.58,-21.72 -82.9,-7.14 -117.72,7.54 21.44,-38.46 25.14,-23.19 82.59,-27.34 0.11,-0.55 0.12,-1.42 0.18,-1.67 0.07,-0.26 0.27,-1.45 0.35,-1.74l19.47 -2.66c-15.76,-16.66 -51.18,-15.87 -71.3,-13.36 3.96,-10.9 1.56,-5.07 8.43,-14.5zm-132.3 -46.65c48.53,-15.65 61.86,-41.75 82.67,-86.33 6.05,-12.97 15.87,-12.32 23.95,-20.98 4.85,-5.19 4.11,-6.29 10.16,-11.97 14.73,-13.81 25.09,-18 33.11,-27.71 9.88,-11.97 6.49,-10.79 23.45,-20.26 -0.65,21.78 -6.24,105.1 -17.93,124.38l-10.09 12.3c1.77,-10.61 5.44,-22.57 1.1,-31.82 -4.36,8.12 -3.36,22.87 -5.05,33.38 -4.24,26.46 -30.67,48.62 -45.1,75.5 2.71,-36.19 18.07,-53.39 12.9,-124.17 -1.82,29.06 -4.52,63.02 -10.43,93.24 -9.68,49.51 -9.38,42.13 -31.03,73.42 2.83,-21.49 10.41,-43.49 15.34,-66.16 4.88,-22.47 9.31,-47.63 13.18,-71.04 -0.33,-0.11 -0.92,0.06 -1.04,0.07 -0.13,0.02 -0.97,0.19 -1.13,0.2l-8.68 -25.82c-1.59,-5.4 -2.06,-4.28 -3.83,-6.87 0.12,8.12 -0.35,19.18 0.76,26.88 0.7,4.88 1.03,5.8 3.03,9.38 0.56,1.01 2.28,5.66 3.09,3.79 0.24,-0.55 1.23,1.27 1.8,1.94 -19.3,72.54 -13.6,118.26 -54.87,175.55 19.61,-76.32 41.97,-88.4 34.83,-178.62 -1.94,2.81 -1.75,-1.86 -4.2,9.37l-5.9 60.55c-4.58,37.64 -20.28,84.04 -34.11,118.85 -5.74,14.45 -5.06,13.04 -13.07,25.58l-10.72 18.37c-3.82,4.85 -2.27,2.4 -6.47,5.98 3.73,-15.1 32.87,-143.85 22.49,-162.05 -9.72,36.8 -7.48,70.3 -14.34,105.78 -3.17,16.41 -8.13,35.3 -11.19,49.73 -8.89,41.78 -11.18,28.41 -17.26,41.34 1.75,-33.16 12.25,-76.24 17.15,-110.6 6.07,-42.62 -6.67,-85.93 7.44,-121.21zm199.62 -205.68c7.01,-8.61 4.57,-4.53 11.58,-7.78 -3.07,28.34 -6.45,57.2 -10.28,85.09 -4.01,29.18 -10.34,29.68 -22.18,48.37l-10.35 14.14c5.67,-38.97 8.56,-66.61 8.71,-106.91l22.52 -32.9zm-9.06 -0.3c-3.17,4.17 -4.37,4.9 -6.75,7.03 -5.44,20.05 -10.16,11.26 -20.12,24.3 -17.34,22.73 -11.91,10.13 -23.87,20.96 -29.83,26.98 -64.63,58.42 -83.17,95.22 -14.74,29.25 -19.97,38.88 -46.82,46.65 5.12,-10.67 11.68,-20.68 21.16,-26.79l6.79 -12.95c9.93,-18.29 51.5,-72.82 66.42,-81.19 -14.14,-9.85 46.94,-45.73 57.88,-53.27 8.93,-6.16 14.57,-11.55 22.12,-15.38l-1.78 -2.81c-9.9,4.51 -16.25,8.52 -26.32,15.6l-27.83 16.79c4.2,-7.39 6.06,-11.02 9.74,-15.76 14.98,-19.29 74.45,-49.47 95.85,-56.4l-43.31 38.02zm19.72 145.75c-3.03,6.62 3.76,5.62 -3.24,5.51l-1.52 -1.33 51.7 -38c17.8,-13.34 118.43,-58.37 127.13,-60.76 -9.09,31.07 -34.56,92.83 -52.67,111.99 -41.44,-8.95 -131.39,-11.1 -148.84,22.68 22.8,-9.39 28.51,-17.86 62.51,-22.06 30.41,-3.76 55.13,1.06 84.48,3.02 -4.78,12.09 -10.9,19.21 -17.1,29.42 -7.76,12.78 -11.4,13.98 -17.76,26.49 -61.5,-22.11 -74.19,-19.82 -137.29,-6.89 25.62,-42.29 54.44,-13.88 117.09,-14.44 -24.6,-12.92 -73.46,-13.16 -101.8,-8.96 3.88,-10.84 17.28,-32.09 28.44,-35.32 -7.11,-8.29 -4.39,4.42 -4.69,-8.5 -0.3,-12.86 2.78,-3.45 6.19,-4.01 5.48,-12.28 22.32,-37.76 30.25,-50.07 12.73,-19.77 30.7,-36.24 48.4,-50.65 4.48,-3.65 5.89,-3.4 11.61,-7.77l50.51 -26.22c4.88,-1.74 9.79,-3.3 14.28,-4.96l12.81 -8.04c-50.1,8.56 -79.76,33.5 -115.52,64.29 6.28,-17.06 15.8,-28.85 27.97,-40.85 -4.46,-10.37 28.7,-54.88 36.69,-65.82l24.09 -30.4c13.83,-16.6 27.14,-33.48 43.27,-46.36 5.38,-4.29 4.54,-5.44 9.6,-9.15 9.06,-6.64 4.51,-2.97 13.16,-5.81l1.13 66.6c-24.93,1.11 -53.64,10.68 -72.22,24.89 -14.48,11.08 -11.23,4.27 -17.9,15.86 24.02,-16.12 51.83,-33.01 89.65,-37.3 -2.46,35.46 -8.19,59.15 -17.01,91.73 -5.58,20.6 -7.39,17.65 -26.09,25.69 -39.63,17.04 -99.88,44.04 -133.66,70.67l-23.65 24.84zm132.94 -232.25l-7.06 10.43c-0.37,-0.55 -1.65,1.2 -2.45,1.82 5.93,-18.47 1.78,-6.89 9.5,-12.25zm-125.98 74.98c13.73,-17.09 21.15,-13.64 35.84,-30.72 30.4,-35.33 20.38,-30.95 35.82,-59.87 2.2,-4.12 3.31,-4.95 4.86,-6.93 -5.72,49.39 -9.67,64.9 -33.18,102.86 -4.2,6.79 -4.61,8.9 -7.9,14.42l-8.89 12.19c-0.35,-0.62 -1.48,1.46 -1.28,2.32l3.81 -41.68c-16.75,29.68 -0.46,55.82 -35.09,92.94l6.01 -85.52zm-16.62 -44.07c-1.75,2.36 3.19,2.44 -8.75,6.64 1.55,-4.42 0.1,-2.43 2.61,-6.75 2.68,-4.62 2.44,-3.05 5.29,-5.8 17.17,-14.25 9.63,-24.91 79.05,-40.84 -6.93,23.75 -23.75,52.58 -38.63,60.81 -4.11,0.16 -11.31,-1.14 -21.62,3.39l-57.5 29.32c13.29,-22.74 29.77,-30.16 50.74,-46.04l18.18 -15.56c-11.94,5.15 -19.49,9.97 -29.37,14.82zm167.07 -55.94c-0.12,4.82 5.88,4.16 -0.88,4.16 0,4.82 0.88,3.52 -4.03,1.7 -8.61,7.63 -4.37,1.73 -8.12,11.85 -4.56,-3.66 -8.46,5.21 -2.34,-5.54l-7.06 -1.6c-1.79,-18.41 -0.38,-3.28 4.11,-7.91 12.38,-29.79 26.11,-51.08 56.09,-62.59l3.71 29.96 -41.47 29.97zm-32.99 -97.5c7.79,28.96 9.2,51.6 -9.66,75.42l0.49 -28.03c-9.09,15.69 -3.41,35.32 -10.52,53 -5.37,13.35 -13.27,30.46 -21.44,39.8 1.79,-15.57 16.73,-98.25 23.34,-113.6 2.79,-6.48 3.56,-9.63 7.06,-15.48 6.75,-11.29 7.41,-9.5 10.73,-11.09zm-103.38 113.18c8.57,-6.05 9.25,-13.83 16.58,-21.96l39.23 -43.58c7.64,-11.23 10.75,-10.25 18.36,-18.67 -2.22,12.47 -6.7,24.16 -10.41,35.7 -14.05,43.73 -5.93,32.32 -63.76,48.5zm135.64 -53.23c4.59,-19.64 21.7,-45.65 35.35,-53.42l3.64 26.58c-13.22,4.82 -30.29,19.98 -38.99,26.85zm-32.26 -59.96l22.11 -24.92c6.55,19 -1.5,38.08 -10.04,53.47l-12.07 -28.56zm53.76 17.73c-5.12,6.11 -3.98,4.27 -9.76,7.69 4.71,-23.17 9.54,-14.4 15.13,-33.91 4.41,-15.39 -0.23,-3.81 6.69,-10.45 0.58,18.7 4.4,16.25 -5.09,27.65 -3.42,4.11 -4.48,6.05 -6.97,9.02zm-387.51 608.34c10.36,-32.04 124.71,-187.29 158.3,-243.01l38.22 -60.92c5.03,-7.61 9.08,-12.97 12.72,-19.21 8.22,-14.08 16.76,-27.39 25.47,-41.49l70.74 -127.29c11.19,-21.22 80.26,-167.21 80.94,-181.27 -8.16,98.98 -123.52,289.44 -168.05,358.89 -37.08,57.84 -91.58,148.51 -131.29,200.95 -2.45,3.23 -81.88,116.27 -84.57,111.65 -0.4,-0.69 -1.68,1.11 -2.49,1.7zm364.05 -643.08c-1.69,-7.11 -8.98,-14.27 12.37,-28.41l-12.37 28.41zm-552.33 904.48l10.11 0c7.25,-12.2 12.37,-21.56 19.71,-32.25 7.33,-10.67 14.03,-20.87 21.26,-29.89l21.7 -29.4c6.63,-8.98 12.74,-16.47 20.64,-27.27 33.93,-46.43 49.38,-79.73 92.13,-106.24l80.55 -47.17c5.62,-3.38 9.44,-4.65 16.41,-9.14 38.69,-24.95 66.15,-39.48 103.35,-68.97 6.62,-5.25 8.3,-4.76 14.7,-10.92l64.46 -59.93 52.48 -72.13c58.57,-90.37 93.58,-193.45 88.65,-305.33 -0.95,-21.52 -12.67,-169.81 -16.87,-178.43 -20.19,0.2 0.31,5.09 -45.52,53.19 -18.41,19.32 -20.36,15.58 -26.98,23.95l-131.5 149.52c-3.24,4.1 -1.48,3.29 -5.12,7.83l-149.56 192.19c-38.97,52.04 -63.54,74.55 -58.37,138.33 3.37,41.58 -9.64,135.08 -19.69,175.81 -7.06,28.62 -25.38,58.41 -43.07,82.1l-91.73 125.52c-6.29,10.5 -13.02,18.89 -17.74,28.62z"/>
   <path class="fil2" d="M184.24 782.73c0.3,-19.49 -1.52,-18.35 5.13,-27.37 3.85,-5.22 10.71,-13.64 14.84,-17.36 17.07,-15.37 19.65,-22.49 37.64,-33.2 -8.34,24.15 -5.11,6.74 -17.75,21.1 -5.88,6.68 -6.74,11.02 -13.62,18.45 -5.21,5.63 -23.04,29.84 -26.24,38.38zm-7.33 70.86c0.53,-13.97 5.19,-26.28 10.93,-35.98 3.35,-5.66 6.98,-10.69 10.4,-15.12l5.69 -7.06c4.63,-7 1.58,-0.73 5.03,-10.21 -13.92,10.15 -20.57,17.92 -28.22,35.89 -0.7,-19.23 6.13,-34.25 16.61,-48.28l22.35 -25.5c4.67,-5.16 5.64,-9.67 10.37,-15.42 9.43,-11.47 12.26,-11.86 21.11,-27.37l-6.03 -8.02c11.1,-4.3 6.72,-4.99 18.81,-9.34 -8.22,21.41 -73.65,147.97 -87.04,166.42zm34.72 -171.96c9,-25.28 39.36,-50.79 78.37,-59.06 -5.37,13.9 -16.37,55.26 -28.47,61.28 -20.26,10.08 -7.66,-0.01 -30.06,17.7l-25.09 29.01c-18.5,25.2 -6.5,14.54 -20.22,20.55 1.32,-31.68 13.63,-29.69 25.67,-43.75 20.24,-23.63 42.47,-25.25 58.26,-44.03 -19.73,3.35 -32.65,15.95 -45.78,24.62 -26.51,17.5 -12.88,10.77 -26.56,27.49l-9.97 9.74c0.41,-18.75 -1.44,-14.9 7.69,-27.66 13.03,-18.19 8.59,-13.32 16.14,-15.88zm-17.44 -103.82c24.44,-12.56 56.28,-49.31 119.17,-61.6l-13.54 69.43c-8.33,3.97 -45.07,-0.69 -66.71,17.05l63.85 -7.7 -5.74 24.01c-56.46,3.88 -75.93,44.23 -101.37,78.62 2.19,-31.8 2.92,-36.59 22.99,-50.13 12.37,-8.34 34.66,-18.73 43.36,-29.05 -30.33,5.42 -62.28,41.09 -62.28,41.08 -0.41,-0.67 -1.74,1.21 -2.64,1.81l0.37 -19.6c10.13,-4.87 19.8,-13.95 31.44,-19.1 24.18,-10.69 27.65,-5.84 38.01,-16.6 -33.4,4.31 -49.34,17.5 -68.12,29.99 0.42,-25.57 1.26,-22.64 27.47,-47.71 13.69,-13.1 66.04,-35.16 80.61,-44.2 -11.27,-4.91 -46.92,14.84 -59.82,23.49 -34.49,23.14 -11.53,10.16 -39.7,37.03 -1.52,1.45 -4.6,4.65 -5.07,3.99 -0.55,-0.76 -2.05,1.34 -3.15,1.99l0.87 -32.81zm-129.55 -24.2c40.3,54.78 105.04,198.27 91.35,277.77 -8.75,-29.04 -13.21,-59.78 -23.03,-87.67 -18.1,-51.41 -47.6,-98.08 -71.58,-148.73l-28.19 -54.81c-10.84,-13.4 -5.25,8.32 -9.53,-14.21 1.48,24.02 6.66,43.39 14.84,63.75 6.43,16 21.95,42.01 24.69,52.4 -11.3,-27.83 -28.57,-56.56 -32.8,-90.3l13.11 19.91c19.29,43.23 41.89,78.55 65.49,126.42 17.32,35.12 44.83,125.44 46.63,167.05l-77.42 -168.86c-6.05,-9.71 -7,-12.8 -12.5,-22.74 -18.5,-33.45 -31.68,-56.13 -44.1,-96.25 -17.68,-57.12 -8.02,-70.11 -0.58,-124.27 24.07,13.75 50.72,50.96 65.94,75.11 3.92,6.22 5.67,9.17 10.18,15.42 37.93,52.55 64.7,132.69 60.74,203.49 -1.58,-2.25 -2.57,-2.84 -4.58,-7.76 -0.01,-0.03 -1.84,-7 -2.06,-7.88 -12.78,-51.83 -30.43,-94.87 -56.67,-140.87 -8.48,-14.85 -21.62,-29.55 -27.74,-43.66 -3.9,3.46 -4.94,-5.57 -2.19,6.66zm130.92 -2.94c-1.82,-16.64 -2.41,-11.28 5.62,-23.05 14.34,-20.99 23.35,-26.23 43.74,-42.83 10.71,-8.72 16.13,-15.64 33.62,-23.92 11.36,-5.38 27.43,-13.78 38.67,-17.05l-2.8 66.33c-36.86,2.86 -54.43,12.36 -81.46,30.04l-36.16 29.11c-0.43,-0.71 -1.74,1.12 -2.62,1.67 0.5,-16.52 -4.26,-11.16 15.42,-28.64 11.32,-10.06 53.38,-25.81 79.49,-40.68 -5.7,0.4 -41.37,14.64 -50.41,18.81 -39.26,18.14 -26.44,18.16 -43.12,30.21zm-165.68 -99.72c-5.03,-4.17 -2.32,-1.6 -5.99,-5.88l3.7 -12.27c8.56,5.29 11.42,15.39 22.18,23.78l36.08 37.61c21.75,30.11 46.24,69.96 58.66,104.5 12.95,36.01 19,31.88 13.01,80.6l-4.74 -10.33c-0.3,-1.12 -1.24,-8.51 -1.66,-10.84 -10.34,-57.01 -32.14,-93.96 -64.53,-139.28 -6.35,-8.89 -10.86,-15.44 -18.7,-26.08 -8.82,-11.97 -9.74,-14.64 -19.86,-24.63l-18.15 -17.15zm164.81 72.64c5.55,-62.96 43.43,-112.29 75.07,-160.6l22.52 -34.88c1.22,-1.99 2.38,-4.06 3.85,-5.9 3.03,-3.79 2.94,-2.95 5.81,-5.38 11.03,41.65 10.57,80.71 15.58,123.05 -16.97,2.17 -40.26,12.68 -54.13,22.19l-55.36 46.55c-3.36,4.03 -2.65,4.22 -5.22,7.41 -5.62,6.99 -2.03,3.07 -8.11,7.56zm-152.24 -228.62c-0.04,-60.27 14.63,-79.74 37.24,-121.91 2.13,-3.97 1.01,-3.18 4.74,-8.34 2.97,-4.12 2.77,-3.04 5.67,-5.94 44.3,3.92 61.78,17.52 61.01,59.47 -22.47,-15.45 -46.97,-20.33 -74.5,-5.66 18.79,-1.87 29.03,-10 53.32,-2.4 24.55,7.67 20.69,14.98 24.19,41.54 -12.4,-7.66 -6.73,-7.59 -20.55,-14.68 0.59,0.63 1.38,1.46 1.81,1.87l5.58 5.05c0.54,0.5 1.27,1.07 1.8,1.58 15.44,14.71 13.92,26.56 11.23,48.74 -11.06,-9.31 -5.44,-10.71 -18.42,-19.14 -26.05,-16.93 -67.63,-27.72 -86.93,-12.11 10.51,4.73 106.11,-15.51 106.92,66.18 -4.02,-8.56 -23.69,-27.89 -31.65,-32.78 -13.83,-8.5 -27.76,-15.1 -46.96,-17.08 18.81,8.01 28.72,8.04 43.57,20.3 49.74,41.07 38.43,54.26 37.84,147.32 -8.37,-9.83 -5.91,-10.1 -11.51,-20.59l-22.68 -34.63c-13.03,-16.88 -22.7,-33.79 -37.77,-48.36 -5.32,-5.14 -1.75,-3.33 -7.77,-7.97 -27.71,-21.33 -25.93,-7.58 -25.96,-7.56 29.79,9.29 46.12,34.97 63.4,59.49 6.16,8.74 11.21,15.12 16.57,25.01 8.37,15.45 24.81,41.23 26.04,58.14 1.33,18.49 1.38,66.13 -1.3,83.61 -7.08,-10.59 -16.23,-55.47 -44.6,-106.34l-30.95 -45.64c-15.67,-17.73 -20.72,-32.23 -37.38,-36.6 19.07,28.51 65.22,84.63 76.47,109.73 15.55,34.68 40.68,107.84 36.65,146.36 -8.5,-11.34 -11.66,-52.96 -53.2,-111.09l-54.77 -66.54c-6.8,-7.21 -12.68,-11.92 -19.02,-18.66 19.12,-95.8 11.92,-31.72 11.87,-130.36zm150.4 -57.99l2.65 18.61c6.94,-19.98 7.2,-57.11 16.59,-87.48 10.19,-32.95 6.75,-19.32 14.38,-25.53 4.41,9.55 9.51,16.94 16.56,28.29 4.76,7.66 11.33,19.15 15.94,24.57 -10.72,15.27 -50.17,37.06 -57.01,96.03 7.92,-16.01 12.31,-34.77 22.71,-50.39 23.39,-35.11 13.75,-13.58 32.98,-39.75 5.87,3.73 5.12,-2.35 13.66,17.98 2.55,6.07 4.86,12.16 7.21,18.52 5.47,14.73 9.42,25.45 13.44,40.62 6.04,22.77 12.01,24.08 -1.6,41.1 -9.5,11.87 -14.8,20.37 -22.46,31.75 -8.01,11.9 -13.45,19.77 -21.39,32.84 -39.86,65.6 -42.01,101.7 -51.42,113.93 -2.79,-69.46 -5.77,-72.75 14.96,-130.69 11.72,-32.75 14.1,-38.36 31.62,-61.24 11.81,-15.41 17.91,-19.42 19.6,-28.27 -56.18,50.72 -55.35,100.95 -65.87,116.78 -5.33,-37.17 14.75,-89.97 33.72,-117.05l28.14 -29.4c10.35,-7.95 10.34,-2.08 14.55,-14.31 -43.69,22.96 -55.29,63.34 -77.86,114.79l-3.4 -85.99c-2.83,-36.71 -2.57,-22.48 2.3,-25.73zm0 0l5.64 -76.89c-8.31,16.91 -4.76,38.64 -11.66,55.46 -6.59,-34.14 4.39,-69.65 18.13,-95.44 10.43,6.77 7.5,7.15 14.26,18.33 -22.48,43.21 -22.46,91.31 -26.36,98.53zm-101.39 -81.66c4.6,-10.05 7.87,-16.45 12.85,-24.84 5.59,-9.43 7.5,-12.41 10.08,-22.83 14.85,7.89 26.07,21.02 29.92,38.66 -17.53,-6.35 -17.07,-7.35 -38.16,-6.22l38.16 11.71 3.94 27.36c-7.82,-4.11 -2.13,-0.07 -7.6,-4.81 -13.64,-11.84 -12.87,-18.35 -49.2,-19.03zm29.27 -59.17c2.03,-6.12 2.47,-5.64 5.55,-10.55 11.72,14.74 15.76,11.74 14.75,39.5 -7.9,-6.97 -14.17,-9.1 -21.55,-16.01 -0.1,-0.88 -0.34,-2.03 -0.32,-2.65l0.14 -5.24c0.16,-0.99 1.11,-4.09 1.43,-5.06zm52.71 36.21c-12.16,-16.86 -3.34,-33.07 -2.38,-53.59 11.62,5.9 3.25,-1.49 10.9,9.95 6.59,9.87 14.32,15.36 20.66,27.37 -10.02,20.62 -13.25,40.73 -21.63,60.43 -6.48,-32.02 -0.01,-52.36 2.13,-83.11 -6.5,11.72 -6.3,24.06 -9.68,38.95zm9.43 510.84c-2.45,31.07 -2.96,64.13 -4.97,95.68 -1.83,28.73 -4.04,81.6 -11.26,94.6 -3.5,-60.49 1.33,-134.39 1.47,-196.71l-5.75 -386.52c-1.35,-60.75 -13.95,-118.02 -17.4,-176.33 43.13,94.06 40.53,259.66 40.53,368 0,64.85 2.41,137.24 -2.63,201.29zm-50.29 -577.65c0.26,-1.39 1.35,-1.37 2.3,-2.13l0.66 23.08c-16.58,-9.41 -4.19,-14.37 -2.96,-20.95zm29.55 -1.77c1.72,3.86 3.74,3.76 6.41,11.13l-3.92 25.51 -2.49 -36.64zm-5.55 5.61c-0.02,-0.04 -3.77,-3.58 -4.66,-9.19 -3.08,-19.45 -1.44,-2.03 3.64,-9.69l1.01 18.88zm-13.96 912.35l9.3 0c6.08,-52.6 16.23,-88.82 38.4,-132.62 59.57,-117.64 129.17,-218.62 134.66,-365.57 2.24,-59.81 -1.21,-99 -11.64,-156.76 -11.62,-64.38 -37.77,-127.87 -74.34,-177.7 -6.03,-8.21 -10.52,-14.16 -17.63,-23.84l-72.21 -93.85c-7.74,-10 -6.47,-17.99 -20.74,-21.31 -4.02,27.02 -0.34,39.28 -11.24,68.76 -6.5,17.58 -16.81,41.63 -24.98,55.25 -89.83,149.73 -46.17,140.81 -61.33,250.3 -6.28,45.39 -25.22,80.16 -27.88,130.97 -3.18,60.88 26.19,107.27 48.81,150.3 4.77,9.07 8.7,16.95 13.46,24.97 39.18,66.09 42.43,87.36 74.44,158.7 24.5,54.63 14.19,73.44 2.93,132.39z"/>
   <path class="fil2" d="M559.74 917.9l-9.47 12.31c1.11,-1.99 3.37,-6.95 4.08,-7.91 5.54,-7.5 0.01,-0.98 5.4,-4.41zm0 0c1.76,-13.87 10.24,-22.35 18.38,-29.54 10.57,-9.34 17.58,-15.74 22.6,-24.3 -6.25,4.53 -1.08,1.68 -6.25,5.29 -9.59,6.7 0.17,1.21 -11,5.47 6.13,-20.55 10.42,-18.39 21.13,-30.22 1.33,-1.48 4.5,-5.76 5.76,-6.91 4.35,-3.98 9.36,-6.29 16.9,-12.06 8.02,-6.14 9.87,-7.64 19.24,-12.05l0.28 32.72c-24.14,7.96 -49.43,36.17 -66.13,54.28 -23.32,25.28 -9.72,14.9 -20.93,17.32zm-60.68 -62.9l-1.92 -0.48c32.41,33.36 35.12,65.45 -1.25,101.32 -3.82,-29.23 -6.86,-48.37 -19.47,-69.92 -10.35,-17.69 -34.67,-32.8 -43.41,-41.43 6.25,-12.35 9.97,-10.3 19.71,-17.73 15.35,-11.71 63.55,-39.58 71.8,-38.29 11.69,7.1 21.46,17.47 26.44,36.38 6.2,23.5 6.49,33.46 -7.28,51.11 -15.1,-17.57 -6.08,-22.36 -28.02,-35.4 -15,-8.91 -21.25,-13.42 -39.74,-17 12.17,7.69 28.47,12.41 41.03,22 11.05,8.45 19,20.56 22.18,40.33l-12.56 17.95c-2.97,-25.57 -17.36,-34.48 -27.51,-48.86zm103.55 -17.99c5.89,-15.2 17.39,-31.77 28.16,-42.8l12.83 -9.09 1.46 24.12 -20.45 13.81c-8.16,5.48 -11.99,7.75 -22,13.97zm13.29 -32.62c3.4,-13.74 14.62,-26.28 25.38,-31.78 -3.25,10.96 -16.44,26.81 -25.38,31.78zm-85.34 -16.45c4.45,-4.67 -0.61,-1.4 8.19,-6.51 2.51,-1.46 5.22,-2.29 8.49,-4.09l48.08 -23.7c1.77,9.51 4.27,14.67 0.91,24.8 -0.32,0.98 -4.59,9.58 -5.24,10.62 -6.85,10.98 -2.23,3.61 -6.33,7.87l-7.93 -21.78 -0.99 34.75c-15.24,-22.11 4.86,-6.43 -27.1,-27.72 4.3,6.41 10.72,8.96 16,15.71 16.24,20.72 9.48,22.56 -1.02,48.7 -14.44,-19.5 2.06,-27.89 -33.05,-58.65zm110.08 -30.98c-2.02,19.53 5.48,6.49 -8.28,12.03l8.28 -12.03zm-44.72 -10.09c10.35,-4.55 11.1,-4.71 22.2,-11.96l-16.19 29.08 -6.02 -17.12zm-292.02 234.86l21.9 0c0.42,-13.06 -1.13,-10.64 14.16,-21.84 21.83,-15.99 37.51,-39.11 51.33,-60.17 6.16,-9.38 13.32,-18.32 18.26,-25.71 3.03,3.04 6.36,5.46 9.59,8.67 21.57,21.35 29.89,67.67 29.1,99.06l5.03 0c0.2,-32.95 -0.86,-64.22 -21.63,-92.48 -6.34,-8.63 -13.78,-14.63 -18.28,-22.37l15.31 -16.05c23.95,10.53 37.12,22.79 48.66,47.24 8.7,18.43 21.65,61.45 5.68,77.26 1.05,-41.13 -16.18,-72.24 -37.49,-88.48l0.18 2.03c9.11,8.23 18.05,22.97 24.78,38.57 9.24,21.43 5.59,36.04 9.41,54.27l11.61 0c9.32,-20.44 24.82,-38.27 37.31,-59.31l98.76 -182.41c-11.6,47.82 -35.01,85.49 -55.24,129.51 -17.96,39.08 -32.13,54.39 -49.75,84.52 -3.98,6.8 -4.38,7.81 -8.5,13.96 -2.56,3.83 -5.81,8.35 -7.81,13.73l10.29 0c12.18,-24.02 41.22,-55.01 60.54,-71.87 8.5,-7.41 10.39,-17.29 30.77,-33.36 13.21,-10.41 18.2,-17.54 36.69,-24.35 -1.88,15.32 -1.46,7.53 -12.21,16.99 -36.99,32.59 -52.65,81.89 -91.58,100.34 -7.68,3.64 -13.21,5.57 -17.42,12.24l15.34 0c22.74,-22.37 24.78,-8.59 64.41,-65.03l15.43 -19.72c9.14,-11.98 10.56,-10.04 15.44,-12.52 -9.8,27.85 -23.99,63.16 -37.77,85.57 -0.57,7.79 0.09,6.27 -3.8,11.69l8.36 0c11.37,-33.32 45.72,-83.91 53.04,-124.45l-6.54 -167.57c-14.73,-0.51 -11.69,9.94 -19.17,18.61l-18.01 20.28c-21.59,20.57 -134.49,72.51 -154.09,85.74 -10.08,6.8 -14.33,11.52 -23.66,17.84 -14.34,9.72 -41.16,49.36 -52.3,65.58l-76.13 83.97z"/>
   <path class="fil2" d="M540.32 547.28l1.11 3.15c47.47,-10.34 73.09,0.35 118.07,-1.41 -0.73,-0.62 -1.75,-2.63 -2.17,-1.91l-9.34 -4.64c-40.92,-12.39 -69.12,-3.5 -107.68,4.82z"/>
   <path class="fil2" d="M53.86 294.96c12.68,8.08 40.97,6.67 79.75,49.09 6.67,7.3 8.95,15.22 18.92,19.44 -10.27,-20.92 -17.43,-24.25 -27.44,-36.39 -10.57,-12.81 -53.27,-41.83 -71.22,-32.14z"/>
   <path class="fil2" d="M664.88 384.59c15.25,-9.66 29.07,-17.49 48.68,-25.52 16.99,-6.95 42.6,-9.04 56.8,-16.19 -35.38,-9.98 -88.86,28.44 -105.47,41.71z"/>
   <path class="fil2" d="M629.91 448.05l79.52 -3.33c-15.67,-12.26 -63,-6 -79.52,3.33z"/>
   <path class="fil2" d="M219.81 402.34c7.79,-11.62 19.71,-44.85 48.21,-73.19 9.79,-9.74 14.05,-10.46 20.76,-19.95 -24.07,10.07 -29.7,21.2 -44.03,41.31 -8.15,11.43 -21.29,37.33 -24.93,51.83z"/>
   <path class="fil2" d="M677.29 323.58c38.29,-19.79 28.73,-38.58 102.08,-48.59 11.59,-1.58 9.28,-0.07 15.62,-6.58 -44.78,-1.48 -108.85,40.63 -117.7,55.16z"/>
   <path class="fil2" d="M371.02 981.73l8.55 0c-0.73,-13.25 -0.14,-39.29 -9.46,-49.11l0.91 49.11z"/>
   <path class="fil2" d="M223.18 472.79c10.96,-6.97 21.38,-16.48 33.6,-23.95 6.99,-4.27 28.83,-14.91 32.56,-20.92 -41.06,12.09 -54.75,37.05 -66.16,44.87z"/>
   <path class="fil2" d="M454.69 842.52c24.77,11.07 24.02,16.63 34.93,27.09 11,10.54 17.05,25.41 25.6,39.07 -2.51,-11.12 -3.04,-14.39 -8.98,-23.8 -10.2,-16.16 -30.95,-36.7 -51.55,-42.35z"/>
   <path class="fil2" d="M210.5 235.34l24.34 -45.54c-14.01,11.45 -20.99,20.57 -24.34,45.54z"/>
   <path class="fil2" d="M494.69 809.6c21.4,4.14 31.56,18.59 48.71,28.64 -5.49,-6.93 -14.1,-12.88 -22.47,-19.05 -4.56,-3.36 -8.06,-6.41 -10.99,-8.21 -17.73,-10.87 -13.73,-2.15 -15.24,-1.38z"/>
  </g>
 </g>
</svg>
