<?xml version="1.0" encoding="UTF-8"?>
<!DOCTYPE svg PUBLIC "-//W3C//DTD SVG 1.1//EN" "http://www.w3.org/Graphics/SVG/1.1/DTD/svg11.dtd">
<!-- Creator: CorelDRAW 2020 (64-Bit) -->
<svg xmlns="http://www.w3.org/2000/svg" xml:space="preserve" width="10.0715mm" height="11.9269mm" version="1.1" style="shape-rendering:geometricPrecision; text-rendering:geometricPrecision; image-rendering:optimizeQuality; fill-rule:evenodd; clip-rule:evenodd"
viewBox="0 0 101.23 119.88"
 xmlns:xlink="http://www.w3.org/1999/xlink"
 xmlns:xodm="http://www.corel.com/coreldraw/odm/2003">
 <defs>
  <style type="text/css">
   <![CDATA[
    .str0 {stroke:black;stroke-width:2.01;stroke-miterlimit:22.9256}
    .fil0 {fill:black}
    .fil2 {fill:#F3F3F5}
    .fil1 {fill:white}
   ]]>
  </style>
 </defs>
 <g id="Contenido_x0020_de_x0020_PowerClip">
  <metadata id="CorelCorpID_0Corel-Layer"/>
  <path class="fil0 str0" d="M42.7 92.62l-33.18 21.47c-3.71,2.93 -2.31,4.39 -8.52,4.73l0 -5.4c8.28,-9.78 3.64,-47.74 0,-53.64l0 -45.05c0.6,-0.83 0.94,-0.89 1.79,-2.75 0.44,-0.97 0.82,-2.38 1.17,-3.54 0.65,-2.19 1.44,-4.73 2.39,-7.44l3.33 0 15.97 0 6.29 0 10.84 0 3.8 0 9.71 0 4.05 0 4.02 0 9.1 0 10.9 0 2.79 0 7.39 0 4.14 0 0.43 0 -0.71 0.84c-3.73,10.95 -11.25,25.91 -16.33,36.16 -5.16,10.38 -23.33,43.97 -31.34,49.83 -2.31,1.69 -5.81,3.43 -8,4.79z"/>
  <g id="_2127686663856">
   <path class="fil1" d="M73.76 47.22c0.95,-0.55 1.16,0.32 2.91,-2.56 0.85,-1.4 1.21,-2.68 1.63,-4.06 1.11,-3.57 1.53,-4.95 3,-8.8 -4.87,5.79 -8.57,12.83 -13.47,18.92 4.02,-2.7 1.07,-2.47 5.93,-3.5z"/>
   <path class="fil1" d="M33.74 41.09l-3.56 -0.79 -21.07 -1.9c5.93,2.1 17.64,5.97 24.62,2.69z"/>
   <path class="fil1" d="M31.94 1.69l-6.29 0 -10.25 3.18c4.31,0.99 4.33,0.64 8.44,-0.25 4.51,-0.96 4.94,-0.67 8.1,-2.93z"/>
   <path class="fil2" d="M14.5 107.41c2.61,-5.93 0.26,-1.71 3.86,-4.26 -2.13,6.24 2.55,2.67 -3.86,4.26zm-3.09 -2.3c1.82,-7.25 -0.35,-1.65 3.42,-4.53l-3.42 4.53zm13.18 -4.63l-4.94 3.41 2.94 -7.13 2 3.72zm4.61 -2.78c1.08,-6.98 3.58,-17.74 7.64,-23.74l0.75 19.9 -8.38 3.83zm-14.75 -6.37c-1.39,3.91 -2.69,6.64 -5.67,9.48l0.17 -8.83 5.5 -0.64zm10.15 9.15c0.6,-2.56 1.37,-5.22 2.01,-8.2 1.11,-5.18 -0.05,-4.01 3.75,-7 -0.41,3.81 -1.16,5.19 -1.91,8.82 -0.82,3.96 0.55,5.94 -3.85,6.39zm-17.77 -35.84c9.59,2.77 16.45,-1.28 24,-3.87l-6.46 11.36 -15.56 -1.4c4.92,1.97 7.95,3.34 15.05,2.43 -2.23,3.67 -1.01,2.23 -6.06,4.82 -1.93,0.99 -3.68,1.96 -4.99,2.86l8.47 -2.11c-2.63,9.55 -6.59,10.7 -12.71,11.6 -0.14,-5.07 -0.55,-9.1 -1.18,-14.09 -0.43,-3.44 -1.94,-8.47 -0.56,-11.6zm36.9 4.86c4.58,-8.64 1.1,-17.36 8.09,-23.26 -3.03,17.3 -4.73,22.36 -3.79,40.83 -3.96,1.86 -4.96,3.28 -9.83,5.07 0.39,-5.7 0.13,-11.88 0.68,-17.43 0.59,-5.96 1.6,-10.07 5.39,-13.45l-0.55 8.25zm6.1 14.28c-4.48,-12.49 7.5,-55.08 12.45,-65.83 -0.75,16.93 3.03,18 -3.33,35.72 -4.68,13.06 -3.64,12.91 -5.96,24.15 -0.86,4.17 -1.03,4.26 -3.16,5.96zm-19.63 -43.49l3.56 0.79 7.02 -1.8c-1.07,4.35 -1.07,6.94 -5.42,8.48 -10.82,3.82 -21.14,-1.89 -29.13,-7.04 5.24,7.39 18.3,11.08 30.14,8.18 -1.03,2.51 -2.45,6.68 -4.23,8.33 -7.32,6.78 -17.68,6.96 -26.66,6.3l-1.79 -12.92c7.78,3.75 11.9,5.36 20.46,7.38l-16.46 -7.17c-0.45,-0.17 -2.05,-0.53 -2.07,-0.53l-2.66 1.25 -0.01 -28.45c10.71,3.36 13.97,6.53 27.13,4.12 7.43,-1.36 15.4,-5.13 19.36,-8.64 -0.39,3.49 -3.74,11.01 -5.4,14.37 -2.88,5.82 -7.3,7.01 -13.83,7.36zm-29.18 -24.88l0 45.05c3.64,5.9 8.28,43.86 0,53.64l0 5.4c6.21,-0.33 4.81,-1.8 8.52,-4.73l33.18 -21.47c2.19,-1.36 5.69,-3.11 8,-4.79 8.01,-5.86 26.18,-39.45 31.34,-49.83 5.22,-10.51 13,-25.98 16.61,-37l-4.14 0c-6.02,12.85 -23.2,22.99 -24.52,27.07l20.06 -16.25c-1.4,6.82 -5.52,14.22 -8.75,19.29 -1.47,3.85 -1.89,5.24 -3,8.8 -0.43,1.38 -0.79,2.66 -1.63,4.06 -1.74,2.87 -1.96,2.01 -2.91,2.56 -4.16,10.38 -10.83,20.17 -16.94,27.86 0.98,-13.99 7.55,-22.84 9.47,-35.96 2.62,-17.93 -3.29,-20.24 7.15,-37.43l-9.1 0c-4.94,18.3 -24,59.35 -34.47,76.46l-12.73 19.9c-2.06,2.34 0.28,0.19 -2.73,2.08 3.27,-9.45 7.85,-15.76 12.59,-24.67 9.19,-17.29 28.83,-57.23 33.32,-73.77l-4.05 0 -2.12 6.61c-5.72,3.49 -9.49,6.62 -17.22,8.57 -9.42,2.37 -13.83,1.32 -22.9,0.22 17.2,5.92 23.82,1.57 37.76,-4.6 -3.1,5.33 -4.65,5.75 -9.73,8.26 -9.77,4.82 -22.23,6.83 -32.62,2.85 -1.1,-0.42 -2.14,-0.88 -3.18,-1.5 -4.18,-2.49 0.12,0.15 -2.42,-1.82l1.41 -7.94c17.27,2.53 31.02,-0.29 41.32,-10.65l-3.8 0c-5.84,8.08 -24.72,10.63 -36.3,9.16l3.21 -9.16 -3.33 0c-0.95,2.71 -1.73,5.25 -2.39,7.44 -0.35,1.16 -0.73,2.57 -1.17,3.54 -0.85,1.86 -1.19,1.92 -1.79,2.75z"/>
   <path class="fil2" d="M39.07 33.87c-10.62,3.22 -23.44,0.7 -32.02,-3.54 5.9,4.42 27.16,11.09 32.02,3.54z"/>
   <path class="fil2" d="M71.07 36.96c3.27,-1.87 3.75,-2.98 6.38,-5.36 2.17,-1.97 3.42,-3.17 4.07,-5.82 -4.08,1.52 -9.19,6.51 -10.45,11.18z"/>
   <path class="fil2" d="M68.84 21.45c4.09,-1.35 4.74,-2.09 8.06,-4.3 3.44,-2.29 4.97,-1.63 6.16,-5.9 -2.22,0.85 -13.02,8.37 -14.22,10.2z"/>
   <path class="fil2" d="M87.12 1.69l-2.79 0c-3.34,3.84 -1.55,2.65 -5.91,5.51 -1.83,1.2 -5.22,3.25 -6.45,4.36 6.51,-2.81 10.87,-5.57 15.15,-9.87z"/>
  </g>
 </g>
</svg>
