<?xml version="1.0" encoding="UTF-8"?>
<!DOCTYPE svg PUBLIC "-//W3C//DTD SVG 1.1//EN" "http://www.w3.org/Graphics/SVG/1.1/DTD/svg11.dtd">
<!-- Creator: CorelDRAW 2020 (64-Bit) -->
<svg xmlns="http://www.w3.org/2000/svg" xml:space="preserve" width="21.3823mm" height="17.3498mm" version="1.1" style="shape-rendering:geometricPrecision; text-rendering:geometricPrecision; image-rendering:optimizeQuality; fill-rule:evenodd; clip-rule:evenodd"
viewBox="0 0 1171.85 950.85"
 xmlns:xlink="http://www.w3.org/1999/xlink"
 xmlns:xodm="http://www.corel.com/coreldraw/odm/2003">
 <defs>
  <style type="text/css">
   <![CDATA[
    .str0 {stroke:black;stroke-width:10.96;stroke-miterlimit:22.9256}
    .fil0 {fill:black}
    .fil2 {fill:#F3F3F5}
    .fil1 {fill:white}
   ]]>
  </style>
 </defs>
 <g id="Contenido_x0020_de_x0020_PowerClip">
  <metadata id="CorelCorpID_0Corel-Layer"/>
  <path class="fil0 str0" d="M1158.87 9.24c-4.5,216.57 -90.78,462.43 -207.31,614.36l-223.95 231.77c-44.12,37.5 -70.86,81.11 -101.38,88.61 -1.08,-14.28 9.18,-58.84 1.44,-158.94 -4.14,-53.6 -7.7,-109.64 -8.52,-163.08l-64.84 34.17c-60.36,29.33 -152.54,54.23 -218.46,66.19 -41.01,7.44 -311.4,52.38 -330.23,49.78 -3.03,-45.49 49.71,-18.88 99.32,-191.63 33.1,-115.29 49.02,-254.42 141.57,-338.81 19.78,-18.03 34.02,-46.38 52.52,-62.06 20.6,-17.45 20.61,-11.87 36.01,-33.56 34.83,-49.02 67.86,-75.83 88.26,-136.03l0 -4.54 736.84 0 -3.15 3.76 1.92 0z"/>
  <g id="_2127934781872">
   <path class="fil1" d="M389.18 551.21c38.01,-40.46 6.1,-17.65 -0.25,-24.96l0.25 24.96z"/>
   <path class="fil1" d="M161.26 670.18c-34.25,14.13 12.99,-13.68 -9.94,4.58 -7.29,5.81 -6.28,5.24 -11.3,11.3 36.3,-9.52 12.53,-2.95 21.23,-15.88z"/>
   <path class="fil1" d="M400.98 530.48c22.27,-13.38 8.86,4.74 22.89,-22.71 -9.35,9.08 -13.81,10.31 -22.89,22.71z"/>
   <path class="fil1" d="M355.27 566.5c-21.08,51.14 -58.93,61.1 -41.51,97.34 4.53,-23.73 21.32,-52.45 45.29,-64.61 13.39,-9.57 0.06,6.02 10.74,-10.42 0.89,-1.38 5.08,-10.68 5.97,-12.31 5.69,-10.47 7.95,-12.64 13.41,-25.28 -17.77,-5.14 -8.79,-1.93 -32.56,0.38 -7.65,9.16 -1.05,3.32 -1.35,14.9z"/>
   <polygon class="fil1" points="170.12,400.78 189.93,400.72 189.85,402.17 182.27,374.53 "/>
   <path class="fil1" d="M977.25 249.54l14.07 5.55c9.08,3.16 7.25,5.44 7.61,-3.45 -1.87,-1.29 -4.75,-5.38 -5.69,-3.74 -0.82,1.42 -3.91,-2.56 -4.95,-3.26 -1.1,-0.75 -5.19,-3.44 -6.88,-4.7 8.25,17.77 2.51,4.38 -4.17,9.6z"/>
   <path class="fil1" d="M431.36 105.2c97,-17.79 168.6,-34.13 263.07,-63.65 -23.4,-2.14 -238.57,50.07 -263.07,63.65z"/>
   <path class="fil1" d="M226.45 657.25c-0.64,1.65 -1.06,2.41 -1.33,5.14 -0.26,2.82 -1.07,4.06 -1.41,5.31 -0.35,1.28 -0.8,3.71 -1.51,5.46 12.54,-6.51 21.95,-11.4 30.05,-17.5 0.84,-0.64 9.69,-8.71 9.93,-8.82 28.52,-13.42 6.19,-4.05 12.39,2.37l3.41 0.76c19.44,-11.16 34.46,-42.58 45.32,-60.35 -4.88,3.65 -8.29,6.17 -13,10.25 -1.04,0.9 -2.55,2.39 -3.67,3.35l-29.04 22.02c-50.11,34.18 -42.41,-18.06 -51.16,32.01z"/>
   <path class="fil1" d="M218.76 330.2c21.82,19.24 -10.68,23.03 58.79,66.23 22.66,14.08 58.84,28.61 96.34,32.38 -35.16,-28.6 -22.33,-4.14 -92.73,-42.88 -42.78,-23.54 -36.74,-29.98 -62.4,-55.73z"/>
   <path class="fil1" d="M467.17 194.02c104.89,-4.55 155.35,-44.74 210.67,-65.26 -32.59,10.98 -64.76,22.55 -100.9,35.41 -33.03,11.76 -83.15,18.07 -109.77,29.84z"/>
   <path class="fil1" d="M749.92 331.12c-4.2,39.46 -0.2,75.22 12.2,112.05 10.8,-21.54 -1.47,-81.76 -12.2,-112.05z"/>
   <path class="fil1" d="M397.55 661.57c13.25,-16.3 6.31,-31.64 14.25,-54.6 6.48,-18.74 14.57,-27.07 19.57,-45.44 -26.25,21.54 -40.48,53.47 -33.82,100.04z"/>
   <polygon class="fil1" points="1070.75,12.96 1057.83,12.96 1065.13,29.31 "/>
   <path class="fil2" d="M694.95 860.48c4.03,-10.58 5.15,-20.09 10.08,-29.82 14.77,-29.11 1.42,-5.47 20.21,-19.3 3.35,-28.09 -1.1,-24.06 15.33,-42.18l-0.95 57.93c-16.99,11.73 -25.42,24.24 -44.68,33.38zm-42.74 -20.78c0.36,-26.62 -4.78,-17.42 8.53,-34.01 4.54,7.97 11.96,-15.69 3.47,14.66 -8.43,30.14 2.21,12.11 -12,19.35zm94.82 -29.26c-3.18,-54.55 0.5,-94.1 26.5,-137.73l22.4 102.52 -48.91 35.21zm-535.39 -139.17c-4.84,18.87 5.23,3.64 -11.3,21.89 -17.01,18.79 -11.1,1.28 -35.75,41.33l-60.3 7.04c8.77,-15.44 9.09,-18.42 25.51,-25.18 13.02,-5.36 14.09,-2.37 21.16,0.18l3.81 1.25c12.33,-17.69 25.02,-41.6 56.85,-46.5zm-50.38 -1.1c-8.7,12.92 15.07,6.36 -21.23,15.88 5.02,-6.06 4,-5.49 11.3,-11.3 22.93,-18.26 -24.31,9.56 9.94,-4.58zm-33.87 -8.91c-17.68,25.58 -25.29,25.62 -50.28,39.47l15.14 -34.96 35.15 -4.51zm-11.63 -41.77l60.27 4.92c-22.56,21.91 -34.52,27.21 -77.51,31.34l17.24 -36.26zm524.91 21.83c-1.85,-24.21 1.16,-26.76 17.6,-37.68 -4.95,21.11 -4.57,22.95 -17.6,37.68zm-281.62 -42.11c-22.66,32.85 -38.13,71.54 -54.77,115.11l-59.15 9.7c9.83,-32.83 27.07,-48.06 32.86,-74.07l-3.41 -0.76c-15.2,22.86 -22.24,47.82 -37.77,74.44l-60.12 8.89c10.99,-32.04 1.68,-9.06 35.87,-46.68l9.65 -12.7 -10.56 -1.89c5.1,-7.8 -11.1,0.05 14.81,-14.02 8.75,-50.07 1.05,2.18 51.16,-32.01l29.04 -22.02c1.11,-0.96 2.63,-2.46 3.67,-3.35 4.71,-4.08 8.12,-6.6 13,-10.25 8.05,-4.4 19.05,-13.34 31.96,-23.12 0.3,-11.59 -6.3,-5.74 1.35,-14.9 23.77,-2.31 14.79,-5.52 32.56,-0.38 -5.46,12.64 -7.72,14.81 -13.41,25.28 -0.89,1.63 -5.08,10.93 -5.97,12.31 -10.68,16.45 2.65,0.85 -10.74,10.42zm333.65 41.36l40.07 -41.88c-10.53,60.54 -29.12,92.03 -63.02,125.71l30.64 -19.35c-15.56,65.23 -15.64,81.09 -45.99,90.05 -31.42,-72.46 20.74,-202.16 38.51,-217.92 12.79,-11.36 44.02,-32.29 55.8,-36.64 -6.71,38.77 -27.3,37.44 -56,100.02zm-303.52 -89.37l-0.25 -24.96c6.35,7.31 38.26,-15.49 0.25,24.96zm-248.18 -40.05c46.88,23.19 57.96,41.82 130.09,32.38l-22.19 21.46c-13.4,11.59 -4.32,6.86 -18.22,17.35 -40.18,-7.45 -50.71,-15.21 -74.83,-35.4 14.96,25.08 32.04,28.05 59.92,47.35 -26.87,23.44 -60.22,19.18 -101.21,21.74l26.44 -104.87zm542.78 314.21c10.68,-51.99 36.84,-123.69 52.56,-172.26 18.79,-58.06 25.73,-132 62.56,-151.12 -5.94,58.85 -70.64,258.46 -101.39,307.25 -9.63,15.29 -5.27,8.08 -13.73,16.13zm-282.81 -294.89c9.08,-12.39 13.54,-13.63 22.89,-22.71 -14.03,27.44 -0.62,9.33 -22.89,22.71zm527.37 -155.48c10.41,259.12 83.11,159.79 -23.54,280.89 -12.1,13.74 -2.86,10.74 -22.28,23.9 -24.05,-31.39 -45.97,-154.95 -45.49,-201.32 -21.96,40.22 31.76,179.33 40.71,215.31 -14.3,11.08 -24.36,23 -38,36.78 -24.15,24.42 -16.91,21.95 -41.98,32.33 -4.71,-61.53 -32.87,-115.46 4.31,-171.62l9.69 67.58c-1.56,-44.18 1.39,-88.47 3.29,-132.77 3.14,-73.03 49.95,-86.43 50.92,-89.22 0.93,-2.66 3.74,-1.8 5.61,-2.71 -10.83,57.62 17.48,134.36 56.67,150.46 -65.05,-88.61 -34.24,-101.22 -54.95,-162.55l55.04 -47.08zm101.69 80.72c-4.61,24.36 -13.71,40.34 -25.11,59.6 -20.24,34.2 -14.67,36.36 -36.95,52.01 -6.94,-67.43 -33.12,-110.66 -29.81,-189.17l-9.82 -3.16c10.48,-36.54 20.71,-12.96 34.4,-55.36 23.44,24.69 9.74,25.9 22.82,72.58 6.07,21.69 20.56,46.72 27.39,60.05l17.09 3.45zm-13.9 -196.72c11.13,-34.57 0.68,-8.4 14.5,-21.04 6.36,42.15 47.74,85.5 45.72,108.68 -2.42,27.72 -32.03,92.33 -46.32,109.08 -16.58,-38.65 -26.24,-64.47 -38.67,-108.63 -8.98,-31.88 -23.17,-44.58 24.77,-88.08zm-826.29 143.16l0.08 -1.44c9.76,75.36 114.52,93.71 132,108.89 -28.92,14.73 -40.66,29.83 -92.31,26.47 -31.79,-2.07 -59.69,-16.72 -80.74,-30.26 0.27,-40.54 20.35,-67.38 21.24,-105.04l12.15 -26.25c11.68,-19.35 20.01,-45.66 30.36,-61.77l42.58 -53.67c1.49,0.75 3.5,1.77 4.43,2.31l23.65 14.64c8.96,4.87 16.72,8.07 25.91,11.75 20.99,8.39 41.6,13.58 64.61,17.38 21.75,3.6 56.09,7.42 77.83,6.97 15.36,-0.31 28.98,-2.9 44.16,-3.89l27.04 4.18c-13.73,14.35 -20.78,26.62 -42.33,33.27 -64.19,19.81 -136.83,-2.65 -186.63,-34.61 43.39,39.38 95.07,60.34 173.71,48.62l-19.61 28.71c-43.91,-1.27 -93.54,-7.94 -130.51,-25.19 -93.63,-43.71 -50.11,-56.27 -85.5,-64.82 17.91,62.68 122.16,97.08 197.29,97.35 -41.56,93.8 -146.44,50.07 -204.43,4.97 42.19,28.16 64.08,59.79 139.78,58.17l-33.38 32.26c-33.81,-0.07 -69.55,-9.82 -89.67,-27.47l-28.11 -28.65c-8.48,-8.01 -15.27,-20.88 -23.61,-32.88zm369.5 167.75c13.02,-29.73 11.84,-90.26 22.27,-128.92l66.92 -154.82c19.34,-24.59 88.3,-99.02 116.5,-111.48 -40.23,123.85 -61.53,81.49 -100.3,311.5 -19.76,117.23 6.64,84.69 -70.36,132.17 -40.28,24.83 -91.16,49.5 -144.14,61.1 0.87,-119.71 10.58,-115.36 42.69,-210.49 -54.53,74.25 -48.95,118.28 -48.45,215.29l-127.96 27.8c20.59,-79.41 67.66,-126.26 103.34,-179.38l112.29 -134.52c16.61,-14.15 6.03,-6.42 24.42,-13.91 -13.5,59.82 -69.56,129 -51.29,236.27l11.66 25.85c-2.52,-89.9 -15.23,-116.39 20.12,-198.35 25.48,-59.08 27.84,-88.73 69.21,-121.67 16.42,-13.07 1.89,-3.29 20.05,-11.33 -17.73,48.33 -96.46,179.27 -66.98,254.88zm513.35 -403.92l52.47 -124.93c15.52,-28.88 -0.31,-3.27 12.97,-16.37 3.55,55.94 -27.01,249.74 -52.85,289.88 -46.62,-54.28 -58.47,-88.92 -25.35,-136.68 11.34,-16.37 7,-7.79 12.76,-11.9zm86.17 -153.04l-43.43 0c-11.67,29.98 -22.39,67.04 -41.14,93.27l-27.98 57.16c-12.12,-10.12 -29.77,-25.53 -43.6,-42.56l-28.62 -41.43c-6.53,-7.8 -5.2,-5.6 -11.59,-11.24 15.87,36.82 42.5,84.78 74.55,109.55 -21.62,53.09 -28.16,35.43 -38.12,73.94 -0.37,8.88 1.46,6.61 -7.61,3.45 -10.05,15.69 -17.81,31.2 -32.77,42.66 -56.53,-38.32 -74.95,-182.71 -95.53,-208.19 6.05,71.56 19.64,117.22 53.82,174.38 4.11,6.88 12.16,19.58 14.72,23.24 8.29,11.83 1.09,1.29 8.46,10.79 6.78,8.74 2.22,1.68 9.42,12.81 -34.93,51.02 -46.81,55.98 -75.56,98.57 -10.9,-8.86 -8.5,-4.04 -16.75,-17.34 -0.21,-0.33 -6.6,-16.74 -7.07,-18 -4.37,-11.88 -6.86,-20.78 -10.75,-33.06 -26.37,-83.13 -37.16,-137.74 -8.31,-221.86 -62.51,32.68 -16.9,216.71 25.96,293.08 -4.31,7.75 -31.35,42.01 -38.98,49.25l-125.58 96.47c-0.22,0.15 -10.65,7.08 -11.66,7.67 -11.23,6.51 1.67,-0.33 -15.35,7.3 27.19,-106.91 48.84,-384.6 171.37,-475.55 -2.02,74.63 39.76,129.19 60.77,189.89 2.44,-9.66 3.7,11.33 2.16,-13.81 -1.42,-23.22 -71.6,-147.01 -54.71,-191.21 15.61,-18.72 21.53,-30.6 51.48,-45.31 -0.88,36.57 4.89,98.94 21.67,122.88 -13.84,-37.7 -27.51,-110.14 -9.72,-146.78l-24.56 0c-11.44,23.26 -20.22,29.89 -42.97,46.98 -31.27,23.5 -57.68,83.8 -126.6,133.16l-386.61 374.07c-33.01,26.5 -134.75,99.07 -166.41,103.02 3.53,-8.59 0.45,-4.17 9.52,-13.26l80.9 -64.91c18.62,-12.83 20.27,-24.82 41.92,-40.27 26.16,-18.67 19.92,-11.54 42.54,-39.54 24.37,-30.14 92.37,-76.38 113.72,-101.91 64.41,-77.02 111.92,-117.73 183.4,-190.36 9.78,-9.94 12.52,-13.6 23.25,-21.03 57.2,-39.56 128.89,-132.09 178.39,-185.95l-40.05 0 -43.83 33.56c-142.74,90.39 -337.67,73.8 -378.66,103.39 173.23,15.61 286.22,-53.37 402.62,-99.99 -16.69,27.9 -54.44,62.06 -78.73,87.34 -30.87,32.14 -51.66,32.51 -106.22,52.95 -91.42,34.24 -166.75,46.64 -265.41,22.49 50.37,67.38 259.21,-15.91 313.67,-26.22 -7.61,19.11 0.94,7.2 -14.16,24.91 -41.87,49.1 -45.78,39.64 -102.46,45.71 -103.65,11.1 -177.66,-7.01 -193.56,-4.84 73.24,32.97 163.48,6.15 240.95,1.52 -13.76,39.86 -24.05,41 -66.52,42.24 -62.46,1.82 -190.77,1.13 -238.32,-48.61 26.38,-46.51 81.91,-77.18 134.23,-147.93 12.68,-17.15 20.06,-39.1 34.42,-54.84 67.1,-12.9 174.52,-3.28 237.28,-31.68l-51.64 0c-34.22,21.07 -106.99,10.37 -166.91,16.9 -9.98,-10.31 -13.41,16.86 -6.35,-16.9l-21.75 0c-20.38,60.75 -53.54,87.58 -88.52,136.81 -15.41,21.69 -15.42,16.11 -36.01,33.56 -18.5,15.67 -32.74,44.02 -52.52,62.06 -92.55,84.38 -108.47,223.52 -141.57,338.81 -49.6,172.75 -102.34,146.15 -99.32,191.63 18.83,2.6 289.22,-42.34 330.23,-49.78 65.92,-11.96 158.1,-36.87 218.46,-66.19l64.84 -34.17c0.82,53.43 4.38,109.48 8.52,163.08 7.74,100.1 -2.52,144.67 -1.44,158.94 30.53,-7.5 57.27,-51.11 101.38,-88.61l223.95 -231.77c116.53,-151.93 202.81,-397.8 207.31,-614.36z"/>
   <path class="fil2" d="M977.25 249.54c6.68,-5.22 12.42,8.17 4.17,-9.6 -3.34,-38.36 -19.04,-71.22 -29.29,-107.03 -9.75,-34.06 -14.42,-94.8 -22.56,-115.91 -15.85,114.43 16.51,143.72 47.69,232.54z"/>
   <path class="fil2" d="M641.73 561.69c2.16,-6.59 0.84,-94.12 4.05,-120.65 5.1,-42.22 15.92,-69.54 25.27,-104.76 -24.25,39.37 -61.56,172.15 -29.32,225.42z"/>
   <path class="fil2" d="M1006.02 12.96l-14.87 0 9.66 40.82c-12.79,-9.97 -4.92,7.66 -18.32,-21.12 -4.52,-9.71 -2.61,-9.8 -5.37,-19.71l-13.9 0c12.08,39.32 29.17,71.71 51.29,91.57l-8.48 -91.57z"/>
   <path class="fil2" d="M809.06 395.17c-14,-53.37 -22.08,-100.85 -34.26,-153.04 -11.42,30.99 2.6,116.57 34.26,153.04z"/>
   <path class="fil2" d="M1072.7 166c0.15,29.88 -5.47,81.99 17.57,103.78l-4.71 -98.32c-9.08,-10.17 6.21,-3.91 -12.86,-5.46z"/>
   <path class="fil2" d="M1074.3 106.22c-18.48,-23.05 -35.91,-55.6 -38.7,-93.27l-15.92 0c8.59,46.28 22.36,61.47 38.03,91.19l16.59 2.08z"/>
   <path class="fil2" d="M1016.14 259.01l16.45 103.33c7.14,-15.17 2.09,-89.53 -16.45,-103.33z"/>
   <path class="fil2" d="M212.13 480.32c-22.56,-19.79 -18.25,-22.77 -37.08,-44.97 5.51,37.33 39.24,55.71 77.12,83.24 -8.32,-15.19 -25.82,-25.81 -40.04,-38.27z"/>
   <path class="fil2" d="M1101.66 197.75l11.78 -52.2c-5.78,-36.47 -1.98,-9.67 -9.14,-18.32l-2.64 70.52z"/>
   <path class="fil2" d="M1102.23 12.96l-9.1 0c5.03,19.49 4.29,12.41 12.36,18.94l-3.26 -18.94z"/>
  </g>
 </g>
</svg>
