<?xml version="1.0" encoding="UTF-8"?>
<!DOCTYPE svg PUBLIC "-//W3C//DTD SVG 1.1//EN" "http://www.w3.org/Graphics/SVG/1.1/DTD/svg11.dtd">
<!-- Creator: CorelDRAW 2020 (64-Bit) -->
<svg xmlns="http://www.w3.org/2000/svg" xml:space="preserve" width="17.2672mm" height="17.9186mm" version="1.1" style="shape-rendering:geometricPrecision; text-rendering:geometricPrecision; image-rendering:optimizeQuality; fill-rule:evenodd; clip-rule:evenodd"
viewBox="0 0 297.56 308.79"
 xmlns:xlink="http://www.w3.org/1999/xlink"
 xmlns:xodm="http://www.corel.com/coreldraw/odm/2003">
 <defs>
  <style type="text/css">
   <![CDATA[
    .str0 {stroke:black;stroke-width:3.45;stroke-miterlimit:22.9256}
    .fil0 {fill:black}
    .fil2 {fill:#F3F3F5}
    .fil1 {fill:white}
   ]]>
  </style>
 </defs>
 <g id="Contenido_x0020_de_x0020_PowerClip">
  <metadata id="CorelCorpID_0Corel-Layer"/>
  <g id="_2127892333568">
   <path class="fil0 str0" d="M108.34 88.57c19.65,6.08 23.8,-5.27 100.28,25.19 14.79,5.89 29.8,12.72 44.4,19.37 8.54,3.89 39.4,14.25 42.53,19.97 -3.77,5.62 -11.93,5.4 -18.81,7.79 -22.81,7.93 -46.02,30.85 -64.21,47.63 -13.95,12.86 -4.63,8.97 -29.85,25.86 -43.01,28.81 -65.52,17.34 -103.26,36.08 -25.38,12.61 -45.11,29.7 -77.69,36.22l0 -5.45c0.8,-0.15 1.7,-0.34 2.69,-0.59l-0.25 -23.96 -2.44 0.65 0 -2.68 2.42 0.4 -0.13 -12.32c-0.76,-0.25 -1.53,-0.5 -2.29,-0.75l0 -3.89c0.69,0.22 1.45,0.47 2.25,0.74l-0.09 -8.66c-0.7,-0.23 -1.43,-0.47 -2.16,-0.7l0 -3.31c0.71,0.29 1.42,0.58 2.13,0.86l-0.09 -8.85 -2.03 -0.66 0 -2.68c0.59,0.12 1.26,0.27 2,0.44l-0.12 -11.35c-0.63,-0.11 -1.25,-0.22 -1.88,-0.32l0 -3.69c0.59,0.09 1.21,0.18 1.84,0.29l-0.14 -13.86c-0.55,0.05 -1.11,0.11 -1.7,0.16l0 -6.59c0.54,-0.12 1.09,-0.25 1.63,-0.37l-0.11 -10.82c-0.5,0.07 -1.01,0.14 -1.51,0.22l0 -6.28c0.48,-0.08 0.96,-0.16 1.45,-0.25l-0.06 -5.67c-0.45,0.25 -0.92,0.51 -1.39,0.77l0 -3.83 1.35 -0.88 -0.11 -9.95c-0.42,0.57 -0.83,1.13 -1.24,1.66l0 -3.79c0.42,-0.44 0.82,-0.9 1.2,-1.39l-0.23 -22.26c-0.31,0.55 -0.63,1.08 -0.97,1.58l0 -20.86 0.74 -2.21 -0.11 -10.19c-0.19,-0.06 -0.4,-0.14 -0.64,-0.23l0 -5.96 0.57 -0.04 -0.38 -35.93 -0.19 0.6 -0 -19.08 0 -0.04 0 -5.61c11.07,-2.95 24.27,-8.84 36.75,-12.4 13.13,-3.76 114.1,-27.39 119.74,-24.79 -2.16,11.78 -0.54,-2.59 -13.45,19.34 -3.92,6.65 -8.39,15.61 -12.71,23.14 -4.29,7.48 -21.87,37.87 -23.71,44.18z"/>
   <g>
    <path class="fil1" d="M140.13 153.49c1.62,0.78 7.29,0.85 8.53,0.37 5.91,-2.31 1.75,-0.11 6.16,-5.56l-14.69 5.19z"/>
    <path class="fil1" d="M189.95 136.42l0.85 1.71 5.78 -1.37c1.09,-7.78 1.18,-5.93 6.26,-10.06 -3.96,2.98 -3.11,3.57 -5.76,5.43 -1.9,1.34 -1.55,0.72 -4.15,2.24 -0.35,0.21 -1.22,1.41 -1.48,0.97 -0.27,-0.45 -1.01,0.69 -1.49,1.07z"/>
    <path class="fil1" d="M124.56 25.24c4.48,-2.52 5.12,-3.13 8.39,-5.94 -0.67,0.3 -3.42,0.55 -3.94,0.87 -6.08,3.69 -1.74,-2.97 -4.44,5.06z"/>
    <polygon class="fil1" points="1.72,278.51 7.89,276.85 1.72,275.83 "/>
    <path class="fil1" d="M48.39 155.64l-3.47 3.16c8.73,1.15 0.79,0.25 3.47,-3.16z"/>
    <path class="fil1" d="M1.72 236.01l0 2.68 67.11 21.69c-5.36,-5.6 -54.57,-21.86 -67.11,-24.37z"/>
    <path class="fil1" d="M164.32 235.49c-0.07,-18.74 -2.22,-25.46 -12.49,-40 -0.39,-0.56 -2.24,-3.51 -2.39,-3.73 -3.77,-5.14 -4.86,-5.06 -11.11,-7.08 2.98,2.87 5.78,5.79 8.28,10.06l8.24 11.42c5.26,8.25 5.88,20.6 9.48,29.33z"/>
    <path class="fil1" d="M58.56 199.48c5.35,-0.53 26.94,11.69 33.3,16.15 21.26,14.91 18.23,15.35 25.52,20.5 3.47,2.45 0.06,0.37 4.96,2.81 -13.88,-20.29 -46.25,-37.07 -63.78,-39.47z"/>
    <path class="fil1" d="M8.37 212.74c21.73,1.57 47.77,11.21 66.47,17.86 -10.09,-9.66 -49.6,-19.05 -66.47,-17.86z"/>
    <path class="fil1" d="M22.58 146.75c3.01,-5.81 19.61,-25.88 14.86,-33.5 -4.25,4.99 -14.14,26.82 -14.86,33.5z"/>
    <path class="fil1" d="M130.87 144.88l0.32 -2.29c-2.98,1.42 -14.92,8.3 -17.24,10.57l16.92 -8.28z"/>
    <polygon class="fil1" points="47.02,175.44 52.71,172.63 52.2,168.89 53.52,169.01 47.52,170.87 "/>
    <path class="fil2" d="M147.12 176.09c14.65,-3.61 22.41,0.41 29.32,12.88 7.08,12.76 6.48,25.21 7.99,40.04 -8.81,3.38 -15.58,10.48 -41.25,19.82l-11.91 -18.99c-6.84,-9.99 -35.01,-28.52 -47.38,-36.05 -0.52,-0.32 -2.15,-1.31 -2.6,-1.62l-2.43 -2.07c11.31,-1.95 22.33,-6.37 39.65,8.74 9.61,8.38 16.93,16.54 22.31,29.27 -4.87,-17.88 -23.65,-38.85 -38.32,-42.59 14.44,-3.89 11.08,-3.31 21.01,4.25 7.43,5.65 9.01,5.6 14.7,13.36 20.54,28.03 9.15,31.3 16.92,38.03 3.06,-9.75 -4.74,-27.78 -10.19,-34.96l-18.03 -17.68c-6.38,-4.93 -3.01,-0.27 -8.05,-7l22.27 -4.48c8.96,4.58 13.81,6.46 18.46,12.54 4.48,5.86 7.59,12.83 11.59,18.56 -8.78,-24.28 -17.41,-25.07 -24.08,-32.06zm37.59 49.45c3.73,-27.06 -4.13,-37.99 -20,-53.2 14.52,-2.11 22.74,0.16 32.34,7.73 1.57,1.24 3.69,3.85 4.9,5.07 6.32,6.4 8.31,8.58 9.94,19.78 -20.82,12.76 -14.82,16.57 -27.18,20.61zm31.38 -44.76c-0.92,-5.1 -5.21,-8.2 -8.02,-14.93 10.56,0.19 24.27,3.89 30.33,12.32 -5.72,9.57 -9.56,7 -23.49,21.31 -0.34,-0.52 -0.78,-1.17 -1.01,-1.58 -13.76,-24.42 -17.78,-18 -26.31,-28.89l18.65 -1.89c3.53,5.99 6.42,10.49 9.41,19.78l0.44 -6.11zm24.73 -4.06c-4.01,-1.92 -12.25,-7.9 -16.04,-12.01 11.63,-2 15.85,-0.65 25.21,4.22 -4.97,6.06 -2.01,4.79 -9.17,7.79zm23.59 -15.64l-9.86 6.35 -10.09 -4.93 19.96 -1.42zm-109.59 -12.79c-4.41,5.45 -0.26,3.25 -6.16,5.56 -1.24,0.48 -6.91,0.41 -8.53,-0.37l14.69 -5.19zm61.74 -0.75c25.89,-8.4 28.2,-13.01 43.09,-4.23 3.78,2.23 1.94,1.4 4.3,3.77l-19.15 0.19c0.27,-0.61 0.62,-0.65 0.64,-0.83 0.01,-0.07 -0.02,-0.67 -0.02,-0.74 0,-0.09 -0.23,-0.55 -0.24,-0.94 -0.01,-0.47 -0.23,-0.74 -0.39,-1.08 -13.54,4.25 -13.18,5.24 -28.24,3.87zm6.38 -19.19c7.48,1.07 14.02,4.23 19.07,7.98 -5.53,4.12 -11.47,5.4 -19.04,6.69 -6.89,1.18 -16.11,1.66 -23.2,2.06 5.67,-5.52 6.12,-4.21 13.41,-8.58 3.33,-2 2.25,-0.93 5.98,-4.04 4.39,-3.66 2.14,-1.9 3.78,-4.11zm-32.15 9.77l-0.85 -1.71c-6.26,3.21 -11.21,5.59 -18.77,6.07l33.77 -22.63c6.91,1.78 13.27,3.77 18,8.49 -18.55,8.75 -32.57,20.58 -59.17,22.67 1.89,-1.61 1.34,-1.6 4.6,-3.49l22.41 -9.4zm-97.03 -49.29c4.84,-5.68 3.68,-4.63 10.58,-6.91 -3.02,7.13 -1.75,9.42 -10.58,6.91zm6.23 -37.12c17.24,-8.71 8.91,-12.54 27.93,-13.43 -9.65,21.41 -11.53,27.92 -33.79,43.09 -13.31,9.06 -7.77,9.1 -35.2,9.76 2.03,-2.3 0.5,-1.75 4.77,-4.62 0.19,-0.13 3.6,-1.75 3.98,-1.91 8.17,-3.34 15.28,-4.4 22.55,-11.46l-17.69 5.71c2.35,-3.84 0.14,-1.69 4.14,-5.17 11.68,-10.14 17.77,-13.72 33.86,-18.24 -15.14,0.1 -6.83,-0.41 -10.56,-3.72zm19.32 -22.94c-1.29,6.82 -1.81,2.45 -8.94,9.05l-39.04 32.75c-9.09,7.4 -11.34,18.44 -32.54,22.56l8.8 -10.63c15.5,-12.65 14.04,-13.78 18.34,-17.38 4.68,-3.92 4.9,-2.76 10.29,-7.7 7.78,-7.13 33.11,-26.71 43.09,-28.66zm4.56 6.92c3.25,-6.07 -2.48,-0.94 5.8,-6.86 1.39,-0.99 3.11,-1.51 5.24,-3.11 -2.15,8.04 -2.51,10.21 -11.04,9.97zm-4.56 -6.92c2.2,-3.68 -6.57,-2.65 2.01,-3.13l3.23 -0.41c-0.86,1.4 3.5,1.3 -5.24,3.54zm-14.76 -10.48c-5.08,14.17 -18.81,28.71 -30.65,33.68l8.36 -21.99c0.51,-1.79 0.79,-2.98 1.46,-4.77l1.61 -3.27 19.22 -3.64zm20 6.94c2.7,-8.03 -1.64,-1.37 4.44,-5.06 0.52,-0.32 3.27,-0.57 3.94,-0.87 -3.26,2.81 -3.91,3.42 -8.39,5.94zm-23.68 6.13c5.81,-15.59 7.28,-13.64 25.16,-16.78 -10.47,11.43 -14.63,7.7 -14.72,7.74 -2.87,3.08 -4.68,5.82 -10.44,9.03zm-99.16 8.9l0 24.72 6.87 -21.27c11.66,-6.05 26.18,-11.29 39.12,-12.75 -4.06,20.33 -12.51,46.7 -22.84,61.23 15.06,-12.07 17.13,-41.63 25.36,-62.68l31.98 -6.94c-4.23,17.42 -15.74,42.47 -31.62,48.75 3.84,-9.28 8.01,-12.59 10.65,-21.23 -3.53,5.31 -6.26,10.77 -10.28,15.87 -22.76,28.91 -12.81,26.14 -42.67,32.98l4.19 -5.65c9.36,-12.05 11.94,-37.2 5.51,-43.69 1.68,35.43 -6.57,30.65 -11.56,50.43l-4.74 0.31 0 5.95c4.79,1.85 1.16,-2.11 3.37,2.63l-3.37 10.01 0 20.86c5.62,-8.31 6.75,-23.35 6.75,-34.47 15.16,-5.18 60.73,-10.99 76.49,-8.94 -18.4,16.64 -13.95,16.27 -29.64,31.73 -3.71,3.65 -4.68,7.29 -8.33,11.69 -4.84,5.84 -6.45,4.73 -10.82,9.05 -6.1,6.03 -0.64,4.34 -10,10.04l-24.45 15.93 0 3.83c11.35,-6.26 17.33,-10.61 26.98,-17.39l62.68 -64.76c15.32,-2.66 55.76,0.58 68.18,7.93 -3.65,9.2 -7.69,14.66 -13.08,21.14l-15.29 16.99 -0.32 2.29c6.78,-11.57 24.96,-18.46 31.3,-40.85 10.4,2.22 30.21,7.85 38.95,14.37l-12.15 9.99c-26.97,15.22 -75.03,33.23 -104.86,37.14 3.58,-4.75 -0.95,-0.7 5.01,-5.79l36.06 -29.42c5.97,-6.27 11.85,-19.23 14.4,-28.49 -3.51,2.52 -1,-1.34 -5.28,5.57 -0.95,1.53 -2.49,4.95 -3.25,6.62 -15.85,34.5 -32.62,34.34 -49.12,48.89 -9.09,8.01 -15.24,6.04 -29.21,9.73l-5.69 2.8c-12.63,-0.96 -31.75,6.18 -45.3,8.4l0 6.28c66.56,-9.31 156.53,-47.58 245.28,-35.29 -13.97,4.22 -47.55,5.83 -64.4,8.49 -65.33,10.33 -116.79,23.09 -180.89,37.77l0 6.59c17.66,-1.65 16.3,-2.67 34.23,1.62 10.83,2.59 21.16,5.24 31.08,8.96 46.16,17.33 25.24,11.52 49.9,30.55 -6.67,-16.25 -20.41,-21.94 -38.8,-29.26 -18.49,-7.35 -35.69,-10.41 -53.26,-16.88l51.49 -11.74c3.31,5.12 8.65,7.28 17.13,12.86 6.67,4.39 12.57,6.92 18.08,12 11.78,10.87 20.64,19.56 26.73,33.52l-47.41 6.99c-16.36,-14.07 -67.05,-32.04 -89.16,-35.23l0 3.69c33.15,5.33 62.09,24.05 91.06,33.88 -6.15,5.66 -7.46,4.27 -17.61,9.06 -2.97,1.4 -5.08,2.31 -8.06,3.89 -13.91,7.39 -6.92,4.34 -35.78,-11.26 -9.92,-5.36 -19.48,-8.89 -29.61,-13.02l0 3.31c22.68,7.21 31.48,15.5 51.2,27.15 -0.06,0.08 1.67,2.23 -4.03,3.62 -4.31,1.05 -4.17,-0.35 -6.78,-1.92 -3.94,-2.38 -6.59,-5.46 -11.69,-8.33 -6.66,-3.74 -21.21,-9.53 -28.7,-11.9l0 3.89c15.46,5.04 30.28,10.41 40.02,20.61 -6.57,8.13 -30.58,16.89 -40.02,18.63l0 5.45c32.59,-6.53 52.31,-23.62 77.7,-36.22 37.74,-18.74 60.25,-7.28 103.26,-36.08 25.21,-16.89 15.9,-13.01 29.84,-25.86 18.2,-16.78 41.4,-39.7 64.21,-47.63 6.88,-2.39 15.04,-2.17 18.81,-7.79 -3.13,-5.71 -33.98,-16.08 -42.53,-19.97 -14.6,-6.64 -29.62,-13.48 -44.4,-19.37 -76.48,-30.46 -80.62,-19.1 -100.28,-25.18 1.85,-6.31 19.43,-36.7 23.71,-44.18 4.31,-7.52 8.79,-16.48 12.7,-23.14 12.91,-21.93 11.29,-7.56 13.46,-19.34 -5.64,-2.61 -106.61,21.03 -119.74,24.79 -12.48,3.57 -25.68,9.46 -36.75,12.41z"/>
    <path class="fil2" d="M53.52 169.01l-1.32 -0.12c15.17,-0.74 56.89,-33.43 62.15,-54.23 -2.55,1.64 -3.85,2.85 -6.38,6.27 -28.74,38.72 -46.04,38.66 -54.44,48.08z"/>
    <path class="fil2" d="M48.39 155.64c13.25,-7.36 38.55,-30.44 42.85,-53.08 -4.06,3.51 -5.65,8.14 -9.13,14.42 -2.73,4.93 -5.98,10.33 -9.48,14.54l-11.7 12.25c-4.23,4.21 -9.87,9.78 -12.53,11.87z"/>
    <path class="fil2" d="M1.72 161.89l0 3.79c7.96,-10.47 18.31,-27.8 17.11,-45.97 -6.79,12.04 -7.66,32.18 -17.11,42.18z"/>
    <path class="fil2" d="M186.47 180.92l7.46 34.06c2.92,-9.35 -2.52,-26.59 -7.46,-34.06z"/>
    <path class="fil2" d="M147.56 139.09c10.42,-3.09 19.65,-11.51 24.19,-21.34 -3.73,4.21 -5.03,5.79 -10.18,11.02 -4.71,4.79 -12.23,7.16 -14.01,10.32z"/>
   </g>
  </g>
 </g>
</svg>
