<?xml version="1.0" encoding="UTF-8"?>
<!DOCTYPE svg PUBLIC "-//W3C//DTD SVG 1.1//EN" "http://www.w3.org/Graphics/SVG/1.1/DTD/svg11.dtd">
<!-- Creator: CorelDRAW 2020 (64-Bit) -->
<svg xmlns="http://www.w3.org/2000/svg" xml:space="preserve" width="12.0243mm" height="9.4943mm" version="1.1" style="shape-rendering:geometricPrecision; text-rendering:geometricPrecision; image-rendering:optimizeQuality; fill-rule:evenodd; clip-rule:evenodd"
viewBox="0 0 189.46 149.6"
 xmlns:xlink="http://www.w3.org/1999/xlink"
 xmlns:xodm="http://www.corel.com/coreldraw/odm/2003">
 <defs>
  <style type="text/css">
   <![CDATA[
    .str0 {stroke:black;stroke-width:3.15;stroke-miterlimit:22.9256}
    .fil0 {fill:black}
    .fil2 {fill:#F3F3F5}
    .fil1 {fill:white}
   ]]>
  </style>
 </defs>
 <g id="Contenido_x0020_de_x0020_PowerClip">
  <metadata id="CorelCorpID_0Corel-Layer"/>
  <g id="_2127676824112">
   <path class="fil0 str0" d="M186.62 1.89c-38.72,61.06 -61.05,78.42 -129.59,116.88l-40.53 21.43c-9.29,4.95 -2.82,6.18 -14.86,7.62 0.26,-8.35 7.04,-19.91 8.9,-32 6.08,-39.66 -6.64,-61.51 -0.07,-113.93 42.25,1.08 83.46,-1.08 176.15,0z"/>
   <g>
    <path class="fil1" d="M20.6 9.46c10.56,12.08 34.56,16.41 46.52,12.74 4.42,-1.36 3.32,-1.87 4.71,-3.06 -22.28,2.58 -34.66,-0.51 -51.23,-9.68z"/>
    <path class="fil1" d="M99.34 79.97c-0.79,-4.36 -2.47,-12.72 -2.73,-16.88 -0.37,-5.82 1.9,-10.14 0.32,-13.51 -4.27,6.69 -5.21,23.01 2.41,30.39z"/>
    <path class="fil2" d="M28.12 124.81c-2.42,7.76 0.23,3.17 -5.11,6.2 3.35,-6.64 -0.88,-0.07 1.63,-2.95 2.16,-2.48 1.1,-1.39 3.49,-3.25zm2.9 2.54c2.55,-7.07 2.72,-9.35 8.06,-13.75 -2.93,10.76 0.44,9.67 -8.06,13.75zm-15.33 -8.69c0.93,-10.48 -1.78,-6.94 6.57,-8.53 -1.68,3.77 0.15,1.46 -1.83,4.13 -3.59,4.84 -1.29,1.9 -4.74,4.39zm20.85 -15.57l-3.4 5.52c2.33,-10.6 0.39,-3.62 3.4,-5.52zm3.12 19.81l3.27 -17.23c1.11,-4.73 5.7,-8.27 9.35,-11.24 0.34,-0.27 0.92,-0.71 1.38,-1.07 -1.16,6.54 -3.13,10.08 -4.44,16.65 -2.26,11.34 2.47,9.3 -9.55,12.89zm25.1 -11.62l-15.39 6.41c4.3,-15.38 7.53,-33.38 18.1,-43.35 -0.99,14.07 -3.58,19.77 -2.71,36.95zm-49.82 -48.32c13.33,5.85 19.9,5.64 35.58,1.5l-7.59 13.19 -22.93 -3.2c13.65,9.94 12.78,0.53 20.72,9.46l-6.08 6.57c-4.88,10.1 -5.63,15.05 -17.89,17.65l-1.82 -45.17zm50.83 45.57c2.19,-14.41 0.98,-27.78 6.55,-42.05 4.16,-10.64 4.53,-7.85 7.02,-9.71 -3.36,16.4 -8.4,21.29 -7.06,40.11 -1.7,-9.44 5.1,-32.76 12.15,-40.66 -2.98,15.42 -6.75,30.28 -6.35,46.69 -3.83,2.63 -7.31,4.32 -12.32,5.62zm23.57 -69.24c-0.34,9.88 -1.27,7.9 -3.82,11.59 0.25,-7.62 -0.79,-8.44 3.82,-11.59zm97.27 -36.33l-6.27 0 -18.24 26.24 -4.01 -26.24 -4.45 0 5 32.87 -31.99 33.51c-5.63,6.56 -4.13,4.45 -11.73,8.8 -8.36,-13.18 -15.18,-44.55 -8.51,-59.76 -10.66,7.16 -2.06,50.41 6.47,60.89 -6.45,7.98 -20.42,17.14 -32.29,21 0.35,-27.82 8.63,-39.35 12.55,-63.48 -2.84,6.84 -0.86,0.28 -3.81,2.51 1.73,-12.49 11.55,-23.6 16.41,-36.33l-4.89 0c-16.68,32.95 -25.31,54.53 -50.34,84.92l-13.98 15.22 39.59 -75.08c4.22,-8.32 8.43,-17.19 12.17,-25.06l-12.15 0c-10.01,8.88 -33.4,8.61 -43.82,0l-6.72 0c14.08,14.69 38.35,10.15 55.48,2.73 -8.21,23.68 -8.13,18.27 -28.42,25.42 7.27,0.15 12.17,-1.49 17.69,-3.12 -4.56,12.24 -8.87,17.97 -24.64,15.43 -11.16,-1.79 -17.47,-8.87 -24.07,-12.76 13.45,14.26 17.65,15.31 39.71,14.19 -7.35,29.63 -41.8,17.51 -47.19,17.13 -0.82,-21.89 -2.81,-36.53 0.6,-59.02l-4.31 0c-6.58,52.42 6.15,74.26 0.07,113.93 -1.85,12.09 -8.64,23.65 -8.9,32 12.05,-1.44 5.57,-2.67 14.86,-7.62l40.53 -21.43c12.67,-7.11 60.05,-34.13 70.84,-43.9l19.45 -20.57c2.78,-2.45 2.63,-1.55 4.77,-4.2 2.38,-2.94 1.49,-3.2 4.54,-6.55l13.6 -17.29c6.6,-9.07 10.25,-14.71 16.38,-24.37z"/>
    <path class="fil2" d="M128.07 2.96l-4.46 0c0.65,6.95 1.2,14.59 3.01,21.21 2.02,7.39 3.32,13.24 7.29,14.8l-5.84 -36.02z"/>
    <path class="fil2" d="M115.61 2.96l-1.78 0c-0.37,13.22 -0.96,22.94 2.09,35.71 1.68,7.06 6.91,23.32 12.65,25.3 -9.77,-24.52 -14.69,-29.47 -12.96,-61.01z"/>
    <path class="fil2" d="M145.53 2.96l-3.23 0c2.52,11.81 6.14,19.05 12.53,26.29l-9.29 -26.29z"/>
    <path class="fil2" d="M15.72 40.29c3.32,6.45 7.09,6.55 14.05,9.47 4.02,1.68 10.66,5.68 14.86,4.73 -8.41,-4.5 -21,-9.69 -28.91,-14.2z"/>
   </g>
  </g>
 </g>
</svg>
